<svg width="1131" height="118" viewBox="0 0 1131 118" fill="none" xmlns="http://www.w3.org/2000/svg">
<g clip-path="url(#clip0)">
<path d="M57.512 87.128H23.712L17.264 102.728H0L32.448 29.928H49.088L81.64 102.728H63.96L57.512 87.128ZM52.208 74.336L40.664 46.464L29.12 74.336H52.208Z" fill="black"/>
<path d="M119.469 100.024C117.875 101.203 115.899 102.104 113.541 102.728C111.253 103.283 108.827 103.56 106.261 103.56C99.6052 103.56 94.4398 101.861 90.7652 98.464C87.1599 95.0667 85.3572 90.0746 85.3572 83.488V60.504H76.7252V48.024H85.3572V34.4H101.581V48.024H115.517V60.504H101.581V83.28C101.581 85.6373 102.171 87.4747 103.349 88.792C104.597 90.04 106.331 90.664 108.549 90.664C111.115 90.664 113.299 89.9707 115.101 88.584L119.469 100.024Z" fill="black"/>
<path d="M258.334 45.944C265.337 45.944 270.884 48.024 274.974 52.184C279.134 56.2746 281.214 62.4453 281.214 70.696V102.728H264.99V73.192C264.99 68.7546 264.054 65.4613 262.182 63.312C260.38 61.0933 257.78 59.984 254.382 59.984C250.569 59.984 247.553 61.232 245.334 63.728C243.116 66.1547 242.006 69.7946 242.006 74.648V102.728H225.782V73.192C225.782 64.3866 222.246 59.984 215.174 59.984C211.43 59.984 208.449 61.232 206.23 63.728C204.012 66.1547 202.902 69.7946 202.902 74.648V102.728H186.678V46.776H202.174V53.224C204.254 50.8666 206.785 49.064 209.766 47.816C212.817 46.568 216.145 45.944 219.75 45.944C223.702 45.944 227.273 46.7413 230.462 48.336C233.652 49.8613 236.217 52.1146 238.158 55.096C240.446 52.184 243.324 49.9307 246.79 48.336C250.326 46.7413 254.174 45.944 258.334 45.944Z" fill="black"/>
<path d="M291.596 46.776H307.82V102.728H291.596V46.776Z" fill="black"/>
<path d="M345.758 103.56C339.795 103.56 334.422 102.347 329.638 99.92C324.923 97.424 321.214 93.992 318.51 89.624C315.875 85.256 314.558 80.2986 314.558 74.752C314.558 69.2053 315.875 64.248 318.51 59.88C321.214 55.512 324.923 52.1146 329.638 49.688C334.422 47.192 339.795 45.944 345.758 45.944C351.651 45.944 356.782 47.192 361.15 49.688C365.587 52.1146 368.811 55.616 370.822 60.192L358.238 66.952C355.326 61.8213 351.131 59.256 345.654 59.256C341.424 59.256 337.923 60.6426 335.15 63.416C332.376 66.1893 330.99 69.968 330.99 74.752C330.99 79.536 332.376 83.3146 335.15 86.088C337.923 88.8613 341.424 90.248 345.654 90.248C351.2 90.248 355.395 87.6826 358.238 82.552L370.822 89.416C368.811 93.8533 365.587 97.32 361.15 99.816C356.782 102.312 351.651 103.56 345.758 103.56Z" fill="black"/>
<path fill-rule="evenodd" clip-rule="evenodd" d="M137.633 46.3006C139.483 51.2244 144.235 54.728 149.806 54.728C155.376 54.728 160.128 51.2244 161.979 46.3006C172.482 50.969 179.806 61.4932 179.806 73.728C179.806 90.2966 166.374 103.728 149.806 103.728C133.237 103.728 119.806 90.2966 119.806 73.728C119.806 61.4932 127.13 50.969 137.633 46.3006ZM141.39 44.9245C142.679 48.3171 145.961 50.728 149.806 50.728C153.65 50.728 156.932 48.3171 158.221 44.9245C155.551 44.1457 152.727 43.728 149.806 43.728C146.884 43.728 144.06 44.1457 141.39 44.9245ZM163.806 73.728C163.806 81.46 157.538 87.728 149.806 87.728C142.074 87.728 135.806 81.46 135.806 73.728C135.806 65.996 142.074 59.728 149.806 59.728C157.538 59.728 163.806 65.996 163.806 73.728Z" fill="black"/>
<path d="M143.442 48.092C139.927 44.5773 139.927 38.8788 143.442 35.3641C146.957 31.8493 152.655 31.8493 156.17 35.3641C157.784 36.978 158.657 39.0525 158.788 41.1645C158.943 43.6518 158.07 46.1912 156.17 48.092C152.655 51.6067 146.957 51.6067 143.442 48.092Z" fill="url(#paint0_linear)"/>
<path d="M415.806 29.928H448.878C456.782 29.928 463.75 31.4533 469.782 34.504C475.883 37.4853 480.598 41.7146 483.926 47.192C487.323 52.6693 489.022 59.048 489.022 66.328C489.022 73.608 487.323 79.9866 483.926 85.464C480.598 90.9413 475.883 95.2053 469.782 98.256C463.75 101.237 456.782 102.728 448.878 102.728H415.806V29.928ZM448.046 88.896C455.326 88.896 461.115 86.8853 465.414 82.864C469.782 78.7733 471.966 73.2613 471.966 66.328C471.966 59.3946 469.782 53.9173 465.414 49.896C461.115 45.8053 455.326 43.76 448.046 43.76H432.654V88.896H448.046Z" fill="black"/>
<path d="M518.992 45.944C527.658 45.944 534.314 48.024 538.96 52.184C543.605 56.2746 545.928 62.48 545.928 70.8V102.728H530.744V95.76C527.693 100.96 522.008 103.56 513.688 103.56C509.389 103.56 505.645 102.832 502.456 101.376C499.336 99.92 496.944 97.9093 495.28 95.344C493.616 92.7786 492.784 89.8666 492.784 86.608C492.784 81.408 494.725 77.3173 498.608 74.336C502.56 71.3546 508.626 69.864 516.808 69.864H529.704C529.704 66.328 528.629 63.624 526.48 61.752C524.33 59.8106 521.106 58.84 516.808 58.84C513.826 58.84 510.88 59.3253 507.968 60.296C505.125 61.1973 502.698 62.4453 500.688 64.04L494.864 52.704C497.914 50.5546 501.554 48.8906 505.784 47.712C510.082 46.5333 514.485 45.944 518.992 45.944ZM517.744 92.64C520.517 92.64 522.978 92.016 525.128 90.768C527.277 89.4506 528.802 87.544 529.704 85.048V79.328H518.576C511.92 79.328 508.592 81.512 508.592 85.88C508.592 87.96 509.389 89.624 510.984 90.872C512.648 92.0506 514.901 92.64 517.744 92.64Z" fill="black"/>
<path d="M592.539 100.024C590.944 101.203 588.968 102.104 586.611 102.728C584.323 103.283 581.896 103.56 579.331 103.56C572.675 103.56 567.51 101.861 563.835 98.464C560.23 95.0667 558.427 90.0746 558.427 83.488V60.504H549.795V48.024H558.427V34.4H574.651V48.024H588.587V60.504H574.651V83.28C574.651 85.6373 575.24 87.4747 576.419 88.792C577.667 90.04 579.4 90.664 581.619 90.664C584.184 90.664 586.368 89.9706 588.171 88.584L592.539 100.024Z" fill="black"/>
<path d="M620.054 45.944C628.721 45.944 635.377 48.024 640.022 52.184C644.668 56.2746 646.99 62.48 646.99 70.8V102.728H631.806V95.76C628.756 100.96 623.07 103.56 614.75 103.56C610.452 103.56 606.708 102.832 603.518 101.376C600.398 99.92 598.006 97.9093 596.342 95.344C594.678 92.7786 593.846 89.8666 593.846 86.608C593.846 81.408 595.788 77.3173 599.67 74.336C603.622 71.3546 609.689 69.864 617.87 69.864H630.766C630.766 66.328 629.692 63.624 627.542 61.752C625.393 59.8106 622.169 58.84 617.87 58.84C614.889 58.84 611.942 59.3253 609.03 60.296C606.188 61.1973 603.761 62.4453 601.75 64.04L595.926 52.704C598.977 50.5546 602.617 48.8906 606.846 47.712C611.145 46.5333 615.548 45.944 620.054 45.944ZM618.806 92.64C621.58 92.64 624.041 92.016 626.19 90.768C628.34 89.4506 629.865 87.544 630.766 85.048V79.328H619.638C612.982 79.328 609.654 81.512 609.654 85.88C609.654 87.96 610.452 89.624 612.046 90.872C613.71 92.0506 615.964 92.64 618.806 92.64Z" fill="black"/>
<path d="M1081.92 59.0897L1077.15 56.1388C1077.11 55.6744 1077.07 55.2112 1077.02 54.7501L1081.12 50.9312C1081.53 50.5428 1081.72 49.9678 1081.61 49.4123C1081.5 48.8536 1081.11 48.3936 1080.57 48.1973L1075.33 46.2444C1075.2 45.7909 1075.06 45.3407 1074.92 44.8883L1078.19 40.3534C1078.52 39.8923 1078.59 39.2924 1078.37 38.7694C1078.16 38.2454 1077.68 37.87 1077.13 37.7778L1071.6 36.8795C1071.39 36.4607 1071.17 36.0485 1070.94 35.6427L1073.26 30.5437C1073.5 30.0251 1073.45 29.4262 1073.13 28.9489C1072.82 28.4758 1072.28 28.1992 1071.71 28.2209L1066.1 28.4162C1065.81 28.0538 1065.52 27.6947 1065.22 27.3421L1066.51 21.885C1066.64 21.3306 1066.48 20.7459 1066.07 20.3445C1065.67 19.9431 1065.09 19.7771 1064.53 19.9072L1059.07 21.1983C1058.72 20.8989 1058.36 20.6027 1058 20.313L1058.19 14.704C1058.22 14.1366 1057.94 13.5974 1057.47 13.2828C1056.99 12.966 1056.39 12.9183 1055.87 13.1537L1050.78 15.4754C1050.37 15.2498 1049.96 15.0263 1049.55 14.8104L1048.65 9.28819C1048.56 8.72838 1048.18 8.25319 1047.65 8.04055C1047.13 7.82249 1046.53 7.893 1046.07 8.22499L1041.54 11.4906C1041.09 11.3484 1040.64 11.2117 1040.19 11.0815L1038.24 5.84145C1038.04 5.30767 1037.58 4.91602 1037.02 4.80536C1036.47 4.69579 1035.89 4.88131 1035.5 5.29574L1031.68 9.39668C1031.22 9.34569 1030.76 9.29904 1030.3 9.26107L1027.35 4.48749C1027.05 4.0047 1026.52 3.71069 1025.95 3.71069C1025.37 3.71069 1024.85 4.0047 1024.56 4.48749L1021.61 9.26107C1021.14 9.29904 1020.68 9.34569 1020.22 9.39668L1016.4 5.29574C1016.01 4.88131 1015.44 4.69579 1014.88 4.80536C1014.32 4.91711 1013.86 5.30767 1013.66 5.84145L1011.71 11.0815C1011.26 11.2117 1010.81 11.3495 1010.37 11.4906L1005.83 8.22499C1005.37 7.89192 1004.77 7.8214 1004.25 8.04055C1003.72 8.25753 1003.35 8.73272 1003.26 9.28819L1002.36 14.8104C1001.94 15.0263 1001.53 15.2487 1001.12 15.4754L996.031 13.1537C995.513 12.9172 994.913 12.966 994.436 13.2828C993.963 13.5974 993.686 14.1366 993.708 14.704L993.903 20.313C993.541 20.6027 993.182 20.8989 992.827 21.1983L987.37 19.9072C986.815 19.7781 986.231 19.9431 985.829 20.3445C985.426 20.747 985.262 21.3274 985.392 21.885L986.672 27.3421C986.374 27.6958 986.079 28.0538 985.789 28.4162L980.18 28.2209C979.615 28.2046 979.074 28.4758 978.759 28.9489C978.442 29.4197 978.394 30.0229 978.63 30.5437L980.952 35.6427C980.726 36.0517 980.502 36.464 980.286 36.8795L974.764 37.7778C974.203 37.8689 973.73 38.2443 973.517 38.7694C973.3 39.2956 973.37 39.8977 973.701 40.3534L976.967 44.8883C976.825 45.3364 976.687 45.7866 976.557 46.2444L971.316 48.1973C970.785 48.3958 970.393 48.8558 970.283 49.4123C970.172 49.97 970.357 50.5407 970.773 50.9312L974.874 54.7501C974.823 55.2112 974.777 55.6755 974.738 56.1388L969.976 59.0897C969.493 59.3881 969.199 59.9153 969.199 60.4892C969.199 61.0631 969.493 61.585 969.976 61.8779L974.738 64.8289C974.777 65.2932 974.823 65.7565 974.874 66.2175L970.773 70.0364C970.357 70.4237 970.172 70.9987 970.283 71.5553C970.393 72.114 970.785 72.5729 971.316 72.7704L976.557 74.7232C976.687 75.1767 976.825 75.6269 976.967 76.0793L973.701 80.6142C973.369 81.0764 973.299 81.6764 973.517 82.1982C973.735 82.7244 974.209 83.0998 974.775 83.1898L980.297 84.0881C980.513 84.5069 980.735 84.9192 980.962 85.3249L978.641 90.4131C978.404 90.9306 978.453 91.5306 978.77 92.0079C979.087 92.482 979.626 92.7587 980.191 92.7359L985.789 92.5395C986.081 92.904 986.375 93.261 986.674 93.6158L985.394 99.0728C985.264 99.6261 985.428 100.201 985.831 100.603C986.232 101.007 986.814 101.169 987.372 101.039L992.829 99.7585C993.184 100.06 993.543 100.353 993.905 100.642L993.71 106.251C993.688 106.818 993.965 107.357 994.438 107.672C994.909 107.987 995.512 108.035 996.033 107.799L1001.12 105.477C1001.53 105.705 1001.94 105.926 1002.36 106.142L1003.26 111.664C1003.35 112.226 1003.72 112.701 1004.25 112.923C1004.77 113.141 1005.38 113.07 1005.83 112.739L1010.37 109.474C1010.82 109.616 1011.27 109.755 1011.72 109.885L1013.68 115.125C1013.88 115.657 1014.34 116.051 1014.89 116.159C1015.45 116.272 1016.02 116.085 1016.41 115.669L1020.23 111.568C1020.69 111.621 1021.16 111.665 1021.62 111.707L1024.57 116.469C1024.87 116.95 1025.4 117.246 1025.96 117.246C1026.52 117.246 1027.05 116.951 1027.36 116.469L1030.31 111.707C1030.77 111.665 1031.24 111.621 1031.7 111.568L1035.52 115.669C1035.9 116.085 1036.48 116.272 1037.04 116.159C1037.59 116.049 1038.05 115.657 1038.25 115.125L1040.2 109.885C1040.66 109.755 1041.11 109.616 1041.56 109.474L1046.09 112.739C1046.56 113.07 1047.16 113.141 1047.68 112.923C1048.2 112.707 1048.58 112.231 1048.67 111.664L1049.57 106.142C1049.99 105.926 1050.4 105.702 1050.81 105.477L1055.9 107.799C1056.41 108.035 1057.01 107.987 1057.49 107.672C1057.96 107.355 1058.24 106.818 1058.22 106.251L1058.02 100.642C1058.39 100.352 1058.74 100.06 1059.1 99.7585L1064.56 101.039C1065.11 101.169 1065.69 101.007 1066.1 100.603C1066.5 100.2 1066.66 99.6218 1066.53 99.0728L1065.25 93.6158C1065.55 93.261 1065.85 92.904 1066.14 92.5395L1071.75 92.7359C1072.31 92.7587 1072.85 92.482 1073.17 92.0079C1073.48 91.5349 1073.53 90.9328 1073.29 90.4131L1070.97 85.3249C1071.2 84.9137 1071.42 84.5014 1071.64 84.0881L1077.16 83.1898C1077.72 83.0998 1078.19 82.7244 1078.41 82.1982C1078.62 81.6742 1078.56 81.0699 1078.22 80.6142L1074.96 76.0793C1075.1 75.6313 1075.24 75.181 1075.37 74.7232L1080.61 72.7704C1081.14 72.5707 1081.53 72.1118 1081.64 71.5553C1081.75 70.9976 1081.57 70.427 1081.15 70.0364L1077.05 66.2175C1077.1 65.7565 1077.14 65.2921 1077.18 64.8289L1081.95 61.8779C1082.43 61.5806 1082.72 61.0523 1082.72 60.4892C1082.72 59.9262 1082.43 59.3935 1081.95 59.0897H1081.92ZM1050.02 98.6888C1048.2 98.296 1047.05 96.4973 1047.44 94.6746C1047.83 92.852 1049.62 91.6911 1051.44 92.0817C1053.26 92.4712 1054.42 94.2732 1054.03 96.0958C1053.64 97.9185 1051.85 99.0793 1050.03 98.6888H1050.02ZM1048.4 87.7312C1046.74 87.3754 1045.1 88.4321 1044.76 90.0963L1043.06 97.9944C1037.85 100.36 1032 101.683 1025.92 101.683C1019.67 101.683 1013.77 100.305 1008.46 97.8317L1006.76 89.9336C1006.41 88.2737 1004.78 87.2105 1003.12 87.5685L996.142 89.0657C994.851 87.7312 993.647 86.31 992.54 84.8128H1026.5C1026.88 84.8128 1027.14 84.7434 1027.14 84.3941V72.3516C1027.14 72.0023 1026.88 71.9328 1026.5 71.9328H1016.57V64.3276H1027.3C1028.28 64.3276 1032.54 64.6075 1033.9 70.0559C1034.32 71.7267 1035.26 77.1729 1035.9 78.9196C1036.54 80.8724 1039.14 84.7781 1041.9 84.7781H1058.83C1059.02 84.7781 1059.23 84.7564 1059.44 84.7174C1058.27 86.3122 1056.98 87.8202 1055.6 89.2306L1048.46 87.7008L1048.4 87.7312ZM1001.43 98.526C999.603 98.9188 997.813 97.7579 997.423 95.9331C997.033 94.1105 998.191 92.3095 1000.02 91.919C1001.84 91.5295 1003.63 92.6903 1004.02 94.5119C1004.41 96.3345 1003.25 98.1355 1001.43 98.526ZM988.515 46.3421C989.271 48.0454 988.502 50.0416 986.801 50.801C985.098 51.5572 983.113 50.788 982.353 49.0869C981.594 47.3857 982.366 45.3873 984.067 44.6279C985.771 43.8728 987.756 44.6409 988.515 46.3421ZM984.556 55.7156L991.824 52.4826C993.376 51.7937 994.081 49.9765 993.387 48.4251L991.89 45.0402H997.77V71.5119H985.944C984.915 67.8883 984.36 64.0694 984.36 60.1204C984.36 58.6124 984.442 57.126 984.598 55.6614L984.556 55.7156ZM1016.45 53.1444V45.3331H1030.45C1031.17 45.3331 1035.56 46.1696 1035.56 49.4449C1035.56 52.168 1032.19 53.1444 1029.43 53.1444H1016.41H1016.45ZM1067.33 60.1746C1067.33 61.2118 1067.3 62.2359 1067.22 63.2557H1062.96C1062.53 63.2557 1062.36 63.5357 1062.36 63.9533V65.9062C1062.36 70.5062 1059.77 71.5151 1057.49 71.7647C1055.32 72.0088 1052.92 70.8577 1052.63 69.5298C1051.35 62.3368 1049.22 60.8071 1045.86 58.1382C1050.03 55.4911 1054.37 51.5746 1054.37 46.3128C1054.37 40.6604 1050.5 37.1019 1047.86 35.3552C1044.15 32.9142 1040.05 32.426 1038.95 32.426H994.899C1000.88 25.7647 1009 21.0345 1018.12 19.2986L1023.31 24.7448C1024.48 25.9708 1026.43 26.025 1027.66 24.8447L1033.48 19.2899C1045.63 21.5574 1055.94 29.13 1061.9 39.5777L1057.92 48.5607C1057.23 50.1121 1057.94 51.9348 1059.48 52.6182L1067.14 56.0248C1067.28 57.381 1067.34 58.7588 1067.34 60.1475L1067.33 60.1746ZM1023.29 14.7171C1024.63 13.426 1026.77 13.4803 1028.05 14.8266C1029.33 16.1719 1029.29 18.3092 1027.94 19.6002C1026.59 20.8913 1024.46 20.837 1023.17 19.4896C1021.89 18.1443 1021.94 16.007 1023.29 14.716V14.7171ZM1062.78 46.5048C1063.53 44.8015 1065.52 44.0312 1067.23 44.7906C1068.93 45.5457 1069.7 47.5463 1068.94 49.2496C1068.19 50.9529 1066.19 51.7232 1064.49 50.9638C1062.79 50.2087 1062.02 48.2081 1062.78 46.5048Z" fill="black"/>
<g clip-path="url(#clip1)">
<path d="M1122.34 92.2563L1121.4 91.2821C1121.39 91.2373 1121.38 91.1926 1121.37 91.1484C1120.94 89.8363 1119.17 89.0747 1116.56 88.8595L1116.83 89.6646C1116.57 89.6492 1116.31 89.6392 1116.04 89.6353L1115.92 89.26C1112.25 89.1532 1107.12 90.0048 1101.66 91.7946C1096.9 93.3584 1092.75 95.3522 1089.85 97.3379L1090.28 98.6454L1090.28 98.6454L1089.76 97.0629C1086.82 99.1843 1085.26 101.303 1085.79 102.906C1085.87 103.159 1086 103.391 1086.18 103.603L1086.04 104.308C1086.04 104.308 1085.89 104.744 1086.6 105.323C1087.23 105.833 1090.15 107.681 1091.68 108.646C1092.38 109.171 1092.84 109.485 1092.85 109.435C1092.87 109.356 1092.12 108.191 1090.7 107.042C1090 106.404 1089.14 105.539 1088.58 104.877C1089.64 105.144 1095.64 106.048 1106.14 102.59C1116.88 99.0565 1120.55 94.1291 1120.92 93.4996C1120.98 94.2951 1120.84 95.9882 1120.69 97.1983C1120.36 98.9637 1120.49 100.364 1120.55 100.416C1120.59 100.449 1120.72 99.9255 1120.91 99.0911C1121.42 97.4088 1122.38 94.2017 1122.52 93.4175C1122.69 92.5286 1122.34 92.2563 1122.34 92.2563Z" fill="#A52B00"/>
<path d="M1125.58 91.1828L1121.02 89.6824C1120.94 89.5733 1120.87 89.4643 1120.8 89.3565L1121.43 87.2132C1121.49 86.995 1121.44 86.7558 1121.3 86.5793C1121.15 86.4039 1120.93 86.3168 1120.71 86.3493L1118.56 86.6723C1118.42 86.537 1118.29 86.4053 1118.15 86.2751L1118.37 84.0318C1118.39 83.8031 1118.29 83.5769 1118.12 83.4338C1117.94 83.2898 1117.71 83.2482 1117.5 83.3256L1115.46 84.08C1115.3 83.9756 1115.15 83.873 1114.99 83.7737L1114.78 81.5146C1114.76 81.2853 1114.62 81.0817 1114.42 80.9754C1114.22 80.8693 1113.99 80.8758 1113.8 80.993L1111.95 82.1503C1111.78 82.0777 1111.61 82.0074 1111.44 81.9398L1110.8 79.757C1110.74 79.5359 1110.57 79.3617 1110.35 79.2977C1110.14 79.2331 1109.91 79.2875 1109.75 79.4409L1108.16 80.9524C1107.98 80.9152 1107.8 80.8791 1107.62 80.8463L1106.59 78.8279C1106.48 78.6235 1106.29 78.4858 1106.06 78.4659C1105.84 78.4454 1105.63 78.5454 1105.5 78.7291L1104.24 80.5377C1104.05 80.5371 1103.87 80.5389 1103.69 80.5437L1102.3 78.7634C1102.16 78.5818 1101.94 78.4864 1101.72 78.5117C1101.5 78.5373 1101.31 78.6781 1101.22 78.8846L1100.33 80.9271C1100.15 80.9634 1099.98 81.0016 1099.8 81.0429L1098.11 79.564C1097.94 79.4142 1097.7 79.365 1097.49 79.434C1097.28 79.5027 1097.12 79.6801 1097.08 79.902L1096.59 82.0963C1096.42 82.1673 1096.26 82.2415 1096.09 82.317L1094.16 81.2009C1093.97 81.0882 1093.73 81.0866 1093.54 81.1961C1093.35 81.3069 1093.23 81.5131 1093.22 81.7427L1093.16 83.9975C1093.01 84.1028 1092.86 84.2102 1092.71 84.3189L1090.62 83.6106C1090.41 83.5382 1090.18 83.5838 1090.01 83.7319C1089.85 83.879 1089.77 84.1078 1089.81 84.3343L1090.17 86.5709C1090.04 86.7047 1089.92 86.8403 1089.8 86.9775L1087.62 86.7002C1087.4 86.6719 1087.18 86.7638 1087.05 86.9429C1086.92 87.1215 1086.88 87.3627 1086.96 87.5786L1087.74 89.7139C1087.64 89.8695 1087.55 90.0268 1087.46 90.1852L1085.28 90.351C1085.06 90.3684 1084.86 90.5025 1084.76 90.7057C1084.67 90.9097 1084.68 91.1531 1084.8 91.3509L1085.96 93.2981C1085.9 93.4705 1085.83 93.6441 1085.77 93.8187L1083.68 94.4227C1083.47 94.485 1083.3 94.6548 1083.24 94.8754C1083.19 95.0952 1083.25 95.3333 1083.4 95.5045L1084.9 97.1852C1084.87 97.3701 1084.84 97.556 1084.81 97.7435L1082.88 98.7588C1082.69 98.8618 1082.56 99.0636 1082.55 99.2924C1082.53 99.5213 1082.64 99.7438 1082.82 99.8815L1084.6 101.233C1084.6 101.267 1084.6 101.301 1084.6 101.335L1082.38 106.078C1082.38 106.078 1081.99 106.659 1083.07 107.372C1084.01 108.002 1088.57 110.238 1090.96 111.405C1092.03 112.049 1092.74 112.43 1092.78 112.364C1092.84 112.26 1091.85 110.78 1089.71 109.365C1087.98 108.032 1085.59 105.891 1085.85 105.471C1085.85 105.471 1086.09 104.825 1086.78 104.19C1086.81 104.204 1086.74 104.177 1086.78 104.19C1086.78 104.19 1106.47 106.469 1119.8 93.5043C1121.5 92.5843 1122.92 93.1954 1122.92 93.1954C1123.37 93.2906 1123.28 96.3248 1123.06 98.3849C1122.64 100.784 1123 102.427 1123.11 102.452C1123.18 102.468 1123.38 101.73 1123.63 100.578C1124.39 98.1614 1125.82 93.5624 1126.01 92.4973C1126.22 91.2899 1125.58 91.1828 1125.58 91.1828Z" fill="#F74C00"/>
<path d="M1117.78 92.6205C1117.78 92.6205 1120.2 91.6987 1122.36 87.3516L1122.48 86.184C1122.48 86.184 1115.83 82.8383 1122.5 76.833C1122.5 76.833 1122.18 78.1732 1123.8 82.4197C1123.8 82.4197 1125.88 80.831 1125.32 76.7957C1125.32 76.7957 1130.23 80.1935 1124.47 86.7842C1124.47 86.7842 1122.88 93.2686 1117.98 94.306L1117.78 92.6205Z" fill="#F74C00"/>
<path d="M1105.6 93.1806C1105.6 93.1806 1106.7 90.7476 1109.02 92.0588C1109.02 92.0588 1111.19 94.1142 1110.25 95.8029C1110.25 95.8029 1108.63 98.2713 1106.83 96.9247C1106.83 96.9247 1104.92 96.0326 1105.6 93.1806Z" fill="black"/>
<path d="M1107.82 93.2202C1108.06 93.949 1107.82 94.681 1107.29 94.8549C1106.76 95.0287 1106.14 94.5787 1105.9 93.8498C1105.66 93.1208 1105.9 92.3888 1106.43 92.215C1106.96 92.0411 1107.58 92.4911 1107.82 93.2202Z" fill="white"/>
<path d="M1097.81 95.1691C1097.81 95.1691 1100.31 92.9085 1102.06 95.5441C1102.06 95.5441 1104.01 98.6472 1100.83 99.9031C1100.83 99.9031 1096.42 100.464 1097.81 95.1691Z" fill="black"/>
<path d="M1099.69 95.9471C1099.94 96.6988 1099.7 97.4538 1099.15 97.6331C1098.6 97.8124 1097.96 97.3482 1097.71 96.5965C1097.47 95.8446 1097.71 95.0897 1098.26 94.9104C1098.8 94.7311 1099.45 95.1952 1099.69 95.9471Z" fill="white"/>
<path d="M1103.64 100.295L1107.28 98.7679C1107.28 98.7679 1107.35 99.4115 1107.01 100.023C1107.01 100.023 1106.19 101.856 1104.21 100.812C1104.21 100.812 1103.89 100.631 1103.64 100.295Z" fill="black"/>
<path d="M1087.54 101.741C1087.51 101.751 1087.48 101.763 1087.45 101.775C1086.14 101.897 1082.44 102.128 1081.06 100.98C1081.06 100.98 1083.94 94.2489 1075.67 93.2645L1078.4 98.7707C1078.4 98.7707 1075.7 98.0179 1074.17 94.9623C1074.17 94.9623 1070.06 100.641 1079.06 101.841C1079.06 101.841 1080.63 104.257 1088.09 104.15L1088.09 104.129C1088.16 104.119 1088.23 104.103 1088.3 104.08C1088.94 103.87 1089.29 103.177 1089.08 102.53C1088.87 101.884 1088.18 101.531 1087.54 101.741Z" fill="#F74C00"/>
</g>
<path d="M750.016 104L735.976 83.72H735.144H720.48V104H703.632V31.2H735.144C741.592 31.2 747.173 32.2747 751.888 34.424C756.672 36.5733 760.347 39.624 762.912 43.576C765.477 47.528 766.76 52.208 766.76 57.616C766.76 63.024 765.443 67.704 762.808 71.656C760.243 75.5387 756.568 78.52 751.784 80.6L768.112 104H750.016ZM749.704 57.616C749.704 53.5253 748.387 50.4053 745.752 48.256C743.117 46.0373 739.269 44.928 734.208 44.928H720.48V70.304H734.208C739.269 70.304 743.117 69.1947 745.752 66.976C748.387 64.7573 749.704 61.6373 749.704 57.616ZM831.173 48.048V104H815.781V97.344C813.631 99.7707 811.066 101.643 808.085 102.96C805.103 104.208 801.879 104.832 798.413 104.832C791.063 104.832 785.239 102.717 780.941 98.488C776.642 94.2587 774.493 87.984 774.493 79.664V48.048H790.717V77.272C790.717 86.2853 794.495 90.792 802.053 90.792C805.935 90.792 809.055 89.544 811.413 87.048C813.77 84.4827 814.949 80.704 814.949 75.712V48.048H831.173ZM860.867 104.832C856.222 104.832 851.68 104.277 847.243 103.168C842.806 101.989 839.27 100.533 836.635 98.8L842.043 87.152C844.539 88.7467 847.555 90.064 851.091 91.104C854.627 92.0747 858.094 92.56 861.491 92.56C868.355 92.56 871.787 90.8613 871.787 87.464C871.787 85.8693 870.851 84.7253 868.979 84.032C867.107 83.3387 864.23 82.7493 860.347 82.264C855.771 81.5707 851.992 80.7733 849.011 79.872C846.03 78.9707 843.43 77.376 841.211 75.088C839.062 72.8 837.987 69.5413 837.987 65.312C837.987 61.776 838.992 58.656 841.003 55.952C843.083 53.1787 846.064 51.0293 849.947 49.504C853.899 47.9787 858.544 47.216 863.883 47.216C867.835 47.216 871.752 47.6667 875.635 48.568C879.587 49.4 882.846 50.5787 885.411 52.104L880.003 63.648C875.08 60.8747 869.707 59.488 863.883 59.488C860.416 59.488 857.816 59.9733 856.083 60.944C854.35 61.9147 853.483 63.1627 853.483 64.688C853.483 66.4213 854.419 67.6347 856.291 68.328C858.163 69.0213 861.144 69.68 865.235 70.304C869.811 71.0667 873.555 71.8987 876.467 72.8C879.379 73.632 881.91 75.192 884.059 77.48C886.208 79.768 887.283 82.9573 887.283 87.048C887.283 90.5147 886.243 93.6 884.163 96.304C882.083 99.008 879.032 101.123 875.011 102.648C871.059 104.104 866.344 104.832 860.867 104.832ZM929.221 101.296C927.626 102.475 925.65 103.376 923.293 104C921.005 104.555 918.578 104.832 916.013 104.832C909.357 104.832 904.192 103.133 900.517 99.736C896.912 96.3387 895.109 91.3467 895.109 84.76V61.776H886.477V49.296H895.109V35.672H911.333V49.296H925.269V61.776H911.333V84.552C911.333 86.9093 911.922 88.7467 913.101 90.064C914.349 91.312 916.082 91.936 918.301 91.936C920.866 91.936 923.05 91.2427 924.853 89.856L929.221 101.296Z" fill="black"/>
</g>
<defs>
<linearGradient id="paint0_linear" x1="156.17" y1="48.092" x2="143.442" y2="35.3641" gradientUnits="userSpaceOnUse">
<stop stop-color="#033049"/>
<stop offset="1" stop-color="#00C2FF"/>
</linearGradient>
<clipPath id="clip0">
<rect width="1131" height="118" fill="white"/>
</clipPath>
<clipPath id="clip1">
<rect width="58.4591" height="58.4591" fill="white" transform="translate(1065 75.2236) rotate(-18.1638)"/>
</clipPath>
</defs>
</svg>
