<svg width="752" height="132" viewBox="0 0 752 132" fill="none" xmlns="http://www.w3.org/2000/svg">
<circle cx="159" cy="77" r="33" fill="white"/>
<mask id="path-2-outside-1_713_81" maskUnits="userSpaceOnUse" x="2.06445" y="28.9521" width="710" height="84" fill="black">
<rect fill="white" x="2.06445" y="28.9521" width="710" height="84"/>
<path d="M9.06445 107L41.5125 34.2001H58.1525L90.7045 107H73.0245L46.4005 42.7281H53.0565L26.3285 107H9.06445ZM25.2885 91.4002L29.7605 78.6081H67.2005L71.7765 91.4002H25.2885Z"/>
<path d="M115.326 107.832C108.739 107.832 103.608 106.168 99.9336 102.84C96.259 99.4428 94.4216 94.4161 94.4216 87.7601V38.6721H110.646V87.5521C110.646 89.9095 111.27 91.7468 112.518 93.0641C113.766 94.3121 115.464 94.9361 117.614 94.9361C120.179 94.9361 122.363 94.2428 124.166 92.8561L128.534 104.296C126.87 105.475 124.859 106.376 122.502 107C120.214 107.555 117.822 107.832 115.326 107.832ZM85.7896 64.7761V52.2961H124.582V64.7761H85.7896Z"/>
<path d="M158.378 107.832C152.416 107.832 147.112 106.584 142.466 104.088C137.89 101.592 134.25 98.1948 131.546 93.8961C128.912 89.5281 127.594 84.5708 127.594 79.0241C127.594 73.4081 128.912 68.4508 131.546 64.1521C134.25 59.7841 137.89 56.3868 142.466 53.9601C147.112 51.4641 152.416 50.2162 158.378 50.2162C164.272 50.2162 169.541 51.4641 174.186 53.9601C178.832 56.3868 182.472 59.7495 185.106 64.0481C187.741 68.3468 189.058 73.3388 189.058 79.0241C189.058 84.5708 187.741 89.5281 185.106 93.8961C182.472 98.1948 178.832 101.592 174.186 104.088C169.541 106.584 164.272 107.832 158.378 107.832ZM158.378 94.5201C161.082 94.5201 163.509 93.8961 165.658 92.6481C167.808 91.4001 169.506 89.6321 170.754 87.3441C172.002 84.9868 172.626 82.2135 172.626 79.0241C172.626 75.7655 172.002 72.9921 170.754 70.7041C169.506 68.4161 167.808 66.6481 165.658 65.4001C163.509 64.1521 161.082 63.5281 158.378 63.5281C155.674 63.5281 153.248 64.1521 151.098 65.4001C148.949 66.6481 147.216 68.4161 145.898 70.7041C144.65 72.9921 144.026 75.7655 144.026 79.0241C144.026 82.2135 144.65 84.9868 145.898 87.3441C147.216 89.6321 148.949 91.4001 151.098 92.6481C153.248 93.8961 155.674 94.5201 158.378 94.5201Z"/>
<path d="M267.399 50.2162C271.836 50.2162 275.754 51.1175 279.151 52.9201C282.618 54.6535 285.322 57.3575 287.263 61.0321C289.274 64.6375 290.279 69.2828 290.279 74.9681V107H274.055V77.4641C274.055 72.9575 273.119 69.6295 271.247 67.4801C269.375 65.3308 266.74 64.2561 263.343 64.2561C260.985 64.2561 258.871 64.8108 256.999 65.9202C255.127 66.9601 253.671 68.5548 252.631 70.7041C251.591 72.8535 251.071 75.5922 251.071 78.9202V107H234.847V77.4641C234.847 72.9575 233.911 69.6295 232.039 67.4801C230.236 65.3308 227.636 64.2561 224.239 64.2561C221.881 64.2561 219.767 64.8108 217.895 65.9202C216.023 66.9601 214.567 68.5548 213.527 70.7041C212.487 72.8535 211.967 75.5922 211.967 78.9202V107H195.743V51.0481H211.239V66.3361L208.327 61.8641C210.268 58.0508 213.007 55.1735 216.543 53.2321C220.148 51.2215 224.239 50.2162 228.815 50.2162C233.946 50.2162 238.417 51.5335 242.231 54.1681C246.114 56.7335 248.679 60.6855 249.927 66.0241L244.207 64.4641C246.079 60.0961 249.06 56.6295 253.151 54.0641C257.311 51.4988 262.06 50.2162 267.399 50.2162Z"/>
<path d="M300.661 107V51.0481H316.885V107H300.661Z"/>
<path d="M354.822 107.832C348.79 107.832 343.417 106.619 338.702 104.192C333.988 101.696 330.278 98.2641 327.574 93.8961C324.94 89.5281 323.622 84.5708 323.622 79.0241C323.622 73.4081 324.94 68.4508 327.574 64.1521C330.278 59.7841 333.988 56.3868 338.702 53.9601C343.417 51.4641 348.79 50.2162 354.822 50.2162C360.716 50.2162 365.846 51.4641 370.214 53.9601C374.582 56.3868 377.806 59.8881 379.886 64.4641L367.302 71.2242C365.846 68.5895 364.009 66.6481 361.79 65.4001C359.641 64.1521 357.284 63.5281 354.718 63.5281C351.945 63.5281 349.449 64.1521 347.23 65.4001C345.012 66.6481 343.244 68.4161 341.926 70.7041C340.678 72.9921 340.054 75.7655 340.054 79.0241C340.054 82.2828 340.678 85.0561 341.926 87.3441C343.244 89.6321 345.012 91.4001 347.23 92.6481C349.449 93.8961 351.945 94.5201 354.718 94.5201C357.284 94.5201 359.641 93.9308 361.79 92.7522C364.009 91.5042 365.846 89.5282 367.302 86.8242L379.886 93.6881C377.806 98.1948 374.582 101.696 370.214 104.192C365.846 106.619 360.716 107.832 354.822 107.832Z"/>
<path d="M414.316 108.248C408.492 108.248 402.91 107.485 397.572 105.96C392.233 104.365 387.934 102.32 384.676 99.8242L390.396 87.1361C393.516 89.3548 397.19 91.1921 401.42 92.6481C405.718 94.0348 410.052 94.7281 414.42 94.7281C417.748 94.7281 420.417 94.4162 422.428 93.7922C424.508 93.0988 426.033 92.1628 427.004 90.9842C427.974 89.8055 428.46 88.4535 428.46 86.9281C428.46 84.9868 427.697 83.4615 426.172 82.3521C424.646 81.1735 422.636 80.2375 420.14 79.5442C417.644 78.7815 414.87 78.0881 411.82 77.4641C408.838 76.7708 405.822 75.9388 402.772 74.9681C399.79 73.9975 397.052 72.7495 394.556 71.2242C392.06 69.6988 390.014 67.6881 388.42 65.1921C386.894 62.6961 386.132 59.5068 386.132 55.6241C386.132 51.4641 387.241 47.6855 389.46 44.2881C391.748 40.8215 395.145 38.0828 399.652 36.0721C404.228 33.9921 409.948 32.9521 416.812 32.9521C421.388 32.9521 425.894 33.5068 430.332 34.6161C434.769 35.6561 438.686 37.2508 442.084 39.4001L436.884 52.1921C433.486 50.2508 430.089 48.8295 426.692 47.9281C423.294 46.9575 419.966 46.4721 416.708 46.4721C413.449 46.4721 410.78 46.8535 408.7 47.6161C406.62 48.3788 405.129 49.3841 404.228 50.6321C403.326 51.8108 402.876 53.1975 402.876 54.7921C402.876 56.6641 403.638 58.1895 405.164 59.3681C406.689 60.4775 408.7 61.3788 411.196 62.0721C413.692 62.7655 416.43 63.4588 419.412 64.1521C422.462 64.8455 425.478 65.6428 428.46 66.5441C431.51 67.4455 434.284 68.6588 436.78 70.1842C439.276 71.7095 441.286 73.7201 442.812 76.2161C444.406 78.7121 445.204 81.8668 445.204 85.6801C445.204 89.7708 444.06 93.5148 441.772 96.9122C439.484 100.309 436.052 103.048 431.476 105.128C426.969 107.208 421.249 108.248 414.316 108.248Z"/>
<path d="M479.18 107.832C472.801 107.832 467.185 106.584 462.332 104.088C457.548 101.592 453.839 98.1948 451.204 93.8961C448.569 89.5281 447.252 84.5708 447.252 79.0241C447.252 73.4081 448.535 68.4508 451.1 64.1521C453.735 59.7841 457.305 56.3868 461.812 53.9601C466.319 51.4641 471.415 50.2162 477.1 50.2162C482.577 50.2162 487.5 51.3948 491.868 53.7521C496.305 56.0401 499.807 59.3681 502.372 63.7362C504.937 68.0348 506.22 73.2001 506.22 79.2321C506.22 79.8561 506.185 80.5841 506.116 81.4161C506.047 82.1788 505.977 82.9068 505.908 83.6002H460.46V74.1361H497.38L491.14 76.9442C491.14 74.0322 490.551 71.5015 489.372 69.3521C488.193 67.2028 486.564 65.5388 484.484 64.3601C482.404 63.1121 479.977 62.4881 477.204 62.4881C474.431 62.4881 471.969 63.1121 469.82 64.3601C467.74 65.5388 466.111 67.2375 464.932 69.4561C463.753 71.6055 463.164 74.1708 463.164 77.1522V79.6481C463.164 82.6988 463.823 85.4028 465.14 87.7601C466.527 90.0481 468.433 91.8161 470.86 93.0641C473.356 94.2428 476.268 94.8322 479.596 94.8322C482.577 94.8322 485.177 94.3815 487.396 93.4801C489.684 92.5788 491.764 91.2268 493.636 89.4241L502.268 98.7841C499.703 101.696 496.479 103.949 492.596 105.544C488.713 107.069 484.241 107.832 479.18 107.832Z"/>
<path d="M512.861 107V51.0481H528.357V66.8561L526.173 62.2801C527.837 58.3281 530.507 55.3468 534.181 53.3361C537.856 51.2561 542.328 50.2162 547.597 50.2162V65.1921C546.904 65.1228 546.28 65.0882 545.725 65.0882C545.171 65.0188 544.581 64.9841 543.957 64.9841C539.52 64.9841 535.915 66.2668 533.141 68.8321C530.437 71.3281 529.085 75.2455 529.085 80.5842V107H512.861Z"/>
<path d="M570.198 107L546.694 51.0481H563.438L582.99 99.2001H574.67L594.95 51.0481H610.55L586.942 107H570.198Z"/>
<path d="M639.255 107.832C632.876 107.832 627.26 106.584 622.407 104.088C617.623 101.592 613.913 98.1948 611.279 93.8961C608.644 89.5281 607.327 84.5708 607.327 79.0241C607.327 73.4081 608.609 68.4508 611.175 64.1521C613.809 59.7841 617.38 56.3868 621.887 53.9601C626.393 51.4641 631.489 50.2162 637.175 50.2162C642.652 50.2162 647.575 51.3948 651.943 53.7521C656.38 56.0401 659.881 59.3681 662.447 63.7362C665.012 68.0348 666.295 73.2001 666.295 79.2321C666.295 79.8561 666.26 80.5841 666.191 81.4161C666.121 82.1788 666.052 82.9068 665.983 83.6002H620.535V74.1361H657.455L651.215 76.9442C651.215 74.0322 650.625 71.5015 649.447 69.3521C648.268 67.2028 646.639 65.5388 644.559 64.3601C642.479 63.1121 640.052 62.4881 637.279 62.4881C634.505 62.4881 632.044 63.1121 629.895 64.3601C627.815 65.5388 626.185 67.2375 625.007 69.4561C623.828 71.6055 623.239 74.1708 623.239 77.1522V79.6481C623.239 82.6988 623.897 85.4028 625.215 87.7601C626.601 90.0481 628.508 91.8161 630.935 93.0641C633.431 94.2428 636.343 94.8322 639.671 94.8322C642.652 94.8322 645.252 94.3815 647.471 93.4801C649.759 92.5788 651.839 91.2268 653.711 89.4241L662.343 98.7841C659.777 101.696 656.553 103.949 652.671 105.544C648.788 107.069 644.316 107.832 639.255 107.832Z"/>
<path d="M672.936 107V51.0481H688.432V66.8561L686.248 62.2801C687.912 58.3281 690.581 55.3468 694.256 53.3361C697.931 51.2561 702.403 50.2162 707.672 50.2162V65.1921C706.979 65.1228 706.355 65.0882 705.8 65.0882C705.245 65.0188 704.656 64.9841 704.032 64.9841C699.595 64.9841 695.989 66.2668 693.216 68.8321C690.512 71.3281 689.16 75.2455 689.16 80.5842V107H672.936Z"/>
</mask>
<path d="M9.06445 107L41.5125 34.2001H58.1525L90.7045 107H73.0245L46.4005 42.7281H53.0565L26.3285 107H9.06445ZM25.2885 91.4002L29.7605 78.6081H67.2005L71.7765 91.4002H25.2885Z" fill="black"/>
<path d="M115.326 107.832C108.739 107.832 103.608 106.168 99.9336 102.84C96.259 99.4428 94.4216 94.4161 94.4216 87.7601V38.6721H110.646V87.5521C110.646 89.9095 111.27 91.7468 112.518 93.0641C113.766 94.3121 115.464 94.9361 117.614 94.9361C120.179 94.9361 122.363 94.2428 124.166 92.8561L128.534 104.296C126.87 105.475 124.859 106.376 122.502 107C120.214 107.555 117.822 107.832 115.326 107.832ZM85.7896 64.7761V52.2961H124.582V64.7761H85.7896Z" fill="black"/>
<path d="M158.378 107.832C152.416 107.832 147.112 106.584 142.466 104.088C137.89 101.592 134.25 98.1948 131.546 93.8961C128.912 89.5281 127.594 84.5708 127.594 79.0241C127.594 73.4081 128.912 68.4508 131.546 64.1521C134.25 59.7841 137.89 56.3868 142.466 53.9601C147.112 51.4641 152.416 50.2162 158.378 50.2162C164.272 50.2162 169.541 51.4641 174.186 53.9601C178.832 56.3868 182.472 59.7495 185.106 64.0481C187.741 68.3468 189.058 73.3388 189.058 79.0241C189.058 84.5708 187.741 89.5281 185.106 93.8961C182.472 98.1948 178.832 101.592 174.186 104.088C169.541 106.584 164.272 107.832 158.378 107.832ZM158.378 94.5201C161.082 94.5201 163.509 93.8961 165.658 92.6481C167.808 91.4001 169.506 89.6321 170.754 87.3441C172.002 84.9868 172.626 82.2135 172.626 79.0241C172.626 75.7655 172.002 72.9921 170.754 70.7041C169.506 68.4161 167.808 66.6481 165.658 65.4001C163.509 64.1521 161.082 63.5281 158.378 63.5281C155.674 63.5281 153.248 64.1521 151.098 65.4001C148.949 66.6481 147.216 68.4161 145.898 70.7041C144.65 72.9921 144.026 75.7655 144.026 79.0241C144.026 82.2135 144.65 84.9868 145.898 87.3441C147.216 89.6321 148.949 91.4001 151.098 92.6481C153.248 93.8961 155.674 94.5201 158.378 94.5201Z" fill="black"/>
<path d="M267.399 50.2162C271.836 50.2162 275.754 51.1175 279.151 52.9201C282.618 54.6535 285.322 57.3575 287.263 61.0321C289.274 64.6375 290.279 69.2828 290.279 74.9681V107H274.055V77.4641C274.055 72.9575 273.119 69.6295 271.247 67.4801C269.375 65.3308 266.74 64.2561 263.343 64.2561C260.985 64.2561 258.871 64.8108 256.999 65.9202C255.127 66.9601 253.671 68.5548 252.631 70.7041C251.591 72.8535 251.071 75.5922 251.071 78.9202V107H234.847V77.4641C234.847 72.9575 233.911 69.6295 232.039 67.4801C230.236 65.3308 227.636 64.2561 224.239 64.2561C221.881 64.2561 219.767 64.8108 217.895 65.9202C216.023 66.9601 214.567 68.5548 213.527 70.7041C212.487 72.8535 211.967 75.5922 211.967 78.9202V107H195.743V51.0481H211.239V66.3361L208.327 61.8641C210.268 58.0508 213.007 55.1735 216.543 53.2321C220.148 51.2215 224.239 50.2162 228.815 50.2162C233.946 50.2162 238.417 51.5335 242.231 54.1681C246.114 56.7335 248.679 60.6855 249.927 66.0241L244.207 64.4641C246.079 60.0961 249.06 56.6295 253.151 54.0641C257.311 51.4988 262.06 50.2162 267.399 50.2162Z" fill="black"/>
<path d="M300.661 107V51.0481H316.885V107H300.661Z" fill="black"/>
<path d="M354.822 107.832C348.79 107.832 343.417 106.619 338.702 104.192C333.988 101.696 330.278 98.2641 327.574 93.8961C324.94 89.5281 323.622 84.5708 323.622 79.0241C323.622 73.4081 324.94 68.4508 327.574 64.1521C330.278 59.7841 333.988 56.3868 338.702 53.9601C343.417 51.4641 348.79 50.2162 354.822 50.2162C360.716 50.2162 365.846 51.4641 370.214 53.9601C374.582 56.3868 377.806 59.8881 379.886 64.4641L367.302 71.2242C365.846 68.5895 364.009 66.6481 361.79 65.4001C359.641 64.1521 357.284 63.5281 354.718 63.5281C351.945 63.5281 349.449 64.1521 347.23 65.4001C345.012 66.6481 343.244 68.4161 341.926 70.7041C340.678 72.9921 340.054 75.7655 340.054 79.0241C340.054 82.2828 340.678 85.0561 341.926 87.3441C343.244 89.6321 345.012 91.4001 347.23 92.6481C349.449 93.8961 351.945 94.5201 354.718 94.5201C357.284 94.5201 359.641 93.9308 361.79 92.7522C364.009 91.5042 365.846 89.5282 367.302 86.8242L379.886 93.6881C377.806 98.1948 374.582 101.696 370.214 104.192C365.846 106.619 360.716 107.832 354.822 107.832Z" fill="black"/>
<path d="M414.316 108.248C408.492 108.248 402.91 107.485 397.572 105.96C392.233 104.365 387.934 102.32 384.676 99.8242L390.396 87.1361C393.516 89.3548 397.19 91.1921 401.42 92.6481C405.718 94.0348 410.052 94.7281 414.42 94.7281C417.748 94.7281 420.417 94.4162 422.428 93.7922C424.508 93.0988 426.033 92.1628 427.004 90.9842C427.974 89.8055 428.46 88.4535 428.46 86.9281C428.46 84.9868 427.697 83.4615 426.172 82.3521C424.646 81.1735 422.636 80.2375 420.14 79.5442C417.644 78.7815 414.87 78.0881 411.82 77.4641C408.838 76.7708 405.822 75.9388 402.772 74.9681C399.79 73.9975 397.052 72.7495 394.556 71.2242C392.06 69.6988 390.014 67.6881 388.42 65.1921C386.894 62.6961 386.132 59.5068 386.132 55.6241C386.132 51.4641 387.241 47.6855 389.46 44.2881C391.748 40.8215 395.145 38.0828 399.652 36.0721C404.228 33.9921 409.948 32.9521 416.812 32.9521C421.388 32.9521 425.894 33.5068 430.332 34.6161C434.769 35.6561 438.686 37.2508 442.084 39.4001L436.884 52.1921C433.486 50.2508 430.089 48.8295 426.692 47.9281C423.294 46.9575 419.966 46.4721 416.708 46.4721C413.449 46.4721 410.78 46.8535 408.7 47.6161C406.62 48.3788 405.129 49.3841 404.228 50.6321C403.326 51.8108 402.876 53.1975 402.876 54.7921C402.876 56.6641 403.638 58.1895 405.164 59.3681C406.689 60.4775 408.7 61.3788 411.196 62.0721C413.692 62.7655 416.43 63.4588 419.412 64.1521C422.462 64.8455 425.478 65.6428 428.46 66.5441C431.51 67.4455 434.284 68.6588 436.78 70.1842C439.276 71.7095 441.286 73.7201 442.812 76.2161C444.406 78.7121 445.204 81.8668 445.204 85.6801C445.204 89.7708 444.06 93.5148 441.772 96.9122C439.484 100.309 436.052 103.048 431.476 105.128C426.969 107.208 421.249 108.248 414.316 108.248Z" fill="black"/>
<path d="M479.18 107.832C472.801 107.832 467.185 106.584 462.332 104.088C457.548 101.592 453.839 98.1948 451.204 93.8961C448.569 89.5281 447.252 84.5708 447.252 79.0241C447.252 73.4081 448.535 68.4508 451.1 64.1521C453.735 59.7841 457.305 56.3868 461.812 53.9601C466.319 51.4641 471.415 50.2162 477.1 50.2162C482.577 50.2162 487.5 51.3948 491.868 53.7521C496.305 56.0401 499.807 59.3681 502.372 63.7362C504.937 68.0348 506.22 73.2001 506.22 79.2321C506.22 79.8561 506.185 80.5841 506.116 81.4161C506.047 82.1788 505.977 82.9068 505.908 83.6002H460.46V74.1361H497.38L491.14 76.9442C491.14 74.0322 490.551 71.5015 489.372 69.3521C488.193 67.2028 486.564 65.5388 484.484 64.3601C482.404 63.1121 479.977 62.4881 477.204 62.4881C474.431 62.4881 471.969 63.1121 469.82 64.3601C467.74 65.5388 466.111 67.2375 464.932 69.4561C463.753 71.6055 463.164 74.1708 463.164 77.1522V79.6481C463.164 82.6988 463.823 85.4028 465.14 87.7601C466.527 90.0481 468.433 91.8161 470.86 93.0641C473.356 94.2428 476.268 94.8322 479.596 94.8322C482.577 94.8322 485.177 94.3815 487.396 93.4801C489.684 92.5788 491.764 91.2268 493.636 89.4241L502.268 98.7841C499.703 101.696 496.479 103.949 492.596 105.544C488.713 107.069 484.241 107.832 479.18 107.832Z" fill="black"/>
<path d="M512.861 107V51.0481H528.357V66.8561L526.173 62.2801C527.837 58.3281 530.507 55.3468 534.181 53.3361C537.856 51.2561 542.328 50.2162 547.597 50.2162V65.1921C546.904 65.1228 546.28 65.0882 545.725 65.0882C545.171 65.0188 544.581 64.9841 543.957 64.9841C539.52 64.9841 535.915 66.2668 533.141 68.8321C530.437 71.3281 529.085 75.2455 529.085 80.5842V107H512.861Z" fill="black"/>
<path d="M570.198 107L546.694 51.0481H563.438L582.99 99.2001H574.67L594.95 51.0481H610.55L586.942 107H570.198Z" fill="black"/>
<path d="M639.255 107.832C632.876 107.832 627.26 106.584 622.407 104.088C617.623 101.592 613.913 98.1948 611.279 93.8961C608.644 89.5281 607.327 84.5708 607.327 79.0241C607.327 73.4081 608.609 68.4508 611.175 64.1521C613.809 59.7841 617.38 56.3868 621.887 53.9601C626.393 51.4641 631.489 50.2162 637.175 50.2162C642.652 50.2162 647.575 51.3948 651.943 53.7521C656.38 56.0401 659.881 59.3681 662.447 63.7362C665.012 68.0348 666.295 73.2001 666.295 79.2321C666.295 79.8561 666.26 80.5841 666.191 81.4161C666.121 82.1788 666.052 82.9068 665.983 83.6002H620.535V74.1361H657.455L651.215 76.9442C651.215 74.0322 650.625 71.5015 649.447 69.3521C648.268 67.2028 646.639 65.5388 644.559 64.3601C642.479 63.1121 640.052 62.4881 637.279 62.4881C634.505 62.4881 632.044 63.1121 629.895 64.3601C627.815 65.5388 626.185 67.2375 625.007 69.4561C623.828 71.6055 623.239 74.1708 623.239 77.1522V79.6481C623.239 82.6988 623.897 85.4028 625.215 87.7601C626.601 90.0481 628.508 91.8161 630.935 93.0641C633.431 94.2428 636.343 94.8322 639.671 94.8322C642.652 94.8322 645.252 94.3815 647.471 93.4801C649.759 92.5788 651.839 91.2268 653.711 89.4241L662.343 98.7841C659.777 101.696 656.553 103.949 652.671 105.544C648.788 107.069 644.316 107.832 639.255 107.832Z" fill="black"/>
<path d="M672.936 107V51.0481H688.432V66.8561L686.248 62.2801C687.912 58.3281 690.581 55.3468 694.256 53.3361C697.931 51.2561 702.403 50.2162 707.672 50.2162V65.1921C706.979 65.1228 706.355 65.0882 705.8 65.0882C705.245 65.0188 704.656 64.9841 704.032 64.9841C699.595 64.9841 695.989 66.2668 693.216 68.8321C690.512 71.3281 689.16 75.2455 689.16 80.5842V107H672.936Z" fill="black"/>
<path d="M9.06445 107L41.5125 34.2001H58.1525L90.7045 107H73.0245L46.4005 42.7281H53.0565L26.3285 107H9.06445ZM25.2885 91.4002L29.7605 78.6081H67.2005L71.7765 91.4002H25.2885Z" stroke="white" stroke-width="8" mask="url(#path-2-outside-1_713_81)"/>
<path d="M115.326 107.832C108.739 107.832 103.608 106.168 99.9336 102.84C96.259 99.4428 94.4216 94.4161 94.4216 87.7601V38.6721H110.646V87.5521C110.646 89.9095 111.27 91.7468 112.518 93.0641C113.766 94.3121 115.464 94.9361 117.614 94.9361C120.179 94.9361 122.363 94.2428 124.166 92.8561L128.534 104.296C126.87 105.475 124.859 106.376 122.502 107C120.214 107.555 117.822 107.832 115.326 107.832ZM85.7896 64.7761V52.2961H124.582V64.7761H85.7896Z" stroke="white" stroke-width="8" mask="url(#path-2-outside-1_713_81)"/>
<path d="M158.378 107.832C152.416 107.832 147.112 106.584 142.466 104.088C137.89 101.592 134.25 98.1948 131.546 93.8961C128.912 89.5281 127.594 84.5708 127.594 79.0241C127.594 73.4081 128.912 68.4508 131.546 64.1521C134.25 59.7841 137.89 56.3868 142.466 53.9601C147.112 51.4641 152.416 50.2162 158.378 50.2162C164.272 50.2162 169.541 51.4641 174.186 53.9601C178.832 56.3868 182.472 59.7495 185.106 64.0481C187.741 68.3468 189.058 73.3388 189.058 79.0241C189.058 84.5708 187.741 89.5281 185.106 93.8961C182.472 98.1948 178.832 101.592 174.186 104.088C169.541 106.584 164.272 107.832 158.378 107.832ZM158.378 94.5201C161.082 94.5201 163.509 93.8961 165.658 92.6481C167.808 91.4001 169.506 89.6321 170.754 87.3441C172.002 84.9868 172.626 82.2135 172.626 79.0241C172.626 75.7655 172.002 72.9921 170.754 70.7041C169.506 68.4161 167.808 66.6481 165.658 65.4001C163.509 64.1521 161.082 63.5281 158.378 63.5281C155.674 63.5281 153.248 64.1521 151.098 65.4001C148.949 66.6481 147.216 68.4161 145.898 70.7041C144.65 72.9921 144.026 75.7655 144.026 79.0241C144.026 82.2135 144.65 84.9868 145.898 87.3441C147.216 89.6321 148.949 91.4001 151.098 92.6481C153.248 93.8961 155.674 94.5201 158.378 94.5201Z" stroke="white" stroke-width="8" mask="url(#path-2-outside-1_713_81)"/>
<path d="M267.399 50.2162C271.836 50.2162 275.754 51.1175 279.151 52.9201C282.618 54.6535 285.322 57.3575 287.263 61.0321C289.274 64.6375 290.279 69.2828 290.279 74.9681V107H274.055V77.4641C274.055 72.9575 273.119 69.6295 271.247 67.4801C269.375 65.3308 266.74 64.2561 263.343 64.2561C260.985 64.2561 258.871 64.8108 256.999 65.9202C255.127 66.9601 253.671 68.5548 252.631 70.7041C251.591 72.8535 251.071 75.5922 251.071 78.9202V107H234.847V77.4641C234.847 72.9575 233.911 69.6295 232.039 67.4801C230.236 65.3308 227.636 64.2561 224.239 64.2561C221.881 64.2561 219.767 64.8108 217.895 65.9202C216.023 66.9601 214.567 68.5548 213.527 70.7041C212.487 72.8535 211.967 75.5922 211.967 78.9202V107H195.743V51.0481H211.239V66.3361L208.327 61.8641C210.268 58.0508 213.007 55.1735 216.543 53.2321C220.148 51.2215 224.239 50.2162 228.815 50.2162C233.946 50.2162 238.417 51.5335 242.231 54.1681C246.114 56.7335 248.679 60.6855 249.927 66.0241L244.207 64.4641C246.079 60.0961 249.06 56.6295 253.151 54.0641C257.311 51.4988 262.06 50.2162 267.399 50.2162Z" stroke="white" stroke-width="8" mask="url(#path-2-outside-1_713_81)"/>
<path d="M300.661 107V51.0481H316.885V107H300.661Z" stroke="white" stroke-width="8" mask="url(#path-2-outside-1_713_81)"/>
<path d="M354.822 107.832C348.79 107.832 343.417 106.619 338.702 104.192C333.988 101.696 330.278 98.2641 327.574 93.8961C324.94 89.5281 323.622 84.5708 323.622 79.0241C323.622 73.4081 324.94 68.4508 327.574 64.1521C330.278 59.7841 333.988 56.3868 338.702 53.9601C343.417 51.4641 348.79 50.2162 354.822 50.2162C360.716 50.2162 365.846 51.4641 370.214 53.9601C374.582 56.3868 377.806 59.8881 379.886 64.4641L367.302 71.2242C365.846 68.5895 364.009 66.6481 361.79 65.4001C359.641 64.1521 357.284 63.5281 354.718 63.5281C351.945 63.5281 349.449 64.1521 347.23 65.4001C345.012 66.6481 343.244 68.4161 341.926 70.7041C340.678 72.9921 340.054 75.7655 340.054 79.0241C340.054 82.2828 340.678 85.0561 341.926 87.3441C343.244 89.6321 345.012 91.4001 347.23 92.6481C349.449 93.8961 351.945 94.5201 354.718 94.5201C357.284 94.5201 359.641 93.9308 361.79 92.7522C364.009 91.5042 365.846 89.5282 367.302 86.8242L379.886 93.6881C377.806 98.1948 374.582 101.696 370.214 104.192C365.846 106.619 360.716 107.832 354.822 107.832Z" stroke="white" stroke-width="8" mask="url(#path-2-outside-1_713_81)"/>
<path d="M414.316 108.248C408.492 108.248 402.91 107.485 397.572 105.96C392.233 104.365 387.934 102.32 384.676 99.8242L390.396 87.1361C393.516 89.3548 397.19 91.1921 401.42 92.6481C405.718 94.0348 410.052 94.7281 414.42 94.7281C417.748 94.7281 420.417 94.4162 422.428 93.7922C424.508 93.0988 426.033 92.1628 427.004 90.9842C427.974 89.8055 428.46 88.4535 428.46 86.9281C428.46 84.9868 427.697 83.4615 426.172 82.3521C424.646 81.1735 422.636 80.2375 420.14 79.5442C417.644 78.7815 414.87 78.0881 411.82 77.4641C408.838 76.7708 405.822 75.9388 402.772 74.9681C399.79 73.9975 397.052 72.7495 394.556 71.2242C392.06 69.6988 390.014 67.6881 388.42 65.1921C386.894 62.6961 386.132 59.5068 386.132 55.6241C386.132 51.4641 387.241 47.6855 389.46 44.2881C391.748 40.8215 395.145 38.0828 399.652 36.0721C404.228 33.9921 409.948 32.9521 416.812 32.9521C421.388 32.9521 425.894 33.5068 430.332 34.6161C434.769 35.6561 438.686 37.2508 442.084 39.4001L436.884 52.1921C433.486 50.2508 430.089 48.8295 426.692 47.9281C423.294 46.9575 419.966 46.4721 416.708 46.4721C413.449 46.4721 410.78 46.8535 408.7 47.6161C406.62 48.3788 405.129 49.3841 404.228 50.6321C403.326 51.8108 402.876 53.1975 402.876 54.7921C402.876 56.6641 403.638 58.1895 405.164 59.3681C406.689 60.4775 408.7 61.3788 411.196 62.0721C413.692 62.7655 416.43 63.4588 419.412 64.1521C422.462 64.8455 425.478 65.6428 428.46 66.5441C431.51 67.4455 434.284 68.6588 436.78 70.1842C439.276 71.7095 441.286 73.7201 442.812 76.2161C444.406 78.7121 445.204 81.8668 445.204 85.6801C445.204 89.7708 444.06 93.5148 441.772 96.9122C439.484 100.309 436.052 103.048 431.476 105.128C426.969 107.208 421.249 108.248 414.316 108.248Z" stroke="white" stroke-width="8" mask="url(#path-2-outside-1_713_81)"/>
<path d="M479.18 107.832C472.801 107.832 467.185 106.584 462.332 104.088C457.548 101.592 453.839 98.1948 451.204 93.8961C448.569 89.5281 447.252 84.5708 447.252 79.0241C447.252 73.4081 448.535 68.4508 451.1 64.1521C453.735 59.7841 457.305 56.3868 461.812 53.9601C466.319 51.4641 471.415 50.2162 477.1 50.2162C482.577 50.2162 487.5 51.3948 491.868 53.7521C496.305 56.0401 499.807 59.3681 502.372 63.7362C504.937 68.0348 506.22 73.2001 506.22 79.2321C506.22 79.8561 506.185 80.5841 506.116 81.4161C506.047 82.1788 505.977 82.9068 505.908 83.6002H460.46V74.1361H497.38L491.14 76.9442C491.14 74.0322 490.551 71.5015 489.372 69.3521C488.193 67.2028 486.564 65.5388 484.484 64.3601C482.404 63.1121 479.977 62.4881 477.204 62.4881C474.431 62.4881 471.969 63.1121 469.82 64.3601C467.74 65.5388 466.111 67.2375 464.932 69.4561C463.753 71.6055 463.164 74.1708 463.164 77.1522V79.6481C463.164 82.6988 463.823 85.4028 465.14 87.7601C466.527 90.0481 468.433 91.8161 470.86 93.0641C473.356 94.2428 476.268 94.8322 479.596 94.8322C482.577 94.8322 485.177 94.3815 487.396 93.4801C489.684 92.5788 491.764 91.2268 493.636 89.4241L502.268 98.7841C499.703 101.696 496.479 103.949 492.596 105.544C488.713 107.069 484.241 107.832 479.18 107.832Z" stroke="white" stroke-width="8" mask="url(#path-2-outside-1_713_81)"/>
<path d="M512.861 107V51.0481H528.357V66.8561L526.173 62.2801C527.837 58.3281 530.507 55.3468 534.181 53.3361C537.856 51.2561 542.328 50.2162 547.597 50.2162V65.1921C546.904 65.1228 546.28 65.0882 545.725 65.0882C545.171 65.0188 544.581 64.9841 543.957 64.9841C539.52 64.9841 535.915 66.2668 533.141 68.8321C530.437 71.3281 529.085 75.2455 529.085 80.5842V107H512.861Z" stroke="white" stroke-width="8" mask="url(#path-2-outside-1_713_81)"/>
<path d="M570.198 107L546.694 51.0481H563.438L582.99 99.2001H574.67L594.95 51.0481H610.55L586.942 107H570.198Z" stroke="white" stroke-width="8" mask="url(#path-2-outside-1_713_81)"/>
<path d="M639.255 107.832C632.876 107.832 627.26 106.584 622.407 104.088C617.623 101.592 613.913 98.1948 611.279 93.8961C608.644 89.5281 607.327 84.5708 607.327 79.0241C607.327 73.4081 608.609 68.4508 611.175 64.1521C613.809 59.7841 617.38 56.3868 621.887 53.9601C626.393 51.4641 631.489 50.2162 637.175 50.2162C642.652 50.2162 647.575 51.3948 651.943 53.7521C656.38 56.0401 659.881 59.3681 662.447 63.7362C665.012 68.0348 666.295 73.2001 666.295 79.2321C666.295 79.8561 666.26 80.5841 666.191 81.4161C666.121 82.1788 666.052 82.9068 665.983 83.6002H620.535V74.1361H657.455L651.215 76.9442C651.215 74.0322 650.625 71.5015 649.447 69.3521C648.268 67.2028 646.639 65.5388 644.559 64.3601C642.479 63.1121 640.052 62.4881 637.279 62.4881C634.505 62.4881 632.044 63.1121 629.895 64.3601C627.815 65.5388 626.185 67.2375 625.007 69.4561C623.828 71.6055 623.239 74.1708 623.239 77.1522V79.6481C623.239 82.6988 623.897 85.4028 625.215 87.7601C626.601 90.0481 628.508 91.8161 630.935 93.0641C633.431 94.2428 636.343 94.8322 639.671 94.8322C642.652 94.8322 645.252 94.3815 647.471 93.4801C649.759 92.5788 651.839 91.2268 653.711 89.4241L662.343 98.7841C659.777 101.696 656.553 103.949 652.671 105.544C648.788 107.069 644.316 107.832 639.255 107.832Z" stroke="white" stroke-width="8" mask="url(#path-2-outside-1_713_81)"/>
<path d="M672.936 107V51.0481H688.432V66.8561L686.248 62.2801C687.912 58.3281 690.581 55.3468 694.256 53.3361C697.931 51.2561 702.403 50.2162 707.672 50.2162V65.1921C706.979 65.1228 706.355 65.0882 705.8 65.0882C705.245 65.0188 704.656 64.9841 704.032 64.9841C699.595 64.9841 695.989 66.2668 693.216 68.8321C690.512 71.3281 689.16 75.2455 689.16 80.5842V107H672.936Z" stroke="white" stroke-width="8" mask="url(#path-2-outside-1_713_81)"/>
<circle cx="158" cy="78" r="30" fill="black"/>
<circle cx="158" cy="78" r="14" fill="white"/>
<path d="M147 46C147 52.0751 151.925 57 158 57C164.075 57 169 52.0751 169 46C169 42.7143 167.557 39.7632 165.277 37.7505C163.339 36.0401 160.788 35 158 35C151.925 35 147 39.9249 147 46Z" fill="url(#paint0_linear_713_81)" stroke="white" stroke-width="4"/>
<defs>
<linearGradient id="paint0_linear_713_81" x1="167" y1="46" x2="149" y2="46" gradientUnits="userSpaceOnUse">
<stop stop-color="#01ECFF"/>
<stop offset="1" stop-color="#2210FF"/>
</linearGradient>
</defs>
</svg>
