<svg width="1131" height="118" viewBox="0 0 1131 118" fill="none" xmlns="http://www.w3.org/2000/svg">
<g clip-path="url(#clip0)">
<path d="M24.264 104.728H25.6014L26.1123 103.492L32.0494 89.128H63.1746L69.1117 103.492L69.6226 104.728H70.96H88.64H91.7251L90.4658 101.912L57.9138 29.1116L57.3845 27.928H56.088H39.448H38.1498L37.6212 29.1138L5.17324 101.914L3.9189 104.728H7H24.264ZM127.658 101.632L128.879 100.73L128.338 99.3106L123.97 87.8706L123.011 85.3607L120.882 86.9987C119.473 88.0824 117.733 88.664 115.549 88.664C113.748 88.664 112.585 88.1767 111.803 87.4167C111.069 86.5727 110.581 85.2789 110.581 83.28V62.504H122.517H124.517V60.504V48.024V46.024H122.517H110.581V34.4V32.4H108.581H92.3572H90.3572V34.4V46.024H83.7252H81.7252V48.024V60.504V62.504H83.7252H90.3572V83.488C90.3572 90.4361 92.2674 96.0315 96.3936 99.9196L96.4005 99.9261L96.4075 99.9325C100.56 103.772 106.272 105.56 113.261 105.56C115.971 105.56 118.557 105.267 121.012 104.672L121.033 104.667L121.053 104.661C123.6 103.987 125.819 102.991 127.658 101.632ZM288.214 104.728H290.214V102.728V70.696C290.214 62.1416 288.058 55.3694 283.389 50.77C278.85 46.1606 272.752 43.944 265.334 43.944C260.912 43.944 256.781 44.7933 252.968 46.5128L252.961 46.5159L252.955 46.519C250.017 47.8704 247.456 49.6684 245.287 51.9101C243.386 49.6401 241.066 47.8452 238.341 46.5392C234.849 44.7965 230.972 43.944 226.75 43.944C222.91 43.944 219.322 44.6097 216.009 45.9649L216.002 45.968L215.994 45.9711C214.251 46.7007 212.643 47.6075 211.174 48.6907V46.776V44.776H209.174H193.678H191.678V46.776V102.728V104.728H193.678H209.902H211.902V102.728V74.648C211.902 70.0608 212.955 66.9935 214.706 65.0775L214.716 65.0672L214.725 65.0567C216.516 63.0421 218.925 61.984 222.174 61.984C225.272 61.984 227.276 62.9264 228.571 64.5384C229.933 66.234 230.782 69.0044 230.782 73.192V102.728V104.728H232.782H249.006H251.006V102.728V74.648C251.006 70.0608 252.059 66.9935 253.81 65.0775L253.82 65.0672L253.829 65.0567C255.613 63.0505 258.051 61.984 261.382 61.984C264.304 61.984 266.28 62.9117 267.63 64.5732L267.652 64.5997L267.674 64.6255C269.094 66.2552 269.99 68.9809 269.99 73.192V102.728V104.728H271.99H288.214ZM298.596 44.776H296.596V46.776V102.728V104.728H298.596H314.82H316.82V102.728V46.776V44.776H314.82H298.596ZM335.702 101.688L335.717 101.696L335.733 101.704C340.827 104.288 346.516 105.56 352.758 105.56C358.937 105.56 364.419 104.25 369.136 101.556C373.924 98.8614 377.45 95.0826 379.643 90.2414L380.41 88.5496L378.779 87.6602L366.195 80.7962L364.451 79.8448L363.488 81.5827C362.202 83.9039 360.666 85.5475 358.916 86.6178C357.172 87.6846 355.107 88.248 352.654 88.248C348.909 88.248 345.931 87.0408 343.564 84.6738C341.245 82.355 339.99 79.1297 339.99 74.752C339.99 70.3743 341.245 67.149 343.564 64.8302C345.931 62.4632 348.909 61.256 352.654 61.256C357.346 61.256 360.908 63.3755 363.498 67.9392L364.463 69.6385L366.184 68.7139L378.768 61.9539L380.396 61.0793L379.653 59.3874C377.465 54.4077 373.937 50.5778 369.126 47.9423C364.411 45.2523 358.932 43.944 352.758 43.944C346.509 43.944 340.814 45.254 335.716 47.9129C330.693 50.4999 326.709 54.1423 323.809 58.8273L323.803 58.8371L323.797 58.847C320.958 63.5538 319.558 68.8741 319.558 74.752C319.558 80.6298 320.958 85.9502 323.797 90.657L323.803 90.6669L323.809 90.6767C326.708 95.3586 330.686 99.0321 335.702 101.688ZM47.664 51.6906L56.2149 72.336H39.1131L47.664 51.6906Z" fill="black" stroke="white" stroke-width="4"/>
<mask id="path-2-outside-1" maskUnits="userSpaceOnUse" x="122.806" y="39.728" width="68" height="68" fill="black">
<rect fill="white" x="122.806" y="39.728" width="68" height="68"/>
<path fill-rule="evenodd" clip-rule="evenodd" d="M144.633 46.3006C146.483 51.2244 151.235 54.728 156.806 54.728C162.376 54.728 167.128 51.2244 168.979 46.3006C179.482 50.969 186.806 61.4932 186.806 73.728C186.806 90.2966 173.374 103.728 156.806 103.728C140.237 103.728 126.806 90.2966 126.806 73.728C126.806 61.4932 134.13 50.969 144.633 46.3006ZM148.39 44.9245C149.679 48.3171 152.961 50.728 156.806 50.728C160.65 50.728 163.932 48.3171 165.221 44.9245C162.551 44.1457 159.727 43.728 156.806 43.728C153.884 43.728 151.06 44.1457 148.39 44.9245ZM170.806 73.728C170.806 81.46 164.538 87.728 156.806 87.728C149.074 87.728 142.806 81.46 142.806 73.728C142.806 65.996 149.074 59.728 156.806 59.728C164.538 59.728 170.806 65.996 170.806 73.728Z"/>
</mask>
<path fill-rule="evenodd" clip-rule="evenodd" d="M144.633 46.3006C146.483 51.2244 151.235 54.728 156.806 54.728C162.376 54.728 167.128 51.2244 168.979 46.3006C179.482 50.969 186.806 61.4932 186.806 73.728C186.806 90.2966 173.374 103.728 156.806 103.728C140.237 103.728 126.806 90.2966 126.806 73.728C126.806 61.4932 134.13 50.969 144.633 46.3006ZM148.39 44.9245C149.679 48.3171 152.961 50.728 156.806 50.728C160.65 50.728 163.932 48.3171 165.221 44.9245C162.551 44.1457 159.727 43.728 156.806 43.728C153.884 43.728 151.06 44.1457 148.39 44.9245ZM170.806 73.728C170.806 81.46 164.538 87.728 156.806 87.728C149.074 87.728 142.806 81.46 142.806 73.728C142.806 65.996 149.074 59.728 156.806 59.728C164.538 59.728 170.806 65.996 170.806 73.728Z" fill="black"/>
<path d="M144.633 46.3006L148.377 44.8934L146.885 40.9223L143.008 42.6454L144.633 46.3006ZM168.979 46.3006L170.603 42.6454L166.727 40.9223L165.234 44.8934L168.979 46.3006ZM148.39 44.9245L147.27 41.0845L143.112 42.2972L144.651 46.3455L148.39 44.9245ZM165.221 44.9245L168.961 46.3455L170.499 42.2972L166.342 41.0845L165.221 44.9245ZM156.806 50.728C152.955 50.728 149.66 48.3085 148.377 44.8934L140.888 47.7077C143.306 54.1402 149.515 58.728 156.806 58.728V50.728ZM165.234 44.8934C163.951 48.3085 160.656 50.728 156.806 50.728V58.728C164.096 58.728 170.306 54.1402 172.723 47.7077L165.234 44.8934ZM190.806 73.728C190.806 59.8557 182.498 47.9325 170.603 42.6454L167.354 49.9557C176.465 54.0055 182.806 63.1307 182.806 73.728H190.806ZM156.806 107.728C175.583 107.728 190.806 92.5057 190.806 73.728H182.806C182.806 88.0874 171.165 99.728 156.806 99.728V107.728ZM122.806 73.728C122.806 92.5057 138.028 107.728 156.806 107.728V99.728C142.446 99.728 130.806 88.0874 130.806 73.728H122.806ZM143.008 42.6454C131.113 47.9325 122.806 59.8557 122.806 73.728H130.806C130.806 63.1307 137.146 54.0055 146.257 49.9557L143.008 42.6454ZM144.651 46.3455C146.511 51.2394 151.246 54.728 156.806 54.728V46.728C154.676 46.728 152.848 45.3948 152.129 43.5036L144.651 46.3455ZM156.806 54.728C162.366 54.728 167.101 51.2394 168.961 46.3455L161.482 43.5036C160.764 45.3948 158.935 46.728 156.806 46.728V54.728ZM166.342 41.0845C163.311 40.2006 160.11 39.728 156.806 39.728V47.728C159.344 47.728 161.791 48.0907 164.101 48.7645L166.342 41.0845ZM156.806 39.728C153.501 39.728 150.3 40.2006 147.27 41.0845L149.51 48.7645C151.82 48.0907 154.267 47.728 156.806 47.728V39.728ZM156.806 91.728C166.747 91.728 174.806 83.6692 174.806 73.728H166.806C166.806 79.2509 162.329 83.728 156.806 83.728V91.728ZM138.806 73.728C138.806 83.6692 146.865 91.728 156.806 91.728V83.728C151.283 83.728 146.806 79.2509 146.806 73.728H138.806ZM156.806 55.728C146.865 55.728 138.806 63.7869 138.806 73.728H146.806C146.806 68.2052 151.283 63.728 156.806 63.728V55.728ZM174.806 73.728C174.806 63.7869 166.747 55.728 156.806 55.728V63.728C162.329 63.728 166.806 68.2052 166.806 73.728H174.806Z" fill="white" mask="url(#path-2-outside-1)"/>
<path d="M149.028 33.9499C144.732 38.2456 144.732 45.2104 149.028 49.5062C153.323 53.802 160.288 53.802 164.584 49.5062C166.907 47.1829 167.974 44.0757 167.784 41.0401C167.623 38.4603 166.556 35.9215 164.584 33.9499C160.288 29.6541 153.323 29.6541 149.028 33.9499Z" fill="url(#paint0_linear)" stroke="white" stroke-width="4"/>
<path d="M422.806 27.928H420.806V29.928V102.728V104.728H422.806H455.878C464.036 104.728 471.316 103.188 477.668 100.049L477.676 100.045C484.089 96.8385 489.094 92.3267 492.63 86.5103C496.245 80.6786 498.022 73.9276 498.022 66.328C498.022 58.7284 496.245 51.9773 492.63 46.1456C489.094 40.3289 484.087 35.8503 477.672 32.7131C471.319 29.5029 464.037 27.928 455.878 27.928H422.806ZM471.035 51.3448L471.047 51.3562L471.059 51.3674C474.946 54.9457 476.966 59.8511 476.966 66.328C476.966 72.804 474.946 77.7526 471.047 81.4042C467.201 85.001 461.944 86.896 455.046 86.896H441.654V45.76H455.046C461.935 45.76 467.188 47.6844 471.035 51.3448ZM532.166 63.2601C533.404 64.3385 534.238 65.8236 534.557 67.864H523.808C515.451 67.864 508.864 69.3743 504.403 72.7393L504.396 72.7445L504.389 72.7497C499.979 76.1361 497.784 80.8313 497.784 86.608C497.784 90.2263 498.713 93.5213 500.602 96.4324C502.495 99.3506 505.194 101.594 508.61 103.188L508.617 103.192L508.625 103.195C512.127 104.794 516.166 105.56 520.688 105.56C526.932 105.56 532.044 104.15 535.744 101.137V102.728V104.728H537.744H552.928H554.928V102.728V70.8C554.928 62.1167 552.494 55.2772 547.287 50.6882C542.154 46.0949 534.955 43.944 525.992 43.944C521.308 43.944 516.728 44.5567 512.255 45.7832L512.247 45.7854C507.835 47.0148 503.979 48.7671 500.712 51.069L499.29 52.0708L500.085 53.6179L505.909 64.9539L507.022 67.1207L508.93 65.607C510.722 64.1856 512.924 63.042 515.572 62.2024L515.586 62.198L515.6 62.1933C518.314 61.2886 521.047 60.84 523.808 60.84C527.845 60.84 530.5 61.7561 532.139 63.2362L532.152 63.2483L532.166 63.2601ZM600.728 101.632L601.949 100.73L601.407 99.3106L597.039 87.8706L596.081 85.3606L593.952 86.9987C592.543 88.0824 590.803 88.664 588.619 88.664C586.818 88.664 585.655 88.1766 584.873 87.4166C584.139 86.5727 583.651 85.2788 583.651 83.28V62.504H595.587H597.587V60.504V48.024V46.024H595.587H583.651V34.4V32.4H581.651H565.427H563.427V34.4V46.024H556.795H554.795V48.024V60.504V62.504H556.795H563.427V83.488C563.427 90.4361 565.337 96.0315 569.463 99.9196L569.47 99.9261L569.477 99.9325C573.63 103.772 579.341 105.56 586.331 105.56C589.041 105.56 591.627 105.267 594.082 104.672L594.103 104.667L594.123 104.661C596.67 103.987 598.889 102.991 600.728 101.632ZM633.229 63.2601C634.467 64.3385 635.301 65.8236 635.62 67.864H624.87C616.514 67.864 609.927 69.3743 605.466 72.7394L605.459 72.7445L605.452 72.7497C601.042 76.1361 598.846 80.8313 598.846 86.608C598.846 90.2263 599.776 93.5213 601.664 96.4324C603.557 99.3506 606.257 101.594 609.673 103.188L609.68 103.192L609.688 103.195C613.19 104.794 617.228 105.56 621.75 105.56C627.995 105.56 633.107 104.15 636.806 101.137V102.728V104.728H638.806H653.99H655.99V102.728V70.8C655.99 62.117 653.557 55.2776 648.351 50.6887C643.217 46.095 636.018 43.944 627.054 43.944C622.371 43.944 617.79 44.5567 613.317 45.7832L613.309 45.7854C608.898 47.0148 605.042 48.7671 601.774 51.069L600.353 52.0708L601.147 53.6179L606.971 64.9539L608.085 67.1207L609.993 65.607C611.785 64.1856 613.987 63.042 616.635 62.2024L616.649 62.198L616.663 62.1933C619.377 61.2886 622.11 60.84 624.87 60.84C628.908 60.84 631.563 61.7561 633.202 63.2362L633.215 63.2483L633.229 63.2601ZM531.103 89.0504C529.297 90.0936 527.197 90.64 524.744 90.64C522.184 90.64 520.394 90.1129 519.179 89.2674C518.109 88.4151 517.592 87.3474 517.592 85.88C517.592 84.2922 518.146 83.3197 519.185 82.6381C520.37 81.8601 522.403 81.328 525.576 81.328H534.704V84.6832C533.942 86.6086 532.745 88.0382 531.103 89.0504ZM632.165 89.0504C630.36 90.0936 628.259 90.64 625.806 90.64C623.247 90.64 621.457 90.1129 620.241 89.2674C619.172 88.4151 618.654 87.3474 618.654 85.88C618.654 84.2922 619.209 83.3197 620.248 82.6381C621.433 81.8601 623.465 81.328 626.638 81.328H635.766V84.6832C635.005 86.6086 633.808 88.0382 632.165 89.0504Z" fill="black" stroke="white" stroke-width="4"/>
<circle cx="1021.46" cy="60.5391" r="44.2435" fill="white"/>
<mask id="path-7-outside-2" maskUnits="userSpaceOnUse" x="967.105" y="6.65503" width="109" height="109" fill="black">
<rect fill="white" x="967.105" y="6.65503" width="109" height="109"/>
<path d="M1073 59.7L1068.61 56.98C1068.57 56.552 1068.53 56.125 1068.48 55.7L1072.26 52.18C1072.65 51.822 1072.82 51.292 1072.72 50.78C1072.62 50.265 1072.25 49.841 1071.76 49.66L1066.93 47.86C1066.81 47.442 1066.69 47.027 1066.56 46.61L1069.57 42.43C1069.87 42.005 1069.94 41.452 1069.74 40.97C1069.54 40.487 1069.1 40.141 1068.59 40.056L1063.5 39.228C1063.3 38.842 1063.09 38.462 1062.88 38.088L1065.02 33.388C1065.24 32.91 1065.2 32.358 1064.91 31.918C1064.61 31.482 1064.12 31.227 1063.6 31.247L1058.43 31.427C1058.16 31.093 1057.89 30.762 1057.61 30.437L1058.8 25.407C1058.92 24.896 1058.77 24.357 1058.4 23.987C1058.03 23.617 1057.49 23.464 1056.98 23.584L1051.95 24.774C1051.62 24.498 1051.29 24.225 1050.95 23.958L1051.14 18.788C1051.16 18.265 1050.9 17.768 1050.46 17.478C1050.03 17.186 1049.47 17.142 1048.99 17.359L1044.3 19.499C1043.93 19.291 1043.55 19.085 1043.16 18.886L1042.33 13.796C1042.25 13.28 1041.9 12.842 1041.42 12.646C1040.94 12.445 1040.38 12.51 1039.96 12.816L1035.78 15.826C1035.37 15.695 1034.95 15.569 1034.54 15.449L1032.74 10.619C1032.56 10.127 1032.13 9.76603 1031.62 9.66403C1031.11 9.56303 1030.58 9.73403 1030.22 10.116L1026.7 13.896C1026.28 13.849 1025.85 13.806 1025.42 13.771L1022.7 9.37103C1022.43 8.92603 1021.94 8.65503 1021.41 8.65503C1020.88 8.65503 1020.4 8.92603 1020.13 9.37103L1017.41 13.771C1016.98 13.806 1016.55 13.849 1016.13 13.896L1012.61 10.116C1012.25 9.73403 1011.72 9.56303 1011.21 9.66403C1010.7 9.76703 1010.27 10.127 1010.09 10.619L1008.29 15.449C1007.87 15.569 1007.46 15.696 1007.05 15.826L1002.87 12.816C1002.45 12.509 1001.89 12.444 1001.41 12.646C1000.93 12.846 1000.58 13.284 1000.5 13.796L999.667 18.886C999.283 19.085 998.903 19.29 998.527 19.499L993.837 17.359C993.36 17.141 992.807 17.186 992.367 17.478C991.931 17.768 991.676 18.265 991.696 18.788L991.876 23.958C991.542 24.225 991.211 24.498 990.884 24.774L985.854 23.584C985.343 23.465 984.804 23.617 984.434 23.987C984.062 24.358 983.911 24.893 984.031 25.407L985.211 30.437C984.936 30.763 984.664 31.093 984.397 31.427L979.227 31.247C978.706 31.232 978.207 31.482 977.917 31.918C977.625 32.352 977.581 32.908 977.798 33.388L979.938 38.088C979.73 38.465 979.524 38.845 979.325 39.228L974.235 40.056C973.718 40.14 973.282 40.486 973.085 40.97C972.885 41.455 972.95 42.01 973.255 42.43L976.265 46.61C976.134 47.023 976.007 47.438 975.887 47.86L971.057 49.66C970.567 49.843 970.206 50.267 970.104 50.78C970.002 51.294 970.173 51.82 970.556 52.18L974.336 55.7C974.289 56.125 974.247 56.553 974.211 56.98L969.821 59.7C969.376 59.975 969.105 60.461 969.105 60.99C969.105 61.519 969.376 62 969.821 62.27L974.211 64.99C974.247 65.418 974.289 65.845 974.336 66.27L970.556 69.79C970.173 70.147 970.002 70.677 970.104 71.19C970.206 71.705 970.567 72.128 971.057 72.31L975.887 74.11C976.007 74.528 976.134 74.943 976.265 75.36L973.255 79.54C972.949 79.966 972.884 80.519 973.085 81C973.286 81.485 973.723 81.831 974.245 81.914L979.335 82.742C979.534 83.128 979.738 83.508 979.948 83.882L977.808 88.572C977.59 89.049 977.635 89.602 977.927 90.042C978.219 90.479 978.716 90.734 979.237 90.713L984.397 90.532C984.666 90.868 984.937 91.197 985.213 91.524L984.033 96.554C983.913 97.064 984.064 97.594 984.436 97.964C984.805 98.337 985.342 98.486 985.856 98.366L990.886 97.186C991.213 97.464 991.544 97.734 991.878 98L991.698 103.17C991.678 103.693 991.933 104.19 992.369 104.48C992.803 104.771 993.359 104.815 993.839 104.597L998.529 102.457C998.907 102.667 999.287 102.871 999.669 103.07L1000.5 108.16C1000.58 108.678 1000.93 109.116 1001.41 109.32C1001.9 109.521 1002.45 109.456 1002.87 109.151L1007.05 106.141C1007.47 106.272 1007.88 106.4 1008.3 106.52L1010.1 111.35C1010.29 111.84 1010.71 112.203 1011.22 112.303C1011.74 112.407 1012.26 112.235 1012.62 111.851L1016.14 108.071C1016.57 108.12 1017 108.161 1017.42 108.199L1020.14 112.589C1020.42 113.032 1020.9 113.305 1021.42 113.305C1021.94 113.305 1022.43 113.033 1022.71 112.589L1025.43 108.199C1025.86 108.161 1026.29 108.12 1026.71 108.071L1030.23 111.851C1030.59 112.235 1031.12 112.407 1031.63 112.303C1032.15 112.202 1032.57 111.84 1032.75 111.35L1034.55 106.52C1034.97 106.4 1035.39 106.272 1035.8 106.141L1039.98 109.151C1040.41 109.456 1040.96 109.521 1041.44 109.32C1041.93 109.121 1042.27 108.682 1042.36 108.16L1043.19 103.07C1043.57 102.871 1043.95 102.664 1044.33 102.457L1049.02 104.597C1049.49 104.815 1050.05 104.771 1050.49 104.48C1050.92 104.188 1051.18 103.693 1051.16 103.17L1050.98 98C1051.31 97.733 1051.64 97.464 1051.97 97.186L1057 98.366C1057.51 98.486 1058.05 98.337 1058.42 97.964C1058.79 97.593 1058.94 97.06 1058.82 96.554L1057.64 91.524C1057.92 91.197 1058.19 90.868 1058.46 90.532L1063.63 90.713C1064.15 90.734 1064.65 90.479 1064.94 90.042C1065.23 89.606 1065.27 89.051 1065.05 88.572L1062.91 83.882C1063.12 83.503 1063.33 83.123 1063.53 82.742L1068.62 81.914C1069.13 81.831 1069.57 81.485 1069.77 81C1069.97 80.517 1069.9 79.96 1069.6 79.54L1066.59 75.36C1066.72 74.947 1066.84 74.532 1066.96 74.11L1071.79 72.31C1072.28 72.126 1072.65 71.703 1072.75 71.19C1072.85 70.676 1072.68 70.15 1072.29 69.79L1068.51 66.27C1068.56 65.845 1068.6 65.417 1068.64 64.99L1073.03 62.27C1073.47 61.996 1073.75 61.509 1073.75 60.99C1073.75 60.471 1073.48 59.98 1073.03 59.7H1073ZM1043.6 96.2C1041.92 95.838 1040.86 94.18 1041.22 92.5C1041.58 90.82 1043.23 89.75 1044.91 90.11C1046.59 90.469 1047.66 92.13 1047.3 93.81C1046.94 95.49 1045.29 96.56 1043.61 96.2H1043.6ZM1042.11 86.1C1040.58 85.772 1039.07 86.746 1038.75 88.28L1037.19 95.56C1032.38 97.74 1026.99 98.96 1021.39 98.96C1015.63 98.96 1010.19 97.69 1005.29 95.41L1003.73 88.13C1003.4 86.6 1001.9 85.62 1000.37 85.95L993.94 87.33C992.75 86.1 991.64 84.79 990.62 83.41H1021.92C1022.27 83.41 1022.51 83.346 1022.51 83.024V71.924C1022.51 71.602 1022.27 71.538 1021.92 71.538H1012.77V64.528H1022.66C1023.56 64.528 1027.49 64.786 1028.74 69.808C1029.13 71.348 1030 76.368 1030.59 77.978C1031.18 79.778 1033.57 83.378 1036.12 83.378H1051.72C1051.9 83.378 1052.09 83.358 1052.28 83.322C1051.2 84.792 1050.01 86.182 1048.74 87.482L1042.16 86.072L1042.11 86.1ZM998.81 96.05C997.13 96.412 995.48 95.342 995.12 93.66C994.761 91.98 995.828 90.32 997.51 89.96C999.19 89.601 1000.84 90.671 1001.2 92.35C1001.56 94.03 1000.49 95.69 998.81 96.05ZM986.91 47.95C987.606 49.52 986.898 51.36 985.33 52.06C983.76 52.757 981.93 52.048 981.23 50.48C980.53 48.912 981.242 47.07 982.81 46.37C984.38 45.674 986.21 46.382 986.91 47.95ZM983.26 56.59L989.96 53.61C991.39 52.975 992.04 51.3 991.4 49.87L990.02 46.75H995.44V71.15H984.54C983.591 67.81 983.08 64.29 983.08 60.65C983.08 59.26 983.155 57.89 983.299 56.54L983.26 56.59ZM1012.66 54.22V47.02H1025.56C1026.23 47.02 1030.27 47.791 1030.27 50.81C1030.27 53.32 1027.17 54.22 1024.62 54.22H1012.62H1012.66ZM1059.56 60.7C1059.56 61.656 1059.52 62.6 1059.45 63.54H1055.52C1055.13 63.54 1054.97 63.798 1054.97 64.183V65.983C1054.97 70.223 1052.58 71.153 1050.48 71.383C1048.48 71.608 1046.27 70.547 1046 69.323C1044.82 62.693 1042.86 61.283 1039.76 58.823C1043.61 56.383 1047.61 52.773 1047.61 47.923C1047.61 42.713 1044.04 39.433 1041.61 37.823C1038.19 35.573 1034.41 35.123 1033.39 35.123H992.794C998.304 28.983 1005.79 24.623 1014.19 23.023L1018.98 28.043C1020.06 29.173 1021.85 29.223 1022.99 28.135L1028.35 23.015C1039.55 25.105 1049.05 32.085 1054.55 41.715L1050.88 49.995C1050.25 51.425 1050.9 53.105 1052.32 53.735L1059.38 56.875C1059.51 58.125 1059.57 59.395 1059.57 60.675L1059.56 60.7ZM1018.96 18.8C1020.2 17.61 1022.17 17.66 1023.35 18.901C1024.53 20.141 1024.49 22.111 1023.25 23.301C1022.01 24.491 1020.04 24.441 1018.86 23.199C1017.68 21.959 1017.72 19.989 1018.96 18.799V18.8ZM1055.36 48.1C1056.05 46.53 1057.89 45.82 1059.46 46.52C1061.03 47.216 1061.74 49.06 1061.04 50.63C1060.34 52.2 1058.51 52.91 1056.94 52.21C1055.37 51.514 1054.66 49.67 1055.36 48.1Z"/>
</mask>
<path d="M1073 59.7L1068.61 56.98C1068.57 56.552 1068.53 56.125 1068.48 55.7L1072.26 52.18C1072.65 51.822 1072.82 51.292 1072.72 50.78C1072.62 50.265 1072.25 49.841 1071.76 49.66L1066.93 47.86C1066.81 47.442 1066.69 47.027 1066.56 46.61L1069.57 42.43C1069.87 42.005 1069.94 41.452 1069.74 40.97C1069.54 40.487 1069.1 40.141 1068.59 40.056L1063.5 39.228C1063.3 38.842 1063.09 38.462 1062.88 38.088L1065.02 33.388C1065.24 32.91 1065.2 32.358 1064.91 31.918C1064.61 31.482 1064.12 31.227 1063.6 31.247L1058.43 31.427C1058.16 31.093 1057.89 30.762 1057.61 30.437L1058.8 25.407C1058.92 24.896 1058.77 24.357 1058.4 23.987C1058.03 23.617 1057.49 23.464 1056.98 23.584L1051.95 24.774C1051.62 24.498 1051.29 24.225 1050.95 23.958L1051.14 18.788C1051.16 18.265 1050.9 17.768 1050.46 17.478C1050.03 17.186 1049.47 17.142 1048.99 17.359L1044.3 19.499C1043.93 19.291 1043.55 19.085 1043.16 18.886L1042.33 13.796C1042.25 13.28 1041.9 12.842 1041.42 12.646C1040.94 12.445 1040.38 12.51 1039.96 12.816L1035.78 15.826C1035.37 15.695 1034.95 15.569 1034.54 15.449L1032.74 10.619C1032.56 10.127 1032.13 9.76603 1031.62 9.66403C1031.11 9.56303 1030.58 9.73403 1030.22 10.116L1026.7 13.896C1026.28 13.849 1025.85 13.806 1025.42 13.771L1022.7 9.37103C1022.43 8.92603 1021.94 8.65503 1021.41 8.65503C1020.88 8.65503 1020.4 8.92603 1020.13 9.37103L1017.41 13.771C1016.98 13.806 1016.55 13.849 1016.13 13.896L1012.61 10.116C1012.25 9.73403 1011.72 9.56303 1011.21 9.66403C1010.7 9.76703 1010.27 10.127 1010.09 10.619L1008.29 15.449C1007.87 15.569 1007.46 15.696 1007.05 15.826L1002.87 12.816C1002.45 12.509 1001.89 12.444 1001.41 12.646C1000.93 12.846 1000.58 13.284 1000.5 13.796L999.667 18.886C999.283 19.085 998.903 19.29 998.527 19.499L993.837 17.359C993.36 17.141 992.807 17.186 992.367 17.478C991.931 17.768 991.676 18.265 991.696 18.788L991.876 23.958C991.542 24.225 991.211 24.498 990.884 24.774L985.854 23.584C985.343 23.465 984.804 23.617 984.434 23.987C984.062 24.358 983.911 24.893 984.031 25.407L985.211 30.437C984.936 30.763 984.664 31.093 984.397 31.427L979.227 31.247C978.706 31.232 978.207 31.482 977.917 31.918C977.625 32.352 977.581 32.908 977.798 33.388L979.938 38.088C979.73 38.465 979.524 38.845 979.325 39.228L974.235 40.056C973.718 40.14 973.282 40.486 973.085 40.97C972.885 41.455 972.95 42.01 973.255 42.43L976.265 46.61C976.134 47.023 976.007 47.438 975.887 47.86L971.057 49.66C970.567 49.843 970.206 50.267 970.104 50.78C970.002 51.294 970.173 51.82 970.556 52.18L974.336 55.7C974.289 56.125 974.247 56.553 974.211 56.98L969.821 59.7C969.376 59.975 969.105 60.461 969.105 60.99C969.105 61.519 969.376 62 969.821 62.27L974.211 64.99C974.247 65.418 974.289 65.845 974.336 66.27L970.556 69.79C970.173 70.147 970.002 70.677 970.104 71.19C970.206 71.705 970.567 72.128 971.057 72.31L975.887 74.11C976.007 74.528 976.134 74.943 976.265 75.36L973.255 79.54C972.949 79.966 972.884 80.519 973.085 81C973.286 81.485 973.723 81.831 974.245 81.914L979.335 82.742C979.534 83.128 979.738 83.508 979.948 83.882L977.808 88.572C977.59 89.049 977.635 89.602 977.927 90.042C978.219 90.479 978.716 90.734 979.237 90.713L984.397 90.532C984.666 90.868 984.937 91.197 985.213 91.524L984.033 96.554C983.913 97.064 984.064 97.594 984.436 97.964C984.805 98.337 985.342 98.486 985.856 98.366L990.886 97.186C991.213 97.464 991.544 97.734 991.878 98L991.698 103.17C991.678 103.693 991.933 104.19 992.369 104.48C992.803 104.771 993.359 104.815 993.839 104.597L998.529 102.457C998.907 102.667 999.287 102.871 999.669 103.07L1000.5 108.16C1000.58 108.678 1000.93 109.116 1001.41 109.32C1001.9 109.521 1002.45 109.456 1002.87 109.151L1007.05 106.141C1007.47 106.272 1007.88 106.4 1008.3 106.52L1010.1 111.35C1010.29 111.84 1010.71 112.203 1011.22 112.303C1011.74 112.407 1012.26 112.235 1012.62 111.851L1016.14 108.071C1016.57 108.12 1017 108.161 1017.42 108.199L1020.14 112.589C1020.42 113.032 1020.9 113.305 1021.42 113.305C1021.94 113.305 1022.43 113.033 1022.71 112.589L1025.43 108.199C1025.86 108.161 1026.29 108.12 1026.71 108.071L1030.23 111.851C1030.59 112.235 1031.12 112.407 1031.63 112.303C1032.15 112.202 1032.57 111.84 1032.75 111.35L1034.55 106.52C1034.97 106.4 1035.39 106.272 1035.8 106.141L1039.98 109.151C1040.41 109.456 1040.96 109.521 1041.44 109.32C1041.93 109.121 1042.27 108.682 1042.36 108.16L1043.19 103.07C1043.57 102.871 1043.95 102.664 1044.33 102.457L1049.02 104.597C1049.49 104.815 1050.05 104.771 1050.49 104.48C1050.92 104.188 1051.18 103.693 1051.16 103.17L1050.98 98C1051.31 97.733 1051.64 97.464 1051.97 97.186L1057 98.366C1057.51 98.486 1058.05 98.337 1058.42 97.964C1058.79 97.593 1058.94 97.06 1058.82 96.554L1057.64 91.524C1057.92 91.197 1058.19 90.868 1058.46 90.532L1063.63 90.713C1064.15 90.734 1064.65 90.479 1064.94 90.042C1065.23 89.606 1065.27 89.051 1065.05 88.572L1062.91 83.882C1063.12 83.503 1063.33 83.123 1063.53 82.742L1068.62 81.914C1069.13 81.831 1069.57 81.485 1069.77 81C1069.97 80.517 1069.9 79.96 1069.6 79.54L1066.59 75.36C1066.72 74.947 1066.84 74.532 1066.96 74.11L1071.79 72.31C1072.28 72.126 1072.65 71.703 1072.75 71.19C1072.85 70.676 1072.68 70.15 1072.29 69.79L1068.51 66.27C1068.56 65.845 1068.6 65.417 1068.64 64.99L1073.03 62.27C1073.47 61.996 1073.75 61.509 1073.75 60.99C1073.75 60.471 1073.48 59.98 1073.03 59.7H1073ZM1043.6 96.2C1041.92 95.838 1040.86 94.18 1041.22 92.5C1041.58 90.82 1043.23 89.75 1044.91 90.11C1046.59 90.469 1047.66 92.13 1047.3 93.81C1046.94 95.49 1045.29 96.56 1043.61 96.2H1043.6ZM1042.11 86.1C1040.58 85.772 1039.07 86.746 1038.75 88.28L1037.19 95.56C1032.38 97.74 1026.99 98.96 1021.39 98.96C1015.63 98.96 1010.19 97.69 1005.29 95.41L1003.73 88.13C1003.4 86.6 1001.9 85.62 1000.37 85.95L993.94 87.33C992.75 86.1 991.64 84.79 990.62 83.41H1021.92C1022.27 83.41 1022.51 83.346 1022.51 83.024V71.924C1022.51 71.602 1022.27 71.538 1021.92 71.538H1012.77V64.528H1022.66C1023.56 64.528 1027.49 64.786 1028.74 69.808C1029.13 71.348 1030 76.368 1030.59 77.978C1031.18 79.778 1033.57 83.378 1036.12 83.378H1051.72C1051.9 83.378 1052.09 83.358 1052.28 83.322C1051.2 84.792 1050.01 86.182 1048.74 87.482L1042.16 86.072L1042.11 86.1ZM998.81 96.05C997.13 96.412 995.48 95.342 995.12 93.66C994.761 91.98 995.828 90.32 997.51 89.96C999.19 89.601 1000.84 90.671 1001.2 92.35C1001.56 94.03 1000.49 95.69 998.81 96.05ZM986.91 47.95C987.606 49.52 986.898 51.36 985.33 52.06C983.76 52.757 981.93 52.048 981.23 50.48C980.53 48.912 981.242 47.07 982.81 46.37C984.38 45.674 986.21 46.382 986.91 47.95ZM983.26 56.59L989.96 53.61C991.39 52.975 992.04 51.3 991.4 49.87L990.02 46.75H995.44V71.15H984.54C983.591 67.81 983.08 64.29 983.08 60.65C983.08 59.26 983.155 57.89 983.299 56.54L983.26 56.59ZM1012.66 54.22V47.02H1025.56C1026.23 47.02 1030.27 47.791 1030.27 50.81C1030.27 53.32 1027.17 54.22 1024.62 54.22H1012.62H1012.66ZM1059.56 60.7C1059.56 61.656 1059.52 62.6 1059.45 63.54H1055.52C1055.13 63.54 1054.97 63.798 1054.97 64.183V65.983C1054.97 70.223 1052.58 71.153 1050.48 71.383C1048.48 71.608 1046.27 70.547 1046 69.323C1044.82 62.693 1042.86 61.283 1039.76 58.823C1043.61 56.383 1047.61 52.773 1047.61 47.923C1047.61 42.713 1044.04 39.433 1041.61 37.823C1038.19 35.573 1034.41 35.123 1033.39 35.123H992.794C998.304 28.983 1005.79 24.623 1014.19 23.023L1018.98 28.043C1020.06 29.173 1021.85 29.223 1022.99 28.135L1028.35 23.015C1039.55 25.105 1049.05 32.085 1054.55 41.715L1050.88 49.995C1050.25 51.425 1050.9 53.105 1052.32 53.735L1059.38 56.875C1059.51 58.125 1059.57 59.395 1059.57 60.675L1059.56 60.7ZM1018.96 18.8C1020.2 17.61 1022.17 17.66 1023.35 18.901C1024.53 20.141 1024.49 22.111 1023.25 23.301C1022.01 24.491 1020.04 24.441 1018.86 23.199C1017.68 21.959 1017.72 19.989 1018.96 18.799V18.8ZM1055.36 48.1C1056.05 46.53 1057.89 45.82 1059.46 46.52C1061.03 47.216 1061.74 49.06 1061.04 50.63C1060.34 52.2 1058.51 52.91 1056.94 52.21C1055.37 51.514 1054.66 49.67 1055.36 48.1Z" fill="black"/>
<path d="M1073 59.7L1068.61 56.98C1068.57 56.552 1068.53 56.125 1068.48 55.7L1072.26 52.18C1072.65 51.822 1072.82 51.292 1072.72 50.78C1072.62 50.265 1072.25 49.841 1071.76 49.66L1066.93 47.86C1066.81 47.442 1066.69 47.027 1066.56 46.61L1069.57 42.43C1069.87 42.005 1069.94 41.452 1069.74 40.97C1069.54 40.487 1069.1 40.141 1068.59 40.056L1063.5 39.228C1063.3 38.842 1063.09 38.462 1062.88 38.088L1065.02 33.388C1065.24 32.91 1065.2 32.358 1064.91 31.918C1064.61 31.482 1064.12 31.227 1063.6 31.247L1058.43 31.427C1058.16 31.093 1057.89 30.762 1057.61 30.437L1058.8 25.407C1058.92 24.896 1058.77 24.357 1058.4 23.987C1058.03 23.617 1057.49 23.464 1056.98 23.584L1051.95 24.774C1051.62 24.498 1051.29 24.225 1050.95 23.958L1051.14 18.788C1051.16 18.265 1050.9 17.768 1050.46 17.478C1050.03 17.186 1049.47 17.142 1048.99 17.359L1044.3 19.499C1043.93 19.291 1043.55 19.085 1043.16 18.886L1042.33 13.796C1042.25 13.28 1041.9 12.842 1041.42 12.646C1040.94 12.445 1040.38 12.51 1039.96 12.816L1035.78 15.826C1035.37 15.695 1034.95 15.569 1034.54 15.449L1032.74 10.619C1032.56 10.127 1032.13 9.76603 1031.62 9.66403C1031.11 9.56303 1030.58 9.73403 1030.22 10.116L1026.7 13.896C1026.28 13.849 1025.85 13.806 1025.42 13.771L1022.7 9.37103C1022.43 8.92603 1021.94 8.65503 1021.41 8.65503C1020.88 8.65503 1020.4 8.92603 1020.13 9.37103L1017.41 13.771C1016.98 13.806 1016.55 13.849 1016.13 13.896L1012.61 10.116C1012.25 9.73403 1011.72 9.56303 1011.21 9.66403C1010.7 9.76703 1010.27 10.127 1010.09 10.619L1008.29 15.449C1007.87 15.569 1007.46 15.696 1007.05 15.826L1002.87 12.816C1002.45 12.509 1001.89 12.444 1001.41 12.646C1000.93 12.846 1000.58 13.284 1000.5 13.796L999.667 18.886C999.283 19.085 998.903 19.29 998.527 19.499L993.837 17.359C993.36 17.141 992.807 17.186 992.367 17.478C991.931 17.768 991.676 18.265 991.696 18.788L991.876 23.958C991.542 24.225 991.211 24.498 990.884 24.774L985.854 23.584C985.343 23.465 984.804 23.617 984.434 23.987C984.062 24.358 983.911 24.893 984.031 25.407L985.211 30.437C984.936 30.763 984.664 31.093 984.397 31.427L979.227 31.247C978.706 31.232 978.207 31.482 977.917 31.918C977.625 32.352 977.581 32.908 977.798 33.388L979.938 38.088C979.73 38.465 979.524 38.845 979.325 39.228L974.235 40.056C973.718 40.14 973.282 40.486 973.085 40.97C972.885 41.455 972.95 42.01 973.255 42.43L976.265 46.61C976.134 47.023 976.007 47.438 975.887 47.86L971.057 49.66C970.567 49.843 970.206 50.267 970.104 50.78C970.002 51.294 970.173 51.82 970.556 52.18L974.336 55.7C974.289 56.125 974.247 56.553 974.211 56.98L969.821 59.7C969.376 59.975 969.105 60.461 969.105 60.99C969.105 61.519 969.376 62 969.821 62.27L974.211 64.99C974.247 65.418 974.289 65.845 974.336 66.27L970.556 69.79C970.173 70.147 970.002 70.677 970.104 71.19C970.206 71.705 970.567 72.128 971.057 72.31L975.887 74.11C976.007 74.528 976.134 74.943 976.265 75.36L973.255 79.54C972.949 79.966 972.884 80.519 973.085 81C973.286 81.485 973.723 81.831 974.245 81.914L979.335 82.742C979.534 83.128 979.738 83.508 979.948 83.882L977.808 88.572C977.59 89.049 977.635 89.602 977.927 90.042C978.219 90.479 978.716 90.734 979.237 90.713L984.397 90.532C984.666 90.868 984.937 91.197 985.213 91.524L984.033 96.554C983.913 97.064 984.064 97.594 984.436 97.964C984.805 98.337 985.342 98.486 985.856 98.366L990.886 97.186C991.213 97.464 991.544 97.734 991.878 98L991.698 103.17C991.678 103.693 991.933 104.19 992.369 104.48C992.803 104.771 993.359 104.815 993.839 104.597L998.529 102.457C998.907 102.667 999.287 102.871 999.669 103.07L1000.5 108.16C1000.58 108.678 1000.93 109.116 1001.41 109.32C1001.9 109.521 1002.45 109.456 1002.87 109.151L1007.05 106.141C1007.47 106.272 1007.88 106.4 1008.3 106.52L1010.1 111.35C1010.29 111.84 1010.71 112.203 1011.22 112.303C1011.74 112.407 1012.26 112.235 1012.62 111.851L1016.14 108.071C1016.57 108.12 1017 108.161 1017.42 108.199L1020.14 112.589C1020.42 113.032 1020.9 113.305 1021.42 113.305C1021.94 113.305 1022.43 113.033 1022.71 112.589L1025.43 108.199C1025.86 108.161 1026.29 108.12 1026.71 108.071L1030.23 111.851C1030.59 112.235 1031.12 112.407 1031.63 112.303C1032.15 112.202 1032.57 111.84 1032.75 111.35L1034.55 106.52C1034.97 106.4 1035.39 106.272 1035.8 106.141L1039.98 109.151C1040.41 109.456 1040.96 109.521 1041.44 109.32C1041.93 109.121 1042.27 108.682 1042.36 108.16L1043.19 103.07C1043.57 102.871 1043.95 102.664 1044.33 102.457L1049.02 104.597C1049.49 104.815 1050.05 104.771 1050.49 104.48C1050.92 104.188 1051.18 103.693 1051.16 103.17L1050.98 98C1051.31 97.733 1051.64 97.464 1051.97 97.186L1057 98.366C1057.51 98.486 1058.05 98.337 1058.42 97.964C1058.79 97.593 1058.94 97.06 1058.82 96.554L1057.64 91.524C1057.92 91.197 1058.19 90.868 1058.46 90.532L1063.63 90.713C1064.15 90.734 1064.65 90.479 1064.94 90.042C1065.23 89.606 1065.27 89.051 1065.05 88.572L1062.91 83.882C1063.12 83.503 1063.33 83.123 1063.53 82.742L1068.62 81.914C1069.13 81.831 1069.57 81.485 1069.77 81C1069.97 80.517 1069.9 79.96 1069.6 79.54L1066.59 75.36C1066.72 74.947 1066.84 74.532 1066.96 74.11L1071.79 72.31C1072.28 72.126 1072.65 71.703 1072.75 71.19C1072.85 70.676 1072.68 70.15 1072.29 69.79L1068.51 66.27C1068.56 65.845 1068.6 65.417 1068.64 64.99L1073.03 62.27C1073.47 61.996 1073.75 61.509 1073.75 60.99C1073.75 60.471 1073.48 59.98 1073.03 59.7H1073ZM1043.6 96.2C1041.92 95.838 1040.86 94.18 1041.22 92.5C1041.58 90.82 1043.23 89.75 1044.91 90.11C1046.59 90.469 1047.66 92.13 1047.3 93.81C1046.94 95.49 1045.29 96.56 1043.61 96.2H1043.6ZM1042.11 86.1C1040.58 85.772 1039.07 86.746 1038.75 88.28L1037.19 95.56C1032.38 97.74 1026.99 98.96 1021.39 98.96C1015.63 98.96 1010.19 97.69 1005.29 95.41L1003.73 88.13C1003.4 86.6 1001.9 85.62 1000.37 85.95L993.94 87.33C992.75 86.1 991.64 84.79 990.62 83.41H1021.92C1022.27 83.41 1022.51 83.346 1022.51 83.024V71.924C1022.51 71.602 1022.27 71.538 1021.92 71.538H1012.77V64.528H1022.66C1023.56 64.528 1027.49 64.786 1028.74 69.808C1029.13 71.348 1030 76.368 1030.59 77.978C1031.18 79.778 1033.57 83.378 1036.12 83.378H1051.72C1051.9 83.378 1052.09 83.358 1052.28 83.322C1051.2 84.792 1050.01 86.182 1048.74 87.482L1042.16 86.072L1042.11 86.1ZM998.81 96.05C997.13 96.412 995.48 95.342 995.12 93.66C994.761 91.98 995.828 90.32 997.51 89.96C999.19 89.601 1000.84 90.671 1001.2 92.35C1001.56 94.03 1000.49 95.69 998.81 96.05ZM986.91 47.95C987.606 49.52 986.898 51.36 985.33 52.06C983.76 52.757 981.93 52.048 981.23 50.48C980.53 48.912 981.242 47.07 982.81 46.37C984.38 45.674 986.21 46.382 986.91 47.95ZM983.26 56.59L989.96 53.61C991.39 52.975 992.04 51.3 991.4 49.87L990.02 46.75H995.44V71.15H984.54C983.591 67.81 983.08 64.29 983.08 60.65C983.08 59.26 983.155 57.89 983.299 56.54L983.26 56.59ZM1012.66 54.22V47.02H1025.56C1026.23 47.02 1030.27 47.791 1030.27 50.81C1030.27 53.32 1027.17 54.22 1024.62 54.22H1012.62H1012.66ZM1059.56 60.7C1059.56 61.656 1059.52 62.6 1059.45 63.54H1055.52C1055.13 63.54 1054.97 63.798 1054.97 64.183V65.983C1054.97 70.223 1052.58 71.153 1050.48 71.383C1048.48 71.608 1046.27 70.547 1046 69.323C1044.82 62.693 1042.86 61.283 1039.76 58.823C1043.61 56.383 1047.61 52.773 1047.61 47.923C1047.61 42.713 1044.04 39.433 1041.61 37.823C1038.19 35.573 1034.41 35.123 1033.39 35.123H992.794C998.304 28.983 1005.79 24.623 1014.19 23.023L1018.98 28.043C1020.06 29.173 1021.85 29.223 1022.99 28.135L1028.35 23.015C1039.55 25.105 1049.05 32.085 1054.55 41.715L1050.88 49.995C1050.25 51.425 1050.9 53.105 1052.32 53.735L1059.38 56.875C1059.51 58.125 1059.57 59.395 1059.57 60.675L1059.56 60.7ZM1018.96 18.8C1020.2 17.61 1022.17 17.66 1023.35 18.901C1024.53 20.141 1024.49 22.111 1023.25 23.301C1022.01 24.491 1020.04 24.441 1018.86 23.199C1017.68 21.959 1017.72 19.989 1018.96 18.799V18.8ZM1055.36 48.1C1056.05 46.53 1057.89 45.82 1059.46 46.52C1061.03 47.216 1061.74 49.06 1061.04 50.63C1060.34 52.2 1058.51 52.91 1056.94 52.21C1055.37 51.514 1054.66 49.67 1055.36 48.1Z" stroke="white" stroke-width="4" mask="url(#path-7-outside-2)"/>
<g clip-path="url(#clip1)">
<path d="M1122.34 92.2563L1121.4 91.2821C1121.39 91.2373 1121.38 91.1926 1121.37 91.1484C1120.94 89.8363 1119.17 89.0747 1116.56 88.8595L1116.83 89.6646C1116.57 89.6492 1116.31 89.6392 1116.04 89.6353L1115.92 89.26C1112.25 89.1532 1107.12 90.0048 1101.66 91.7946C1096.9 93.3584 1092.75 95.3522 1089.85 97.3379L1090.28 98.6454L1090.28 98.6454L1089.76 97.0629C1086.82 99.1843 1085.26 101.303 1085.79 102.906C1085.87 103.159 1086 103.391 1086.18 103.603L1086.04 104.308C1086.04 104.308 1085.89 104.744 1086.6 105.323C1087.23 105.833 1090.15 107.681 1091.68 108.646C1092.38 109.171 1092.84 109.485 1092.85 109.435C1092.87 109.356 1092.12 108.191 1090.7 107.042C1090 106.404 1089.14 105.539 1088.58 104.877C1089.64 105.144 1095.64 106.048 1106.14 102.59C1116.88 99.0565 1120.55 94.1291 1120.92 93.4996C1120.98 94.2951 1120.84 95.9882 1120.69 97.1983C1120.36 98.9637 1120.49 100.364 1120.55 100.416C1120.59 100.449 1120.72 99.9255 1120.91 99.0911C1121.42 97.4088 1122.38 94.2017 1122.52 93.4175C1122.69 92.5286 1122.34 92.2563 1122.34 92.2563Z" fill="#A52B00"/>
<path d="M1125.58 91.1828L1121.02 89.6824C1120.94 89.5733 1120.87 89.4643 1120.8 89.3565L1121.43 87.2132C1121.49 86.995 1121.44 86.7558 1121.3 86.5793C1121.15 86.4039 1120.93 86.3168 1120.71 86.3493L1118.56 86.6723C1118.42 86.537 1118.29 86.4053 1118.15 86.2751L1118.37 84.0318C1118.39 83.8031 1118.29 83.5769 1118.12 83.4338C1117.94 83.2898 1117.71 83.2482 1117.5 83.3256L1115.46 84.08C1115.3 83.9756 1115.15 83.873 1114.99 83.7737L1114.78 81.5146C1114.76 81.2853 1114.62 81.0817 1114.42 80.9754C1114.22 80.8693 1113.99 80.8758 1113.8 80.993L1111.95 82.1502C1111.78 82.0777 1111.61 82.0074 1111.44 81.9398L1110.8 79.757C1110.74 79.5359 1110.57 79.3617 1110.35 79.2977C1110.14 79.2331 1109.91 79.2875 1109.75 79.4409L1108.16 80.9524C1107.98 80.9152 1107.8 80.8791 1107.62 80.8463L1106.59 78.8279C1106.48 78.6235 1106.29 78.4858 1106.06 78.4659C1105.84 78.4454 1105.63 78.5454 1105.5 78.7291L1104.24 80.5377C1104.05 80.5371 1103.87 80.5389 1103.69 80.5437L1102.3 78.7634C1102.16 78.5818 1101.94 78.4864 1101.72 78.5117C1101.5 78.5373 1101.31 78.6781 1101.22 78.8846L1100.33 80.9271C1100.15 80.9634 1099.98 81.0016 1099.8 81.0429L1098.11 79.564C1097.94 79.4142 1097.7 79.365 1097.49 79.434C1097.28 79.5027 1097.12 79.6801 1097.08 79.902L1096.59 82.0963C1096.42 82.1673 1096.26 82.2415 1096.09 82.317L1094.16 81.2009C1093.97 81.0882 1093.73 81.0866 1093.54 81.1961C1093.35 81.3069 1093.23 81.5131 1093.22 81.7427L1093.16 83.9975C1093.01 84.1028 1092.86 84.2102 1092.71 84.3189L1090.62 83.6106C1090.41 83.5382 1090.18 83.5838 1090.01 83.7319C1089.85 83.879 1089.77 84.1078 1089.81 84.3343L1090.17 86.5709C1090.04 86.7047 1089.92 86.8403 1089.8 86.9775L1087.62 86.7002C1087.4 86.6719 1087.18 86.7638 1087.05 86.9429C1086.92 87.1215 1086.88 87.3627 1086.96 87.5786L1087.74 89.7139C1087.64 89.8695 1087.55 90.0268 1087.46 90.1852L1085.28 90.351C1085.06 90.3684 1084.86 90.5025 1084.76 90.7057C1084.67 90.9097 1084.68 91.1531 1084.8 91.3509L1085.96 93.2981C1085.9 93.4705 1085.83 93.6441 1085.77 93.8187L1083.68 94.4227C1083.47 94.485 1083.3 94.6548 1083.24 94.8754C1083.19 95.0952 1083.25 95.3333 1083.4 95.5045L1084.9 97.1852C1084.87 97.3701 1084.84 97.556 1084.81 97.7435L1082.88 98.7588C1082.69 98.8618 1082.56 99.0636 1082.55 99.2924C1082.53 99.5213 1082.64 99.7438 1082.82 99.8815L1084.6 101.233C1084.6 101.267 1084.6 101.301 1084.6 101.335L1082.38 106.078C1082.38 106.078 1081.99 106.659 1083.07 107.372C1084.01 108.002 1088.57 110.238 1090.96 111.405C1092.03 112.049 1092.74 112.43 1092.78 112.364C1092.84 112.26 1091.85 110.78 1089.71 109.365C1087.98 108.032 1085.59 105.891 1085.85 105.471C1085.85 105.471 1086.09 104.825 1086.78 104.19C1086.81 104.204 1086.74 104.177 1086.78 104.19C1086.78 104.19 1106.47 106.469 1119.8 93.5043C1121.5 92.5843 1122.92 93.1954 1122.92 93.1954C1123.37 93.2906 1123.28 96.3248 1123.06 98.3849C1122.64 100.784 1123 102.427 1123.11 102.452C1123.18 102.468 1123.38 101.73 1123.63 100.578C1124.39 98.1614 1125.82 93.5624 1126.01 92.4973C1126.22 91.2899 1125.58 91.1828 1125.58 91.1828Z" fill="#F74C00"/>
<path d="M1117.78 92.6205C1117.78 92.6205 1120.2 91.6987 1122.36 87.3516L1122.48 86.184C1122.48 86.184 1115.83 82.8383 1122.5 76.833C1122.5 76.833 1122.18 78.1732 1123.8 82.4197C1123.8 82.4197 1125.88 80.831 1125.32 76.7957C1125.32 76.7957 1130.23 80.1935 1124.47 86.7842C1124.47 86.7842 1122.88 93.2686 1117.98 94.306L1117.78 92.6205Z" fill="#F74C00"/>
<path d="M1105.6 93.1806C1105.6 93.1806 1106.7 90.7476 1109.02 92.0588C1109.02 92.0588 1111.19 94.1142 1110.25 95.8029C1110.25 95.8029 1108.63 98.2713 1106.83 96.9247C1106.83 96.9247 1104.92 96.0326 1105.6 93.1806Z" fill="black"/>
<path d="M1107.82 93.2202C1108.06 93.949 1107.82 94.681 1107.29 94.8549C1106.76 95.0287 1106.14 94.5787 1105.9 93.8498C1105.66 93.1208 1105.9 92.3888 1106.43 92.215C1106.96 92.0411 1107.58 92.4911 1107.82 93.2202Z" fill="white"/>
<path d="M1097.81 95.1691C1097.81 95.1691 1100.31 92.9085 1102.06 95.5441C1102.06 95.5441 1104.01 98.6472 1100.83 99.9031C1100.83 99.9031 1096.42 100.464 1097.81 95.1691Z" fill="black"/>
<path d="M1099.69 95.9471C1099.94 96.6988 1099.7 97.4538 1099.15 97.6331C1098.6 97.8124 1097.96 97.3482 1097.71 96.5965C1097.47 95.8446 1097.71 95.0897 1098.26 94.9104C1098.8 94.7311 1099.45 95.1952 1099.69 95.9471Z" fill="white"/>
<path d="M1103.64 100.295L1107.28 98.7679C1107.28 98.7679 1107.35 99.4115 1107.01 100.023C1107.01 100.023 1106.19 101.856 1104.21 100.812C1104.21 100.812 1103.89 100.631 1103.64 100.295Z" fill="black"/>
<path d="M1087.54 101.741C1087.51 101.751 1087.48 101.763 1087.45 101.775C1086.14 101.897 1082.44 102.128 1081.06 100.98C1081.06 100.98 1083.94 94.2489 1075.67 93.2645L1078.4 98.7707C1078.4 98.7707 1075.7 98.0179 1074.17 94.9623C1074.17 94.9623 1070.06 100.641 1079.06 101.841C1079.06 101.841 1080.63 104.257 1088.09 104.15L1088.09 104.129C1088.16 104.119 1088.23 104.103 1088.3 104.08C1088.94 103.87 1089.29 103.177 1089.08 102.53C1088.87 101.884 1088.18 101.531 1087.54 101.741Z" fill="#F74C00"/>
</g>
<path d="M757.016 104L742.976 83.72H742.144H727.48V104H710.632V31.2H742.144C748.592 31.2 754.173 32.2746 758.888 34.424C763.672 36.5733 767.347 39.624 769.912 43.576C772.477 47.528 773.76 52.208 773.76 57.616C773.76 63.024 772.443 67.704 769.808 71.656C767.243 75.5386 763.568 78.52 758.784 80.6L775.112 104H757.016ZM756.704 57.616C756.704 53.5253 755.387 50.4053 752.752 48.256C750.117 46.0373 746.269 44.928 741.208 44.928H727.48V70.304H741.208C746.269 70.304 750.117 69.1946 752.752 66.976C755.387 64.7573 756.704 61.6373 756.704 57.616Z" fill="black"/>
<path d="M838.173 48.048V104H822.781V97.344C820.631 99.7706 818.066 101.643 815.085 102.96C812.103 104.208 808.879 104.832 805.413 104.832C798.063 104.832 792.239 102.717 787.941 98.488C783.642 94.2586 781.493 87.984 781.493 79.664V48.048H797.717V77.272C797.717 86.2853 801.495 90.792 809.053 90.792C812.935 90.792 816.055 89.5439 818.413 87.048C820.77 84.4826 821.949 80.704 821.949 75.712V48.048H838.173Z" fill="black"/>
<path d="M867.867 104.832C863.222 104.832 858.68 104.277 854.243 103.168C849.806 101.989 846.27 100.533 843.635 98.8L849.043 87.152C851.539 88.7466 854.555 90.0639 858.091 91.104C861.627 92.0746 865.094 92.56 868.491 92.56C875.355 92.56 878.787 90.8613 878.787 87.464C878.787 85.8693 877.851 84.7253 875.979 84.032C874.107 83.3386 871.23 82.7493 867.347 82.264C862.771 81.5706 858.992 80.7733 856.011 79.872C853.03 78.9706 850.43 77.376 848.211 75.088C846.062 72.8 844.987 69.5413 844.987 65.312C844.987 61.776 845.992 58.656 848.003 55.952C850.083 53.1786 853.064 51.0293 856.947 49.504C860.899 47.9786 865.544 47.216 870.883 47.216C874.835 47.216 878.752 47.6666 882.635 48.5679C886.587 49.4 889.846 50.5786 892.411 52.104L887.003 63.648C882.08 60.8746 876.707 59.488 870.883 59.488C867.416 59.488 864.816 59.9733 863.083 60.944C861.35 61.9146 860.483 63.1626 860.483 64.688C860.483 66.4213 861.419 67.6346 863.291 68.3279C865.163 69.0213 868.144 69.68 872.235 70.304C876.811 71.0666 880.555 71.8986 883.467 72.7999C886.379 73.632 888.91 75.192 891.059 77.4799C893.208 79.768 894.283 82.9573 894.283 87.048C894.283 90.5146 893.243 93.6 891.163 96.304C889.083 99.008 886.032 101.123 882.011 102.648C878.059 104.104 873.344 104.832 867.867 104.832Z" fill="black"/>
<path d="M936.221 101.296C934.626 102.475 932.65 103.376 930.293 104C928.005 104.555 925.578 104.832 923.013 104.832C916.357 104.832 911.192 103.133 907.517 99.736C903.912 96.3386 902.109 91.3466 902.109 84.76V61.776H893.477V49.296H902.109V35.672H918.333V49.296H932.269V61.776H918.333V84.552C918.333 86.9093 918.922 88.7466 920.101 90.064C921.349 91.312 923.082 91.936 925.301 91.936C927.866 91.936 930.05 91.2426 931.853 89.856L936.221 101.296Z" fill="black"/>
<path fill-rule="evenodd" clip-rule="evenodd" d="M754.92 108L740.88 87.72H731.48V108H706.632V27.2H742.144C749.024 27.2 755.193 28.3454 760.537 30.7796C765.936 33.2071 770.239 36.7323 773.267 41.3981C775.56 44.9306 776.947 48.8994 777.493 53.2329V44.048H801.717V77.272C801.717 81.317 802.579 83.6057 803.616 84.8419C804.539 85.9432 806.094 86.792 809.053 86.792C811.981 86.792 813.988 85.8967 815.485 84.3216C816.911 82.7575 817.949 80.114 817.949 75.712V44.048H842.173V58.3986C842.797 56.6919 843.669 55.0764 844.793 53.5651L844.798 53.5585L844.803 53.552C847.411 50.0743 851.052 47.5221 855.484 45.7809L855.496 45.7766L855.507 45.7723C860.021 44.0301 865.175 43.216 870.883 43.216C875.129 43.216 879.336 43.6989 883.5 44.6623C885.633 45.1131 887.631 45.6687 889.477 46.3411V45.296H898.109V31.672H922.333V45.296H936.269V65.776H922.333V84.552C922.333 86.137 922.695 86.9138 923.01 87.3116C923.348 87.6103 923.97 87.936 925.301 87.936C927.103 87.936 928.399 87.4661 929.414 86.6855L933.673 83.4093L941.042 102.707L938.599 104.513C936.516 106.052 934.054 107.142 931.317 107.867L931.276 107.877L931.235 107.887C928.613 108.523 925.868 108.832 923.013 108.832C915.69 108.832 909.432 106.954 904.802 102.673L904.788 102.66L904.774 102.647C900.849 98.9486 898.8 93.9518 898.258 88.084C898.062 92.0115 896.75 95.6016 894.334 98.7428C891.697 102.17 887.965 104.668 883.43 106.388L883.412 106.395L883.394 106.401C878.888 108.061 873.682 108.832 867.867 108.832C862.9 108.832 858.033 108.238 853.273 107.049L853.245 107.041L853.216 107.034C848.895 105.886 845.172 104.437 842.173 102.608V108H818.781V105.592C818.107 105.961 817.414 106.304 816.701 106.619L816.665 106.635L816.629 106.65C813.124 108.117 809.371 108.832 805.413 108.832C797.258 108.832 790.34 106.46 785.135 101.339C779.819 96.1091 777.493 88.6397 777.493 79.664V61.9493C776.937 66.3183 775.507 70.3159 773.141 73.8678C770.951 77.1798 768.101 79.8951 764.661 82.0328L782.781 108H754.92ZM758.784 80.6C760.058 80.0462 761.253 79.4287 762.369 78.7472C765.446 76.8688 767.926 74.505 769.808 71.656C772.443 67.7039 773.76 63.024 773.76 57.616C773.76 52.208 772.477 47.528 769.912 43.576C767.347 39.624 763.672 36.5733 758.888 34.424C754.173 32.2746 748.592 31.2 742.144 31.2H710.632V104H727.48V83.72H742.976L757.016 104H775.112L758.784 80.6ZM818.781 100.897C820.244 99.8867 821.578 98.7022 822.781 97.344V104H838.173V48.048H821.949V75.712C821.949 80.704 820.77 84.4826 818.413 87.048C816.055 89.544 812.935 90.792 809.053 90.792C801.495 90.792 797.717 86.2853 797.717 77.272V48.048H781.493V79.664C781.493 87.984 783.642 94.2586 787.941 98.488C792.239 102.717 798.063 104.832 805.413 104.832C808.879 104.832 812.103 104.208 815.085 102.96C816.397 102.38 817.629 101.692 818.781 100.897ZM842.173 92.4511L847.342 81.3182L851.197 83.7812C853.301 85.1255 855.942 86.2997 859.185 87.2562C862.391 88.1332 865.49 88.56 868.491 88.56C871.683 88.56 873.509 88.1493 874.406 87.7169C872.954 87.2097 870.502 86.6895 866.851 86.2331L866.799 86.2266L866.748 86.2188C862.064 85.5092 858.082 84.677 854.854 83.7008C851.206 82.598 848.02 80.6368 845.339 77.8725L845.317 77.8498L845.296 77.8267C843.891 76.3318 842.868 74.6019 842.173 72.6949V92.4511ZM858.091 91.104C856.082 90.5129 854.24 89.8323 852.566 89.0621C851.295 88.4771 850.121 87.8404 849.043 87.152L843.635 98.8C846.27 100.533 849.806 101.989 854.243 103.168C858.68 104.277 863.222 104.832 867.867 104.832C873.344 104.832 878.059 104.104 882.011 102.648C886.032 101.123 889.083 99.008 891.163 96.304C893.243 93.6 894.283 90.5146 894.283 87.048C894.283 82.9573 893.208 79.768 891.059 77.4799C888.91 75.192 886.379 73.632 883.467 72.7999C880.555 71.8986 876.811 71.0666 872.235 70.304C868.144 69.68 865.163 69.0213 863.291 68.3279C861.419 67.6346 860.483 66.4213 860.483 64.688C860.483 63.1626 861.35 61.9146 863.083 60.944C864.816 59.9733 867.416 59.488 870.883 59.488C875.318 59.488 879.492 60.2921 883.405 61.9005C884.63 62.4041 885.829 62.9866 887.003 63.648L892.411 52.104C891.517 51.5725 890.539 51.0831 889.477 50.6358C887.491 49.7993 885.21 49.1101 882.635 48.5679C878.752 47.6666 874.835 47.216 870.883 47.216C865.544 47.216 860.899 47.9786 856.947 49.504C853.064 51.0293 850.083 53.1786 848.003 55.952C845.992 58.656 844.987 61.776 844.987 65.312C844.987 69.5413 846.062 72.7999 848.211 75.088C850.43 77.376 853.03 78.9706 856.011 79.872C858.992 80.7733 862.771 81.5706 867.347 82.264C871.23 82.7493 874.107 83.3386 875.979 84.032C877.851 84.7253 878.787 85.8693 878.787 87.464C878.787 90.8613 875.355 92.56 868.491 92.56C865.094 92.56 861.627 92.0746 858.091 91.104ZM890.423 65.776L888.796 69.2493L885.04 67.1329C880.735 64.7079 876.041 63.488 870.883 63.488C867.659 63.488 865.88 63.9622 865.037 64.434C864.927 64.4961 864.834 64.5535 864.757 64.6052C866.242 65.1424 868.864 65.7434 872.838 66.3497L872.865 66.3539L872.893 66.3584C877.545 67.1338 881.468 67.997 884.609 68.9663C888.224 70.0073 891.36 71.9582 893.974 74.7412C896.372 77.293 897.669 80.4993 898.109 84.0926V65.776H890.423ZM902.109 61.776V84.76C902.109 91.3466 903.912 96.3386 907.517 99.736C911.192 103.133 916.357 104.832 923.013 104.832C925.578 104.832 928.005 104.555 930.293 104C932.65 103.376 934.626 102.475 936.221 101.296L931.853 89.856C930.782 90.6801 929.576 91.2593 928.235 91.5936C927.32 91.8218 926.342 91.936 925.301 91.936C923.082 91.936 921.349 91.312 920.101 90.064C918.922 88.7466 918.333 86.9093 918.333 84.552V61.776H932.269V49.296H918.333V35.672H902.109V49.296H893.477V61.776H902.109ZM750.199 51.3357L750.176 51.3156C748.534 49.9333 745.757 48.928 741.208 48.928H731.48V66.304H741.208C745.757 66.304 748.534 65.2986 750.176 63.9163C751.752 62.5885 752.704 60.6769 752.704 57.616C752.704 54.457 751.736 52.5894 750.224 51.3554L750.199 51.3357ZM741.208 70.304C746.269 70.304 750.117 69.1946 752.752 66.976C755.387 64.7573 756.704 61.6373 756.704 57.616C756.704 53.5253 755.387 50.4053 752.752 48.256C750.117 46.0373 746.269 44.928 741.208 44.928H727.48V70.304H741.208Z" fill="white"/>
</g>
<defs>
<linearGradient id="paint0_linear" x1="163.17" y1="48.092" x2="150.442" y2="35.3641" gradientUnits="userSpaceOnUse">
<stop stop-color="#033049"/>
<stop offset="1" stop-color="#00C2FF"/>
</linearGradient>
<clipPath id="clip0">
<rect width="1131" height="118" fill="white"/>
</clipPath>
<clipPath id="clip1">
<rect width="58.4591" height="58.4591" fill="white" transform="translate(1065 75.2236) rotate(-18.1638)"/>
</clipPath>
</defs>
</svg>
