<svg width="1299" height="95" viewBox="0 0 1299 95" fill="none" xmlns="http://www.w3.org/2000/svg">
<path d="M26.264 89.728H27.6014L28.1123 88.492L34.0494 74.128H65.1746L71.1117 88.492L71.6226 89.728H72.96H90.64H93.7251L92.4658 86.9116L59.9138 14.1116L59.3845 12.928H58.088H41.448H40.1498L39.6212 14.1138L7.17324 86.9138L5.9189 89.728H9H26.264ZM129.658 86.6323L130.879 85.7295L130.338 84.3106L125.97 72.8706L125.011 70.3607L122.882 71.9987C121.473 73.0824 119.733 73.664 117.549 73.664C115.748 73.664 114.585 73.1767 113.803 72.4167C113.069 71.5727 112.581 70.2789 112.581 68.28V47.504H124.517H126.517V45.504V33.024V31.024H124.517H112.581V19.4V17.4H110.581H94.3572H92.3572V19.4V31.024H85.7252H83.7252V33.024V45.504V47.504H85.7252H92.3572V68.488C92.3572 75.4361 94.2674 81.0315 98.3936 84.9196L98.4005 84.9261L98.4075 84.9325C102.56 88.7715 108.272 90.56 115.261 90.56C117.971 90.56 120.557 90.2669 123.012 89.6717L123.033 89.6668L123.053 89.6614C125.6 88.9872 127.819 87.9913 129.658 86.6323ZM290.214 89.728H292.214V87.728V55.696C292.214 47.1416 290.058 40.3694 285.389 35.77C280.85 31.1606 274.752 28.944 267.334 28.944C262.912 28.944 258.781 29.7933 254.968 31.5128L254.961 31.5159L254.955 31.519C252.017 32.8704 249.456 34.6684 247.287 36.9101C245.386 34.6401 243.066 32.8452 240.341 31.5392C236.849 29.7965 232.972 28.944 228.75 28.944C224.91 28.944 221.322 29.6097 218.009 30.9649L218.002 30.968L217.994 30.9711C216.251 31.7007 214.643 32.6075 213.174 33.6907V31.776V29.776H211.174H195.678H193.678V31.776V87.728V89.728H195.678H211.902H213.902V87.728V59.648C213.902 55.0608 214.955 51.9935 216.706 50.0775L216.716 50.0672L216.725 50.0567C218.516 48.0421 220.925 46.984 224.174 46.984C227.272 46.984 229.276 47.9264 230.571 49.5384C231.933 51.234 232.782 54.0044 232.782 58.192V87.728V89.728H234.782H251.006H253.006V87.728V59.648C253.006 55.0608 254.059 51.9935 255.81 50.0775L255.82 50.0672L255.829 50.0567C257.613 48.0505 260.051 46.984 263.382 46.984C266.304 46.984 268.28 47.9117 269.63 49.5732L269.652 49.5997L269.674 49.6255C271.094 51.2552 271.99 53.9809 271.99 58.192V87.728V89.728H273.99H290.214ZM300.596 29.776H298.596V31.776V87.728V89.728H300.596H316.82H318.82V87.728V31.776V29.776H316.82H300.596ZM337.702 86.6876L337.717 86.6957L337.733 86.7036C342.827 89.2878 348.516 90.56 354.758 90.56C360.937 90.56 366.419 89.2498 371.136 86.5558C375.924 83.8614 379.45 80.0826 381.643 75.2414L382.41 73.5496L380.779 72.6602L368.195 65.7962L366.451 64.8448L365.488 66.5827C364.202 68.9039 362.666 70.5475 360.916 71.6178C359.172 72.6846 357.107 73.248 354.654 73.248C350.909 73.248 347.931 72.0408 345.564 69.6738C343.245 67.355 341.99 64.1297 341.99 59.752C341.99 55.3743 343.245 52.149 345.564 49.8302C347.931 47.4632 350.909 46.256 354.654 46.256C359.346 46.256 362.908 48.3755 365.498 52.9392L366.463 54.6385L368.184 53.7139L380.768 46.9539L382.396 46.0793L381.653 44.3874C379.465 39.4077 375.937 35.5778 371.126 32.9423C366.411 30.2523 360.932 28.944 354.758 28.944C348.509 28.944 342.814 30.254 337.716 32.9129C332.693 35.4999 328.709 39.1423 325.809 43.8273L325.803 43.8371L325.797 43.847C322.958 48.5538 321.558 53.8741 321.558 59.752C321.558 65.6298 322.958 70.9502 325.797 75.657L325.803 75.6669L325.809 75.6767C328.708 80.3586 332.686 84.0321 337.702 86.6876ZM49.664 36.6906L58.2149 57.336H41.1131L49.664 36.6906Z" fill="black" stroke="white" stroke-width="4"/>
<mask id="path-2-outside-1" maskUnits="userSpaceOnUse" x="124.806" y="24.728" width="68" height="68" fill="black">
<rect fill="white" x="124.806" y="24.728" width="68" height="68"/>
<path fill-rule="evenodd" clip-rule="evenodd" d="M146.633 31.3006C148.483 36.2244 153.235 39.728 158.806 39.728C164.376 39.728 169.128 36.2244 170.979 31.3006C181.482 35.969 188.806 46.4932 188.806 58.728C188.806 75.2966 175.374 88.728 158.806 88.728C142.237 88.728 128.806 75.2966 128.806 58.728C128.806 46.4932 136.13 35.969 146.633 31.3006ZM150.39 29.9245C151.679 33.3171 154.961 35.728 158.806 35.728C162.65 35.728 165.932 33.3171 167.221 29.9245C164.551 29.1457 161.727 28.728 158.806 28.728C155.884 28.728 153.06 29.1457 150.39 29.9245ZM172.806 58.728C172.806 66.46 166.538 72.728 158.806 72.728C151.074 72.728 144.806 66.46 144.806 58.728C144.806 50.996 151.074 44.728 158.806 44.728C166.538 44.728 172.806 50.996 172.806 58.728Z"/>
</mask>
<path fill-rule="evenodd" clip-rule="evenodd" d="M146.633 31.3006C148.483 36.2244 153.235 39.728 158.806 39.728C164.376 39.728 169.128 36.2244 170.979 31.3006C181.482 35.969 188.806 46.4932 188.806 58.728C188.806 75.2966 175.374 88.728 158.806 88.728C142.237 88.728 128.806 75.2966 128.806 58.728C128.806 46.4932 136.13 35.969 146.633 31.3006ZM150.39 29.9245C151.679 33.3171 154.961 35.728 158.806 35.728C162.65 35.728 165.932 33.3171 167.221 29.9245C164.551 29.1457 161.727 28.728 158.806 28.728C155.884 28.728 153.06 29.1457 150.39 29.9245ZM172.806 58.728C172.806 66.46 166.538 72.728 158.806 72.728C151.074 72.728 144.806 66.46 144.806 58.728C144.806 50.996 151.074 44.728 158.806 44.728C166.538 44.728 172.806 50.996 172.806 58.728Z" fill="black"/>
<path d="M146.633 31.3006L150.377 29.8934L148.885 25.9223L145.008 27.6454L146.633 31.3006ZM170.979 31.3006L172.603 27.6454L168.727 25.9223L167.234 29.8934L170.979 31.3006ZM150.39 29.9245L149.27 26.0845L145.112 27.2972L146.651 31.3455L150.39 29.9245ZM167.221 29.9245L170.961 31.3455L172.499 27.2972L168.342 26.0845L167.221 29.9245ZM158.806 35.728C154.955 35.728 151.66 33.3085 150.377 29.8934L142.888 32.7077C145.306 39.1402 151.515 43.728 158.806 43.728V35.728ZM167.234 29.8934C165.951 33.3085 162.656 35.728 158.806 35.728V43.728C166.096 43.728 172.306 39.1402 174.723 32.7077L167.234 29.8934ZM192.806 58.728C192.806 44.8557 184.498 32.9325 172.603 27.6454L169.354 34.9557C178.465 39.0055 184.806 48.1307 184.806 58.728H192.806ZM158.806 92.728C177.583 92.728 192.806 77.5057 192.806 58.728H184.806C184.806 73.0874 173.165 84.728 158.806 84.728V92.728ZM124.806 58.728C124.806 77.5057 140.028 92.728 158.806 92.728V84.728C144.446 84.728 132.806 73.0874 132.806 58.728H124.806ZM145.008 27.6454C133.113 32.9325 124.806 44.8557 124.806 58.728H132.806C132.806 48.1307 139.146 39.0055 148.257 34.9557L145.008 27.6454ZM146.651 31.3455C148.511 36.2394 153.246 39.728 158.806 39.728V31.728C156.676 31.728 154.848 30.3948 154.129 28.5036L146.651 31.3455ZM158.806 39.728C164.366 39.728 169.101 36.2394 170.961 31.3455L163.482 28.5036C162.764 30.3948 160.935 31.728 158.806 31.728V39.728ZM168.342 26.0845C165.311 25.2006 162.11 24.728 158.806 24.728V32.728C161.344 32.728 163.791 33.0907 166.101 33.7645L168.342 26.0845ZM158.806 24.728C155.501 24.728 152.3 25.2006 149.27 26.0845L151.51 33.7645C153.82 33.0907 156.267 32.728 158.806 32.728V24.728ZM158.806 76.728C168.747 76.728 176.806 68.6692 176.806 58.728H168.806C168.806 64.2509 164.329 68.728 158.806 68.728V76.728ZM140.806 58.728C140.806 68.6692 148.865 76.728 158.806 76.728V68.728C153.283 68.728 148.806 64.2509 148.806 58.728H140.806ZM158.806 40.728C148.865 40.728 140.806 48.7869 140.806 58.728H148.806C148.806 53.2052 153.283 48.728 158.806 48.728V40.728ZM176.806 58.728C176.806 48.7869 168.747 40.728 158.806 40.728V48.728C164.329 48.728 168.806 53.2052 168.806 58.728H176.806Z" fill="white" mask="url(#path-2-outside-1)"/>
<path d="M151.028 18.9499C146.732 23.2456 146.732 30.2104 151.028 34.5062C155.323 38.802 162.288 38.802 166.584 34.5062C168.907 32.1829 169.974 29.0757 169.784 26.0401C169.623 23.4603 168.556 20.9215 166.584 18.9499C162.288 14.6541 155.323 14.6541 151.028 18.9499Z" fill="url(#paint0_linear)" stroke="white" stroke-width="4"/>
<path d="M424.806 12.928H422.806V14.928V87.728V89.728H424.806H457.878C466.036 89.728 473.316 88.1883 479.668 85.049L479.676 85.0448C486.089 81.8385 491.094 77.3267 494.63 71.5103C498.245 65.6786 500.022 58.9276 500.022 51.328C500.022 43.7284 498.245 36.9773 494.63 31.1456C491.094 25.3289 486.087 20.8503 479.672 17.7131C473.319 14.5029 466.037 12.928 457.878 12.928H424.806ZM473.035 36.3448L473.047 36.3562L473.059 36.3674C476.946 39.9457 478.966 44.8511 478.966 51.328C478.966 57.804 476.946 62.7526 473.047 66.4042C469.201 70.001 463.944 71.896 457.046 71.896H443.654V30.76H457.046C463.935 30.76 469.188 32.6844 473.035 36.3448ZM534.166 48.2601C535.404 49.3385 536.238 50.8236 536.557 52.864H525.808C517.451 52.864 510.864 54.3743 506.403 57.7393L506.396 57.7445L506.389 57.7497C501.979 61.1361 499.784 65.8313 499.784 71.608C499.784 75.2263 500.713 78.5213 502.602 81.4324C504.495 84.3506 507.194 86.5943 510.61 88.1883L510.617 88.1919L510.625 88.1954C514.127 89.7941 518.166 90.56 522.688 90.56C528.932 90.56 534.044 89.15 537.744 86.137V87.728V89.728H539.744H554.928H556.928V87.728V55.8C556.928 47.1167 554.494 40.2772 549.287 35.6882C544.154 31.0949 536.955 28.944 527.992 28.944C523.308 28.944 518.728 29.5567 514.255 30.7832L514.247 30.7854C509.835 32.0148 505.979 33.7671 502.712 36.069L501.29 37.0708L502.085 38.6179L507.909 49.9539L509.022 52.1207L510.93 50.607C512.722 49.1856 514.924 48.042 517.572 47.2024L517.586 47.198L517.6 47.1933C520.314 46.2886 523.047 45.84 525.808 45.84C529.845 45.84 532.5 46.7561 534.139 48.2362L534.152 48.2483L534.166 48.2601ZM602.728 86.6323L603.949 85.7295L603.407 84.3106L599.039 72.8706L598.081 70.3606L595.952 71.9987C594.543 73.0824 592.803 73.664 590.619 73.664C588.818 73.664 587.655 73.1766 586.873 72.4166C586.139 71.5727 585.651 70.2788 585.651 68.28V47.504H597.587H599.587V45.504V33.024V31.024H597.587H585.651V19.4V17.4H583.651H567.427H565.427V19.4V31.024H558.795H556.795V33.024V45.504V47.504H558.795H565.427V68.488C565.427 75.4361 567.337 81.0315 571.463 84.9196L571.47 84.9261L571.477 84.9325C575.63 88.7715 581.341 90.56 588.331 90.56C591.041 90.56 593.627 90.2669 596.082 89.6717L596.103 89.6667L596.123 89.6614C598.67 88.9871 600.889 87.9913 602.728 86.6323ZM635.229 48.2601C636.467 49.3385 637.301 50.8236 637.62 52.864H626.87C618.514 52.864 611.927 54.3743 607.466 57.7394L607.459 57.7445L607.452 57.7497C603.042 61.1361 600.846 65.8313 600.846 71.608C600.846 75.2263 601.776 78.5213 603.664 81.4324C605.557 84.3506 608.257 86.5943 611.673 88.1883L611.68 88.1919L611.688 88.1954C615.19 89.7941 619.228 90.56 623.75 90.56C629.995 90.56 635.107 89.15 638.806 86.137V87.728V89.728H640.806H655.99H657.99V87.728V55.8C657.99 47.117 655.557 40.2776 650.351 35.6887C645.217 31.095 638.018 28.944 629.054 28.944C624.371 28.944 619.79 29.5567 615.317 30.7832L615.309 30.7854C610.898 32.0148 607.042 33.7671 603.774 36.069L602.353 37.0708L603.147 38.6179L608.971 49.9539L610.085 52.1207L611.993 50.607C613.785 49.1856 615.987 48.042 618.635 47.2024L618.649 47.198L618.663 47.1933C621.377 46.2886 624.11 45.84 626.87 45.84C630.908 45.84 633.563 46.7561 635.202 48.2362L635.215 48.2483L635.229 48.2601ZM533.103 74.0504C531.297 75.0936 529.197 75.64 526.744 75.64C524.184 75.64 522.394 75.1129 521.179 74.2674C520.109 73.4151 519.592 72.3474 519.592 70.88C519.592 69.2922 520.146 68.3197 521.185 67.6381C522.37 66.8601 524.403 66.328 527.576 66.328H536.704V69.6832C535.942 71.6086 534.745 73.0382 533.103 74.0504ZM634.165 74.0504C632.36 75.0936 630.259 75.64 627.806 75.64C625.247 75.64 623.457 75.1129 622.241 74.2674C621.172 73.4151 620.654 72.3474 620.654 70.88C620.654 69.2922 621.209 68.3197 622.248 67.6381C623.433 66.8601 625.465 66.328 628.638 66.328H637.766V69.6832C637.005 71.6086 635.808 73.0382 634.165 74.0504Z" fill="black" stroke="white" stroke-width="4"/>
<path d="M1255.82 1H1180.18C1175.11 1 1171 5.10989 1171 10.1797V85.8203C1171 90.8901 1175.11 95 1180.18 95H1255.82C1260.89 95 1265 90.8901 1265 85.8203V10.1797C1265 5.10989 1260.89 1 1255.82 1Z" fill="#3178C6"/>
<path fill-rule="evenodd" clip-rule="evenodd" d="M1229.2 75.7227V84.9024C1230.69 85.6735 1232.5 86.2426 1234.52 86.6282C1236.54 87.0137 1238.75 87.1973 1240.95 87.1973C1243.15 87.1973 1245.17 86.9953 1247.19 86.5731C1249.21 86.1508 1250.86 85.4532 1252.33 84.5535C1253.82 83.5805 1255.09 82.3504 1255.82 80.6981C1256.55 79.0457 1257.12 77.2098 1257.12 74.8231C1257.12 73.1524 1256.87 71.702 1256.37 70.4168C1255.88 69.1317 1255.16 68.0301 1254.17 67.1121C1253.23 66.1391 1252.15 65.2762 1250.86 64.5418C1249.58 63.8075 1248.11 63.0364 1246.46 62.3387C1245.25 61.843 1244.25 61.3657 1243.15 60.8883C1242.2 60.411 1241.37 59.9336 1240.77 59.4563C1240.09 58.9606 1239.57 58.4465 1239.21 57.9141C1238.84 57.3633 1238.65 56.7575 1238.65 56.0782C1238.65 55.4539 1238.82 54.8848 1239.15 54.3707C1239.48 53.8567 1239.94 53.4344 1240.53 53.0672C1241.11 52.7 1241.85 52.4246 1242.73 52.2227C1243.59 52.0207 1244.55 51.9289 1245.67 51.9289C1246.44 51.9289 1247.25 51.9858 1248.05 52.1015C1248.9 52.2172 1249.76 52.3953 1250.62 52.6339C1251.49 52.8726 1252.33 53.1664 1253.19 53.5335C1254 53.9007 1254.76 54.323 1255.4 54.8003V46.1714C1254 45.639 1252.46 45.2351 1250.81 44.9781C1249.16 44.721 1247.32 44.5925 1245.12 44.5925C1242.91 44.5925 1240.89 44.8312 1238.87 45.2902C1236.86 45.7492 1235.2 46.4835 1233.73 47.4933C1232.25 48.4847 1231.16 49.6964 1230.25 51.3488C1229.38 52.891 1228.96 54.6535 1228.96 56.8566C1228.96 59.6105 1229.75 61.9972 1231.35 63.8332C1232.93 65.8527 1235.39 67.3214 1238.51 68.7902C1239.77 69.3042 1240.89 69.8183 1242 70.314C1243.1 70.8097 1244.02 71.3238 1244.75 71.8562C1245.54 72.3886 1246.16 72.9761 1246.59 73.6003C1247.04 74.2246 1247.28 74.9589 1247.28 75.8035C1247.28 76.391 1247.14 76.9417 1246.86 77.4558C1246.58 77.9699 1246.14 78.4105 1245.56 78.7777C1244.97 79.1449 1244.25 79.4386 1243.35 79.6589C1242.49 79.8609 1241.52 79.971 1240.23 79.971C1238.21 79.971 1236.19 79.6222 1234.36 78.9246C1232.34 78.2269 1230.5 77.1804 1228.85 75.8035L1229.2 75.7227ZM1213.78 53.1407H1225.53V45.6133H1192.66V53.1407H1204.41V86.7383H1213.78V53.1407Z" fill="white"/>
<mask id="path-8-outside-2" maskUnits="userSpaceOnUse" x="708.983" y="10.2" width="425" height="82" fill="black">
<rect fill="white" x="708.983" y="10.2" width="425" height="82"/>
<path d="M766.439 49.144C770.599 50.4613 773.858 52.6799 776.215 55.7999C778.572 58.8506 779.751 62.6293 779.751 67.136C779.751 73.5146 777.255 78.4373 772.263 81.904C767.34 85.3013 760.13 87 750.631 87H712.983V14.2H748.551C757.426 14.2 764.22 15.8986 768.935 19.296C773.719 22.6933 776.111 27.304 776.111 33.128C776.111 36.664 775.244 39.8186 773.511 42.592C771.847 45.3653 769.49 47.5493 766.439 49.144ZM729.727 26.888V44.048H746.471C750.631 44.048 753.786 43.32 755.935 41.864C758.084 40.408 759.159 38.2586 759.159 35.416C759.159 32.5733 758.084 30.4586 755.935 29.072C753.786 27.616 750.631 26.888 746.471 26.888H729.727ZM749.383 74.312C753.82 74.312 757.148 73.584 759.367 72.128C761.655 70.672 762.799 68.4186 762.799 65.368C762.799 59.3359 758.327 56.32 749.383 56.32H729.727V74.312H749.383Z"/>
<path d="M802.699 38.432C804.64 35.728 807.24 33.6826 810.499 32.296C813.827 30.9093 817.64 30.216 821.939 30.216V45.192C820.136 45.0533 818.923 44.984 818.299 44.984C813.653 44.984 810.013 46.3013 807.379 48.936C804.744 51.5013 803.427 55.384 803.427 60.584V87H787.203V31.048H802.699V38.432Z"/>
<path d="M853.542 87.832C847.648 87.832 842.344 86.6186 837.63 84.192C832.984 81.696 829.344 78.2639 826.71 73.896C824.075 69.528 822.758 64.5706 822.758 59.0239C822.758 53.4773 824.075 48.52 826.71 44.152C829.344 39.784 832.984 36.3866 837.63 33.96C842.344 31.464 847.648 30.216 853.542 30.216C859.435 30.216 864.704 31.464 869.35 33.96C873.995 36.3866 877.635 39.784 880.27 44.152C882.904 48.52 884.222 53.4773 884.222 59.0239C884.222 64.5706 882.904 69.528 880.27 73.896C877.635 78.2639 873.995 81.696 869.35 84.192C864.704 86.6186 859.435 87.832 853.542 87.832ZM853.542 74.52C857.702 74.52 861.099 73.1333 863.734 70.36C866.438 67.5173 867.79 63.7386 867.79 59.0239C867.79 54.3093 866.438 50.5653 863.734 47.792C861.099 44.9493 857.702 43.528 853.542 43.528C849.382 43.528 845.95 44.9493 843.246 47.792C840.542 50.5653 839.19 54.3093 839.19 59.0239C839.19 63.7386 840.542 67.5173 843.246 70.36C845.95 73.1333 849.382 74.52 853.542 74.52Z"/>
<path d="M979.239 31.048L958.959 87H943.359L930.775 52.264L917.775 87H902.175L881.999 31.048H897.287L910.495 68.904L924.223 31.048H937.951L951.263 68.904L964.887 31.048H979.239Z"/>
<path d="M1000.63 87.832C995.987 87.832 991.446 87.2773 987.008 86.168C982.571 84.9893 979.035 83.5333 976.4 81.8L981.809 70.152C984.305 71.7466 987.32 73.0639 990.857 74.104C994.393 75.0746 997.859 75.56 1001.26 75.56C1008.12 75.56 1011.55 73.8613 1011.55 70.464C1011.55 68.8693 1010.62 67.7253 1008.74 67.032C1006.87 66.3386 1004 65.7493 1000.11 65.264C995.536 64.5706 991.758 63.7733 988.776 62.872C985.795 61.9706 983.195 60.376 980.977 58.088C978.827 55.8 977.753 52.5413 977.753 48.312C977.753 44.776 978.758 41.656 980.768 38.952C982.848 36.1786 985.83 34.0293 989.712 32.504C993.664 30.9786 998.31 30.216 1003.65 30.216C1007.6 30.216 1011.52 30.6666 1015.4 31.5679C1019.35 32.4 1022.61 33.5786 1025.18 35.104L1019.77 46.648C1014.85 43.8746 1009.47 42.488 1003.65 42.488C1000.18 42.488 997.582 42.9733 995.849 43.944C994.115 44.9146 993.249 46.1626 993.249 47.688C993.249 49.4213 994.184 50.6346 996.056 51.3279C997.928 52.0213 1000.91 52.68 1005 53.304C1009.58 54.0666 1013.32 54.8986 1016.23 55.7999C1019.14 56.632 1021.68 58.192 1023.82 60.4799C1025.97 62.768 1027.05 65.9573 1027.05 70.048C1027.05 73.5146 1026.01 76.6 1023.93 79.304C1021.85 82.008 1018.8 84.1226 1014.78 85.648C1010.82 87.104 1006.11 87.832 1000.63 87.832Z"/>
<path d="M1087.71 59.2319C1087.71 59.4399 1087.6 60.896 1087.39 63.6H1045.07C1045.83 67.0666 1047.63 69.8053 1050.47 71.816C1053.32 73.8266 1056.85 74.832 1061.08 74.832C1063.99 74.832 1066.56 74.416 1068.78 73.584C1071.07 72.6826 1073.18 71.296 1075.12 69.424L1083.75 78.784C1078.49 84.8159 1070.79 87.832 1060.67 87.832C1054.36 87.832 1048.78 86.6186 1043.92 84.192C1039.07 81.696 1035.33 78.2639 1032.69 73.896C1030.06 69.528 1028.74 64.5706 1028.74 59.0239C1028.74 53.5466 1030.02 48.624 1032.59 44.256C1035.22 39.8186 1038.79 36.3866 1043.3 33.96C1047.87 31.464 1052.97 30.216 1058.59 30.216C1064.06 30.216 1069.02 31.3946 1073.46 33.752C1077.9 36.1093 1081.36 39.5066 1083.86 43.944C1086.42 48.312 1087.71 53.408 1087.71 59.2319ZM1058.69 42.488C1055.02 42.488 1051.93 43.528 1049.43 45.608C1046.94 47.688 1045.41 50.5306 1044.86 54.136H1072.42C1071.86 50.6 1070.34 47.792 1067.84 45.712C1065.35 43.5626 1062.3 42.488 1058.69 42.488Z"/>
<path d="M1109.84 38.432C1111.79 35.728 1114.39 33.6826 1117.64 32.296C1120.97 30.9093 1124.79 30.216 1129.08 30.216V45.192C1127.28 45.0533 1126.07 44.984 1125.44 44.984C1120.8 44.984 1117.16 46.3013 1114.52 48.936C1111.89 51.5013 1110.57 55.384 1110.57 60.584V87H1094.35V31.048H1109.84V38.432Z"/>
</mask>
<path d="M766.439 49.144C770.599 50.4613 773.858 52.6799 776.215 55.7999C778.572 58.8506 779.751 62.6293 779.751 67.136C779.751 73.5146 777.255 78.4373 772.263 81.904C767.34 85.3013 760.13 87 750.631 87H712.983V14.2H748.551C757.426 14.2 764.22 15.8986 768.935 19.296C773.719 22.6933 776.111 27.304 776.111 33.128C776.111 36.664 775.244 39.8186 773.511 42.592C771.847 45.3653 769.49 47.5493 766.439 49.144ZM729.727 26.888V44.048H746.471C750.631 44.048 753.786 43.32 755.935 41.864C758.084 40.408 759.159 38.2586 759.159 35.416C759.159 32.5733 758.084 30.4586 755.935 29.072C753.786 27.616 750.631 26.888 746.471 26.888H729.727ZM749.383 74.312C753.82 74.312 757.148 73.584 759.367 72.128C761.655 70.672 762.799 68.4186 762.799 65.368C762.799 59.3359 758.327 56.32 749.383 56.32H729.727V74.312H749.383Z" fill="black"/>
<path d="M802.699 38.432C804.64 35.728 807.24 33.6826 810.499 32.296C813.827 30.9093 817.64 30.216 821.939 30.216V45.192C820.136 45.0533 818.923 44.984 818.299 44.984C813.653 44.984 810.013 46.3013 807.379 48.936C804.744 51.5013 803.427 55.384 803.427 60.584V87H787.203V31.048H802.699V38.432Z" fill="black"/>
<path d="M853.542 87.832C847.648 87.832 842.344 86.6186 837.63 84.192C832.984 81.696 829.344 78.2639 826.71 73.896C824.075 69.528 822.758 64.5706 822.758 59.0239C822.758 53.4773 824.075 48.52 826.71 44.152C829.344 39.784 832.984 36.3866 837.63 33.96C842.344 31.464 847.648 30.216 853.542 30.216C859.435 30.216 864.704 31.464 869.35 33.96C873.995 36.3866 877.635 39.784 880.27 44.152C882.904 48.52 884.222 53.4773 884.222 59.0239C884.222 64.5706 882.904 69.528 880.27 73.896C877.635 78.2639 873.995 81.696 869.35 84.192C864.704 86.6186 859.435 87.832 853.542 87.832ZM853.542 74.52C857.702 74.52 861.099 73.1333 863.734 70.36C866.438 67.5173 867.79 63.7386 867.79 59.0239C867.79 54.3093 866.438 50.5653 863.734 47.792C861.099 44.9493 857.702 43.528 853.542 43.528C849.382 43.528 845.95 44.9493 843.246 47.792C840.542 50.5653 839.19 54.3093 839.19 59.0239C839.19 63.7386 840.542 67.5173 843.246 70.36C845.95 73.1333 849.382 74.52 853.542 74.52Z" fill="black"/>
<path d="M979.239 31.048L958.959 87H943.359L930.775 52.264L917.775 87H902.175L881.999 31.048H897.287L910.495 68.904L924.223 31.048H937.951L951.263 68.904L964.887 31.048H979.239Z" fill="black"/>
<path d="M1000.63 87.832C995.987 87.832 991.446 87.2773 987.008 86.168C982.571 84.9893 979.035 83.5333 976.4 81.8L981.809 70.152C984.305 71.7466 987.32 73.0639 990.857 74.104C994.393 75.0746 997.859 75.56 1001.26 75.56C1008.12 75.56 1011.55 73.8613 1011.55 70.464C1011.55 68.8693 1010.62 67.7253 1008.74 67.032C1006.87 66.3386 1004 65.7493 1000.11 65.264C995.536 64.5706 991.758 63.7733 988.776 62.872C985.795 61.9706 983.195 60.376 980.977 58.088C978.827 55.8 977.753 52.5413 977.753 48.312C977.753 44.776 978.758 41.656 980.768 38.952C982.848 36.1786 985.83 34.0293 989.712 32.504C993.664 30.9786 998.31 30.216 1003.65 30.216C1007.6 30.216 1011.52 30.6666 1015.4 31.5679C1019.35 32.4 1022.61 33.5786 1025.18 35.104L1019.77 46.648C1014.85 43.8746 1009.47 42.488 1003.65 42.488C1000.18 42.488 997.582 42.9733 995.849 43.944C994.115 44.9146 993.249 46.1626 993.249 47.688C993.249 49.4213 994.184 50.6346 996.056 51.3279C997.928 52.0213 1000.91 52.68 1005 53.304C1009.58 54.0666 1013.32 54.8986 1016.23 55.7999C1019.14 56.632 1021.68 58.192 1023.82 60.4799C1025.97 62.768 1027.05 65.9573 1027.05 70.048C1027.05 73.5146 1026.01 76.6 1023.93 79.304C1021.85 82.008 1018.8 84.1226 1014.78 85.648C1010.82 87.104 1006.11 87.832 1000.63 87.832Z" fill="black"/>
<path d="M1087.71 59.2319C1087.71 59.4399 1087.6 60.896 1087.39 63.6H1045.07C1045.83 67.0666 1047.63 69.8053 1050.47 71.816C1053.32 73.8266 1056.85 74.832 1061.08 74.832C1063.99 74.832 1066.56 74.416 1068.78 73.584C1071.07 72.6826 1073.18 71.296 1075.12 69.424L1083.75 78.784C1078.49 84.8159 1070.79 87.832 1060.67 87.832C1054.36 87.832 1048.78 86.6186 1043.92 84.192C1039.07 81.696 1035.33 78.2639 1032.69 73.896C1030.06 69.528 1028.74 64.5706 1028.74 59.0239C1028.74 53.5466 1030.02 48.624 1032.59 44.256C1035.22 39.8186 1038.79 36.3866 1043.3 33.96C1047.87 31.464 1052.97 30.216 1058.59 30.216C1064.06 30.216 1069.02 31.3946 1073.46 33.752C1077.9 36.1093 1081.36 39.5066 1083.86 43.944C1086.42 48.312 1087.71 53.408 1087.71 59.2319ZM1058.69 42.488C1055.02 42.488 1051.93 43.528 1049.43 45.608C1046.94 47.688 1045.41 50.5306 1044.86 54.136H1072.42C1071.86 50.6 1070.34 47.792 1067.84 45.712C1065.35 43.5626 1062.3 42.488 1058.69 42.488Z" fill="black"/>
<path d="M1109.84 38.432C1111.79 35.728 1114.39 33.6826 1117.64 32.296C1120.97 30.9093 1124.79 30.216 1129.08 30.216V45.192C1127.28 45.0533 1126.07 44.984 1125.44 44.984C1120.8 44.984 1117.16 46.3013 1114.52 48.936C1111.89 51.5013 1110.57 55.384 1110.57 60.584V87H1094.35V31.048H1109.84V38.432Z" fill="black"/>
<path d="M766.439 49.144C770.599 50.4613 773.858 52.6799 776.215 55.7999C778.572 58.8506 779.751 62.6293 779.751 67.136C779.751 73.5146 777.255 78.4373 772.263 81.904C767.34 85.3013 760.13 87 750.631 87H712.983V14.2H748.551C757.426 14.2 764.22 15.8986 768.935 19.296C773.719 22.6933 776.111 27.304 776.111 33.128C776.111 36.664 775.244 39.8186 773.511 42.592C771.847 45.3653 769.49 47.5493 766.439 49.144ZM729.727 26.888V44.048H746.471C750.631 44.048 753.786 43.32 755.935 41.864C758.084 40.408 759.159 38.2586 759.159 35.416C759.159 32.5733 758.084 30.4586 755.935 29.072C753.786 27.616 750.631 26.888 746.471 26.888H729.727ZM749.383 74.312C753.82 74.312 757.148 73.584 759.367 72.128C761.655 70.672 762.799 68.4186 762.799 65.368C762.799 59.3359 758.327 56.32 749.383 56.32H729.727V74.312H749.383Z" stroke="white" stroke-width="8" mask="url(#path-8-outside-2)"/>
<path d="M802.699 38.432C804.64 35.728 807.24 33.6826 810.499 32.296C813.827 30.9093 817.64 30.216 821.939 30.216V45.192C820.136 45.0533 818.923 44.984 818.299 44.984C813.653 44.984 810.013 46.3013 807.379 48.936C804.744 51.5013 803.427 55.384 803.427 60.584V87H787.203V31.048H802.699V38.432Z" stroke="white" stroke-width="8" mask="url(#path-8-outside-2)"/>
<path d="M853.542 87.832C847.648 87.832 842.344 86.6186 837.63 84.192C832.984 81.696 829.344 78.2639 826.71 73.896C824.075 69.528 822.758 64.5706 822.758 59.0239C822.758 53.4773 824.075 48.52 826.71 44.152C829.344 39.784 832.984 36.3866 837.63 33.96C842.344 31.464 847.648 30.216 853.542 30.216C859.435 30.216 864.704 31.464 869.35 33.96C873.995 36.3866 877.635 39.784 880.27 44.152C882.904 48.52 884.222 53.4773 884.222 59.0239C884.222 64.5706 882.904 69.528 880.27 73.896C877.635 78.2639 873.995 81.696 869.35 84.192C864.704 86.6186 859.435 87.832 853.542 87.832ZM853.542 74.52C857.702 74.52 861.099 73.1333 863.734 70.36C866.438 67.5173 867.79 63.7386 867.79 59.0239C867.79 54.3093 866.438 50.5653 863.734 47.792C861.099 44.9493 857.702 43.528 853.542 43.528C849.382 43.528 845.95 44.9493 843.246 47.792C840.542 50.5653 839.19 54.3093 839.19 59.0239C839.19 63.7386 840.542 67.5173 843.246 70.36C845.95 73.1333 849.382 74.52 853.542 74.52Z" stroke="white" stroke-width="8" mask="url(#path-8-outside-2)"/>
<path d="M979.239 31.048L958.959 87H943.359L930.775 52.264L917.775 87H902.175L881.999 31.048H897.287L910.495 68.904L924.223 31.048H937.951L951.263 68.904L964.887 31.048H979.239Z" stroke="white" stroke-width="8" mask="url(#path-8-outside-2)"/>
<path d="M1000.63 87.832C995.987 87.832 991.446 87.2773 987.008 86.168C982.571 84.9893 979.035 83.5333 976.4 81.8L981.809 70.152C984.305 71.7466 987.32 73.0639 990.857 74.104C994.393 75.0746 997.859 75.56 1001.26 75.56C1008.12 75.56 1011.55 73.8613 1011.55 70.464C1011.55 68.8693 1010.62 67.7253 1008.74 67.032C1006.87 66.3386 1004 65.7493 1000.11 65.264C995.536 64.5706 991.758 63.7733 988.776 62.872C985.795 61.9706 983.195 60.376 980.977 58.088C978.827 55.8 977.753 52.5413 977.753 48.312C977.753 44.776 978.758 41.656 980.768 38.952C982.848 36.1786 985.83 34.0293 989.712 32.504C993.664 30.9786 998.31 30.216 1003.65 30.216C1007.6 30.216 1011.52 30.6666 1015.4 31.5679C1019.35 32.4 1022.61 33.5786 1025.18 35.104L1019.77 46.648C1014.85 43.8746 1009.47 42.488 1003.65 42.488C1000.18 42.488 997.582 42.9733 995.849 43.944C994.115 44.9146 993.249 46.1626 993.249 47.688C993.249 49.4213 994.184 50.6346 996.056 51.3279C997.928 52.0213 1000.91 52.68 1005 53.304C1009.58 54.0666 1013.32 54.8986 1016.23 55.7999C1019.14 56.632 1021.68 58.192 1023.82 60.4799C1025.97 62.768 1027.05 65.9573 1027.05 70.048C1027.05 73.5146 1026.01 76.6 1023.93 79.304C1021.85 82.008 1018.8 84.1226 1014.78 85.648C1010.82 87.104 1006.11 87.832 1000.63 87.832Z" stroke="white" stroke-width="8" mask="url(#path-8-outside-2)"/>
<path d="M1087.71 59.2319C1087.71 59.4399 1087.6 60.896 1087.39 63.6H1045.07C1045.83 67.0666 1047.63 69.8053 1050.47 71.816C1053.32 73.8266 1056.85 74.832 1061.08 74.832C1063.99 74.832 1066.56 74.416 1068.78 73.584C1071.07 72.6826 1073.18 71.296 1075.12 69.424L1083.75 78.784C1078.49 84.8159 1070.79 87.832 1060.67 87.832C1054.36 87.832 1048.78 86.6186 1043.92 84.192C1039.07 81.696 1035.33 78.2639 1032.69 73.896C1030.06 69.528 1028.74 64.5706 1028.74 59.0239C1028.74 53.5466 1030.02 48.624 1032.59 44.256C1035.22 39.8186 1038.79 36.3866 1043.3 33.96C1047.87 31.464 1052.97 30.216 1058.59 30.216C1064.06 30.216 1069.02 31.3946 1073.46 33.752C1077.9 36.1093 1081.36 39.5066 1083.86 43.944C1086.42 48.312 1087.71 53.408 1087.71 59.2319ZM1058.69 42.488C1055.02 42.488 1051.93 43.528 1049.43 45.608C1046.94 47.688 1045.41 50.5306 1044.86 54.136H1072.42C1071.86 50.6 1070.34 47.792 1067.84 45.712C1065.35 43.5626 1062.3 42.488 1058.69 42.488Z" stroke="white" stroke-width="8" mask="url(#path-8-outside-2)"/>
<path d="M1109.84 38.432C1111.79 35.728 1114.39 33.6826 1117.64 32.296C1120.97 30.9093 1124.79 30.216 1129.08 30.216V45.192C1127.28 45.0533 1126.07 44.984 1125.44 44.984C1120.8 44.984 1117.16 46.3013 1114.52 48.936C1111.89 51.5013 1110.57 55.384 1110.57 60.584V87H1094.35V31.048H1109.84V38.432Z" stroke="white" stroke-width="8" mask="url(#path-8-outside-2)"/>
<defs>
<linearGradient id="paint0_linear" x1="165.17" y1="33.092" x2="152.442" y2="20.3641" gradientUnits="userSpaceOnUse">
<stop stop-color="#033049"/>
<stop offset="1" stop-color="#00C2FF"/>
</linearGradient>
</defs>
</svg>
