<?xml version="1.0" standalone="no"?>
<!DOCTYPE svg PUBLIC "-//W3C//DTD SVG 20010904//EN"
 "http://www.w3.org/TR/2001/REC-SVG-20010904/DTD/svg10.dtd">
<svg version="1.0" xmlns="http://www.w3.org/2000/svg"
 width="700.000000pt" height="700.000000pt" viewBox="0 0 700.000000 700.000000"
 preserveAspectRatio="xMidYMid meet">
<metadata>
Created by potrace 1.11, written by Peter Selinger 2001-2013
</metadata>
<g transform="translate(0.000000,700.000000) scale(0.100000,-0.100000)"
fill="#000000" stroke="none">
<path d="M3430 6425 c-8 -2 -32 -6 -52 -10 l-38 -6 0 -659 c0 -516 3 -661 13
-667 6 -4 64 -9 128 -11 208 -7 353 51 500 198 70 70 95 103 128 171 51 107
71 190 71 305 0 365 -282 662 -644 679 -50 2 -98 2 -106 0z"/>
<path d="M2382 5380 c-229 -124 -392 -242 -566 -410 -417 -404 -670 -927 -726
-1503 -24 -242 -2 -556 55 -797 56 -232 198 -558 330 -755 130 -195 330 -414
500 -550 194 -155 457 -304 690 -390 127 -47 327 -97 480 -121 166 -25 513
-26 675 -1 656 102 1210 432 1599 952 245 327 401 715 456 1128 17 137 20 432
4 575 -66 616 -391 1209 -873 1598 -165 134 -487 329 -505 307 -4 -4 -18 -35
-31 -68 -112 -286 -374 -521 -682 -609 -356 -102 -731 -12 -1012 245 -105 96
-232 289 -267 407 -7 23 -17 42 -23 42 -6 0 -53 -23 -104 -50z m1379 -1053
c254 -67 468 -208 619 -409 332 -440 300 -1048 -76 -1448 -138 -147 -330 -262
-529 -317 -93 -26 -113 -28 -290 -28 -176 0 -197 2 -288 27 -191 54 -364 154
-503 293 -503 502 -420 1336 172 1728 211 139 388 189 649 183 121 -3 169 -8
246 -29z"/>
</g>
</svg>
