<svg width="921" height="113" viewBox="0 0 921 113" fill="none" xmlns="http://www.w3.org/2000/svg">
<path d="M195.512 76.4H161.712L155.264 92H138L170.448 19.2H187.088L219.64 92H201.96L195.512 76.4ZM190.208 63.608L178.664 35.736L167.12 63.608H190.208Z" fill="black"/>
<path d="M257.469 89.296C255.875 90.4746 253.899 91.376 251.541 92C249.253 92.5546 246.827 92.832 244.261 92.832C237.605 92.832 232.44 91.1333 228.765 87.736C225.16 84.3386 223.357 79.3466 223.357 72.76V49.776H214.725V37.296H223.357V23.672H239.581V37.296H253.517V49.776H239.581V72.552C239.581 74.9093 240.171 76.7466 241.349 78.064C242.597 79.312 244.331 79.936 246.549 79.936C249.115 79.936 251.299 79.2426 253.101 77.856L257.469 89.296Z" fill="black"/>
<path d="M287.314 92.832C281.421 92.832 276.117 91.6186 271.402 89.192C266.757 86.696 263.117 83.264 260.482 78.896C257.847 74.528 256.53 69.5706 256.53 64.0239C256.53 58.4773 257.847 53.52 260.482 49.152C263.117 44.784 266.757 41.3866 271.402 38.96C276.117 36.464 281.421 35.216 287.314 35.216C293.207 35.216 298.477 36.464 303.122 38.96C307.767 41.3866 311.407 44.784 314.042 49.152C316.677 53.52 317.994 58.4773 317.994 64.0239C317.994 69.5706 316.677 74.528 314.042 78.896C311.407 83.264 307.767 86.696 303.122 89.192C298.477 91.6186 293.207 92.832 287.314 92.832ZM287.314 79.52C291.474 79.52 294.871 78.1333 297.506 75.36C300.21 72.5173 301.562 68.7386 301.562 64.0239C301.562 59.3093 300.21 55.5653 297.506 52.792C294.871 49.9493 291.474 48.528 287.314 48.528C283.154 48.528 279.722 49.9493 277.018 52.792C274.314 55.5653 272.962 59.3093 272.962 64.0239C272.962 68.7386 274.314 72.5173 277.018 75.36C279.722 78.1333 283.154 79.52 287.314 79.52Z" fill="black"/>
<path d="M396.334 35.216C403.337 35.216 408.884 37.296 412.974 41.456C417.134 45.5466 419.214 51.7173 419.214 59.9679V92H402.99V62.464C402.99 58.0266 402.054 54.7333 400.182 52.584C398.38 50.3653 395.78 49.256 392.382 49.256C388.569 49.256 385.553 50.504 383.334 53C381.116 55.4266 380.006 59.0666 380.006 63.92V92H363.782V62.464C363.782 53.6586 360.246 49.256 353.174 49.256C349.43 49.256 346.449 50.504 344.23 53C342.012 55.4266 340.902 59.0666 340.902 63.92V92H324.678V36.048H340.174V42.496C342.254 40.1386 344.785 38.336 347.766 37.088C350.817 35.84 354.145 35.216 357.75 35.216C361.702 35.216 365.273 36.0133 368.462 37.608C371.652 39.1333 374.217 41.3866 376.158 44.368C378.446 41.456 381.324 39.2026 384.79 37.608C388.326 36.0133 392.174 35.216 396.334 35.216Z" fill="black"/>
<path d="M429.596 36.048H445.82V92H429.596V36.048Z" fill="black"/>
<path d="M483.758 92.832C477.795 92.832 472.422 91.6186 467.638 89.192C462.923 86.696 459.214 83.264 456.51 78.896C453.875 74.528 452.558 69.5706 452.558 64.0239C452.558 58.4773 453.875 53.52 456.51 49.152C459.214 44.784 462.923 41.3866 467.638 38.96C472.422 36.464 477.795 35.216 483.758 35.216C489.651 35.216 494.782 36.464 499.15 38.96C503.587 41.3866 506.811 44.888 508.822 49.464L496.238 56.224C493.326 51.0933 489.131 48.528 483.654 48.528C479.424 48.528 475.923 49.9146 473.15 52.688C470.376 55.4613 468.99 59.2399 468.99 64.0239C468.99 68.808 470.376 72.5866 473.15 75.36C475.923 78.1333 479.424 79.52 483.654 79.52C489.2 79.52 493.395 76.9546 496.238 71.824L508.822 78.688C506.811 83.1253 503.587 86.592 499.15 89.088C494.782 91.584 489.651 92.832 483.758 92.832Z" fill="black"/>
<path d="M321.806 62C321.806 80.2254 307.031 95 288.806 95C270.58 95 255.806 80.2254 255.806 62C255.806 43.7746 270.58 29 288.806 29C307.031 29 321.806 43.7746 321.806 62Z" fill="white"/>
<path d="M317.806 63C317.806 79.5685 304.374 93 287.806 93C271.237 93 257.806 79.5685 257.806 63C257.806 46.4315 271.237 33 287.806 33C304.374 33 317.806 46.4315 317.806 63Z" fill="black"/>
<path d="M301.806 63C301.806 70.732 295.538 77 287.806 77C280.074 77 273.806 70.732 273.806 63C273.806 55.268 280.074 49 287.806 49C295.538 49 301.806 55.268 301.806 63Z" fill="white"/>
<path d="M287.806 40C282.835 40 278.806 35.9706 278.806 31C278.806 26.0294 282.835 22 287.806 22C290.088 22 292.172 22.8497 293.759 24.25C295.627 25.8991 296.806 28.3119 296.806 31C296.806 35.9706 292.776 40 287.806 40Z" fill="url(#paint0_linear)"/>
<path fill-rule="evenodd" clip-rule="evenodd" d="M287.806 44C280.626 44 274.806 38.1797 274.806 31C274.806 23.8203 280.626 18 287.806 18C291.1 18 294.116 19.2305 296.406 21.251C299.098 23.6273 300.806 27.1167 300.806 31C300.806 38.1797 294.985 44 287.806 44ZM278.806 31C278.806 35.9706 282.835 40 287.806 40C292.776 40 296.806 35.9706 296.806 31C296.806 28.3119 295.627 25.8991 293.759 24.25C292.172 22.8497 290.088 22 287.806 22C282.835 22 278.806 26.0294 278.806 31Z" fill="white"/>
<path d="M553.806 18.2H586.878C594.782 18.2 601.75 19.7253 607.782 22.776C613.883 25.7573 618.598 29.9866 621.926 35.464C625.323 40.9413 627.022 47.32 627.022 54.6C627.022 61.88 625.323 68.2586 621.926 73.736C618.598 79.2133 613.883 83.4773 607.782 86.528C601.75 89.5093 594.782 91 586.878 91H553.806V18.2ZM586.046 77.168C593.326 77.168 599.115 75.1573 603.414 71.136C607.782 67.0453 609.966 61.5333 609.966 54.6C609.966 47.6666 607.782 42.1893 603.414 38.168C599.115 34.0773 593.326 32.032 586.046 32.032H570.654V77.168H586.046Z" fill="black"/>
<path d="M656.992 34.216C665.658 34.216 672.314 36.296 676.96 40.456C681.605 44.5466 683.928 50.752 683.928 59.072V91H668.744V84.032C665.693 89.232 660.008 91.832 651.688 91.832C647.389 91.832 643.645 91.104 640.456 89.648C637.336 88.192 634.944 86.1813 633.28 83.616C631.616 81.0506 630.784 78.1386 630.784 74.88C630.784 69.68 632.725 65.5893 636.608 62.608C640.56 59.6266 646.626 58.136 654.808 58.136H667.704C667.704 54.6 666.629 51.896 664.48 50.024C662.33 48.0826 659.106 47.112 654.808 47.112C651.826 47.112 648.88 47.5973 645.968 48.568C643.125 49.4693 640.698 50.7173 638.688 52.312L632.864 40.976C635.914 38.8266 639.554 37.1626 643.784 35.9839C648.082 34.8053 652.485 34.216 656.992 34.216ZM655.744 80.912C658.517 80.912 660.978 80.288 663.128 79.04C665.277 77.7226 666.802 75.816 667.704 73.32V67.6H656.576C649.92 67.6 646.592 69.784 646.592 74.152C646.592 76.232 647.389 77.896 648.984 79.144C650.648 80.3226 652.901 80.912 655.744 80.912Z" fill="black"/>
<path d="M730.539 88.296C728.944 89.4746 726.968 90.376 724.611 91C722.323 91.5546 719.896 91.832 717.331 91.832C710.675 91.832 705.51 90.1333 701.835 86.736C698.23 83.3386 696.427 78.3466 696.427 71.76V48.776H687.795V36.296H696.427V22.672H712.651V36.296H726.587V48.776H712.651V71.552C712.651 73.9093 713.24 75.7466 714.419 77.064C715.667 78.312 717.4 78.936 719.619 78.936C722.184 78.936 724.368 78.2426 726.171 76.856L730.539 88.296Z" fill="black"/>
<path d="M758.054 34.216C766.721 34.216 773.377 36.296 778.022 40.456C782.668 44.5466 784.99 50.752 784.99 59.072V91H769.806V84.032C766.756 89.232 761.07 91.832 752.75 91.832C748.452 91.832 744.708 91.104 741.518 89.648C738.398 88.192 736.006 86.1813 734.342 83.616C732.678 81.0506 731.846 78.1386 731.846 74.88C731.846 69.68 733.788 65.5893 737.67 62.608C741.622 59.6266 747.689 58.136 755.87 58.136H768.766C768.766 54.6 767.692 51.896 765.542 50.024C763.393 48.0826 760.169 47.112 755.87 47.112C752.889 47.112 749.942 47.5973 747.03 48.568C744.188 49.4693 741.761 50.7173 739.75 52.312L733.926 40.976C736.977 38.8266 740.617 37.1626 744.846 35.9839C749.145 34.8053 753.548 34.216 758.054 34.216ZM756.806 80.912C759.58 80.912 762.041 80.288 764.19 79.04C766.34 77.7226 767.865 75.816 768.766 73.32V67.6H757.638C750.982 67.6 747.654 69.784 747.654 74.152C747.654 76.232 748.452 77.896 750.046 79.144C751.71 80.3226 753.964 80.912 756.806 80.912Z" fill="black"/>
<defs>
<linearGradient id="paint0_linear" x1="296.806" y1="31" x2="278.806" y2="31" gradientUnits="userSpaceOnUse">
<stop stop-color="#01ECFF"/>
<stop offset="1" stop-color="#2210FF"/>
</linearGradient>
</defs>
</svg>
