<svg width="665" height="113" viewBox="0 0 665 113" fill="none" xmlns="http://www.w3.org/2000/svg">
<path d="M24.264 94H25.6014L26.1123 92.7639L32.0494 78.4H63.1746L69.1117 92.7639L69.6226 94H70.96H88.64H91.7251L90.4658 91.1836L57.9138 18.3836L57.3845 17.2H56.088H39.448H38.1498L37.6212 18.3857L5.17324 91.1857L3.9189 94H7H24.264ZM127.658 90.9043L128.879 90.0015L128.338 88.5826L123.97 77.1426L123.011 74.6326L120.882 76.2707C119.473 77.3544 117.733 77.936 115.549 77.936C113.748 77.936 112.585 77.4487 111.803 76.6887C111.069 75.8447 110.581 74.5508 110.581 72.552V51.776H122.517H124.517V49.776V37.296V35.296H122.517H110.581V23.672V21.672H108.581H92.3572H90.3572V23.672V35.296H83.7252H81.7252V37.296V49.776V51.776H83.7252H90.3572V72.76C90.3572 79.7081 92.2674 85.3034 96.3936 89.1915L96.4005 89.1981L96.4075 89.2045C100.56 93.0435 106.272 94.832 113.261 94.832C115.971 94.832 118.557 94.5389 121.012 93.9437L121.033 93.9387L121.053 93.9334C123.6 93.2591 125.819 92.2632 127.658 90.9043ZM288.214 94H290.214V92V59.9679C290.214 51.4136 288.058 44.6414 283.389 40.042C278.85 35.4326 272.752 33.216 265.334 33.216C260.912 33.216 256.781 34.0653 252.968 35.7848L252.961 35.7879L252.955 35.791C250.017 37.1424 247.456 38.9403 245.287 41.1821C243.386 38.9121 241.066 37.1172 238.341 35.8112C234.849 34.0685 230.972 33.216 226.75 33.216C222.91 33.216 219.322 33.8817 216.009 35.2369L216.002 35.2399L215.994 35.2431C214.251 35.9727 212.643 36.8795 211.174 37.9627V36.048V34.048H209.174H193.678H191.678V36.048V92V94H193.678H209.902H211.902V92V63.92C211.902 59.3327 212.955 56.2655 214.706 54.3495L214.716 54.3392L214.725 54.3287C216.516 52.3141 218.925 51.256 222.174 51.256C225.272 51.256 227.276 52.1984 228.571 53.8103C229.933 55.506 230.782 58.2763 230.782 62.464V92V94H232.782H249.006H251.006V92V63.92C251.006 59.3327 252.059 56.2655 253.81 54.3495L253.82 54.3392L253.829 54.3287C255.613 52.3225 258.051 51.256 261.382 51.256C264.304 51.256 266.28 52.1837 267.63 53.8451L267.652 53.8717L267.674 53.8975C269.094 55.5272 269.99 58.2529 269.99 62.464V92V94H271.99H288.214ZM298.596 34.048H296.596V36.048V92V94H298.596H314.82H316.82V92V36.048V34.048H314.82H298.596ZM335.702 90.9595L335.717 90.9677L335.733 90.9756C340.827 93.5598 346.516 94.832 352.758 94.832C358.937 94.832 364.419 93.5218 369.136 90.8277C373.924 88.1334 377.45 84.3546 379.643 79.5134L380.41 77.8216L378.779 76.9322L366.195 70.0682L364.451 69.1168L363.488 70.8547C362.202 73.1759 360.666 74.8195 358.916 75.8897C357.172 76.9565 355.107 77.52 352.654 77.52C348.909 77.52 345.931 76.3127 343.564 73.9457C341.245 71.627 339.99 68.4016 339.99 64.0239C339.99 59.6463 341.245 56.4209 343.564 54.1022C345.931 51.7352 348.909 50.528 352.654 50.528C357.346 50.528 360.908 52.6475 363.498 57.2112L364.463 58.9105L366.184 57.9858L378.768 51.2258L380.396 50.3513L379.653 48.6594C377.465 43.6797 373.937 39.8498 369.126 37.2142C364.411 34.5242 358.932 33.216 352.758 33.216C346.509 33.216 340.814 34.526 335.716 37.1848C330.693 39.7718 326.709 43.4143 323.809 48.0992L323.803 48.1091L323.797 48.119C320.958 52.8257 319.558 58.1461 319.558 64.0239C319.558 69.9018 320.958 75.2222 323.797 79.9289L323.803 79.9388L323.809 79.9487C326.708 84.6305 330.686 88.304 335.702 90.9595ZM47.664 40.9626L56.2149 61.608H39.1131L47.664 40.9626Z" fill="black" stroke="white" stroke-width="4"/>
<mask id="path-2-outside-1" maskUnits="userSpaceOnUse" x="122.806" y="29" width="68" height="68" fill="black">
<rect fill="white" x="122.806" y="29" width="68" height="68"/>
<path fill-rule="evenodd" clip-rule="evenodd" d="M156.806 93C173.374 93 186.806 79.5685 186.806 63C186.806 46.4315 173.374 33 156.806 33C140.237 33 126.806 46.4315 126.806 63C126.806 79.5685 140.237 93 156.806 93ZM156.806 77C164.538 77 170.806 70.732 170.806 63C170.806 55.268 164.538 49 156.806 49C149.074 49 142.806 55.268 142.806 63C142.806 70.732 149.074 77 156.806 77Z"/>
</mask>
<path fill-rule="evenodd" clip-rule="evenodd" d="M156.806 93C173.374 93 186.806 79.5685 186.806 63C186.806 46.4315 173.374 33 156.806 33C140.237 33 126.806 46.4315 126.806 63C126.806 79.5685 140.237 93 156.806 93ZM156.806 77C164.538 77 170.806 70.732 170.806 63C170.806 55.268 164.538 49 156.806 49C149.074 49 142.806 55.268 142.806 63C142.806 70.732 149.074 77 156.806 77Z" fill="black"/>
<path d="M182.806 63C182.806 77.3594 171.165 89 156.806 89V97C175.583 97 190.806 81.7777 190.806 63H182.806ZM156.806 37C171.165 37 182.806 48.6406 182.806 63H190.806C190.806 44.2223 175.583 29 156.806 29V37ZM130.806 63C130.806 48.6406 142.446 37 156.806 37V29C138.028 29 122.806 44.2223 122.806 63H130.806ZM156.806 89C142.446 89 130.806 77.3594 130.806 63H122.806C122.806 81.7777 138.028 97 156.806 97V89ZM166.806 63C166.806 68.5228 162.329 73 156.806 73V81C166.747 81 174.806 72.9411 174.806 63H166.806ZM156.806 53C162.329 53 166.806 57.4772 166.806 63H174.806C174.806 53.0589 166.747 45 156.806 45V53ZM146.806 63C146.806 57.4772 151.283 53 156.806 53V45C146.865 45 138.806 53.0589 138.806 63H146.806ZM156.806 73C151.283 73 146.806 68.5228 146.806 63H138.806C138.806 72.9411 146.865 81 156.806 81V73Z" fill="white" mask="url(#path-2-outside-1)"/>
<path d="M150.442 37.3638C146.927 33.8491 146.927 28.1506 150.442 24.6359C153.957 21.1212 159.655 21.1212 163.17 24.6359C164.784 26.2499 165.657 28.3244 165.788 30.4364C165.943 32.9237 165.07 35.4631 163.17 37.3638C159.655 40.8786 153.957 40.8786 150.442 37.3638Z" fill="url(#paint0_linear)"/>
<path fill-rule="evenodd" clip-rule="evenodd" d="M156.806 44C149.626 44 143.806 38.1797 143.806 31C143.806 23.8203 149.626 18 156.806 18C160.1 18 163.116 19.2305 165.406 21.251C168.098 23.6273 169.806 27.1167 169.806 31C169.806 38.1797 163.985 44 156.806 44ZM147.806 31C147.806 35.9706 151.835 40 156.806 40C161.776 40 165.806 35.9706 165.806 31C165.806 28.3119 164.627 25.8991 162.759 24.25C161.172 22.8497 159.088 22 156.806 22C151.835 22 147.806 26.0294 147.806 31Z" fill="white"/>
<path d="M422.806 16.2H420.806V18.2V91V93H422.806H455.878C464.036 93 471.316 91.4603 477.668 88.3209L477.676 88.3168C484.089 85.1105 489.094 80.5987 492.63 74.7823C496.245 68.9506 498.022 62.1996 498.022 54.6C498.022 47.0004 496.245 40.2494 492.63 34.4177C489.094 28.6008 484.087 24.1222 477.672 20.985C471.319 17.7749 464.037 16.2 455.878 16.2H422.806ZM471.035 39.6168L471.047 39.6282L471.059 39.6394C474.946 43.2177 476.966 48.1231 476.966 54.6C476.966 61.076 474.946 66.0245 471.047 69.6762C467.201 73.2729 461.944 75.168 455.046 75.168H441.654V34.032H455.046C461.935 34.032 467.188 35.9564 471.035 39.6168ZM532.166 51.5321C533.404 52.6104 534.238 54.0956 534.557 56.136H523.808C515.451 56.136 508.864 57.6462 504.403 61.0113L504.396 61.0165L504.389 61.0217C499.979 64.4081 497.784 69.1033 497.784 74.88C497.784 78.4983 498.713 81.7933 500.602 84.7043C502.495 87.6226 505.194 89.8663 508.61 91.4603L508.617 91.4639L508.625 91.4673C512.127 93.0661 516.166 93.832 520.688 93.832C526.932 93.832 532.044 92.4219 535.744 89.409V91V93H537.744H552.928H554.928V91V59.072C554.928 50.3887 552.494 43.5492 547.287 38.9602C542.154 34.3669 534.955 32.216 525.992 32.216C521.308 32.216 516.728 32.8287 512.255 34.0551L512.247 34.0574C507.835 35.2868 503.979 37.0391 500.712 39.341L499.29 40.3428L500.085 41.8899L505.909 53.2259L507.022 55.3926L508.93 53.879C510.722 52.4576 512.924 51.314 515.572 50.4744L515.586 50.47L515.6 50.4653C518.314 49.5606 521.047 49.112 523.808 49.112C527.845 49.112 530.5 50.0281 532.139 51.5082L532.152 51.5203L532.166 51.5321ZM600.728 89.9043L601.949 89.0015L601.407 87.5826L597.039 76.1426L596.081 73.6326L593.952 75.2707C592.543 76.3544 590.803 76.936 588.619 76.936C586.818 76.936 585.655 76.4486 584.873 75.6886C584.139 74.8446 583.651 73.5508 583.651 71.552V50.776H595.587H597.587V48.776V36.296V34.296H595.587H583.651V22.672V20.672H581.651H565.427H563.427V22.672V34.296H556.795H554.795V36.296V48.776V50.776H556.795H563.427V71.76C563.427 78.7081 565.337 84.3034 569.463 88.1915L569.47 88.1981L569.477 88.2045C573.63 92.0435 579.341 93.832 586.331 93.832C589.041 93.832 591.627 93.5389 594.082 92.9437L594.103 92.9387L594.123 92.9334C596.67 92.2591 598.889 91.2632 600.728 89.9043ZM633.229 51.5321C634.467 52.6104 635.301 54.0956 635.62 56.136H624.87C616.514 56.136 609.927 57.6462 605.466 61.0113L605.459 61.0165L605.452 61.0217C601.042 64.4081 598.846 69.1033 598.846 74.88C598.846 78.4983 599.776 81.7933 601.664 84.7043C603.557 87.6226 606.257 89.8663 609.673 91.4603L609.68 91.4639L609.688 91.4673C613.19 93.0661 617.228 93.832 621.75 93.832C627.995 93.832 633.107 92.4219 636.806 89.409V91V93H638.806H653.99H655.99V91V59.072C655.99 50.3889 653.557 43.5496 648.351 38.9607C643.217 34.367 636.018 32.216 627.054 32.216C622.371 32.216 617.79 32.8287 613.317 34.0551L613.309 34.0574C608.898 35.2868 605.042 37.0391 601.774 39.341L600.353 40.3428L601.147 41.8899L606.971 53.2259L608.085 55.3926L609.993 53.879C611.785 52.4576 613.987 51.314 616.635 50.4744L616.649 50.47L616.663 50.4653C619.377 49.5606 622.11 49.112 624.87 49.112C628.908 49.112 631.563 50.0281 633.202 51.5082L633.215 51.5203L633.229 51.5321ZM531.102 77.3224C529.297 78.3656 527.197 78.912 524.744 78.912C522.184 78.912 520.394 78.3849 519.179 77.5393C518.109 76.6871 517.592 75.6193 517.592 74.152C517.592 72.5642 518.146 71.5917 519.185 70.91C520.37 70.1321 522.403 69.6 525.576 69.6H534.704V72.9551C533.942 74.8806 532.745 76.3103 531.102 77.3224ZM632.165 77.3223C630.36 78.3655 628.259 78.912 625.806 78.912C623.247 78.912 621.457 78.3849 620.242 77.5394C619.172 76.6871 618.654 75.6194 618.654 74.152C618.654 72.5642 619.209 71.5917 620.248 70.91C621.433 70.1321 623.465 69.6 626.638 69.6H635.766V72.9552C635.005 74.8806 633.808 76.3102 632.165 77.3223Z" fill="black" stroke="white" stroke-width="4"/>
<defs>
<linearGradient id="paint0_linear" x1="163.17" y1="37.3638" x2="150.442" y2="24.6359" gradientUnits="userSpaceOnUse">
<stop stop-color="#033049"/>
<stop offset="1" stop-color="#00C2FF"/>
</linearGradient>
</defs>
</svg>
