<svg width="652" height="80" viewBox="0 0 652 80" fill="none" xmlns="http://www.w3.org/2000/svg">
<rect width="652" height="80" fill="white"/>
<path d="M57.7065 59.4H23.9065L17.4585 75H0.194458L32.6425 2.19995H49.2825L81.8345 75H64.1545L57.7065 59.4ZM52.4025 46.608L40.8585 18.736L29.3145 46.608H52.4025Z" fill="black"/>
<path d="M119.664 72.296C118.069 73.4746 116.093 74.376 113.736 75C111.448 75.5546 109.021 75.832 106.456 75.832C99.7996 75.832 94.6343 74.1333 90.9596 70.736C87.3543 67.3386 85.5517 62.3466 85.5517 55.76V32.776H76.9196V20.296H85.5517V6.67196H101.776V20.296H115.712V32.776H101.776V55.552C101.776 57.9093 102.365 59.7466 103.544 61.064C104.792 62.312 106.525 62.936 108.744 62.936C111.309 62.936 113.493 62.2426 115.296 60.856L119.664 72.296Z" fill="black"/>
<path d="M149.508 75.832C143.615 75.832 138.311 74.6186 133.596 72.192C128.951 69.696 125.311 66.264 122.676 61.896C120.042 57.528 118.724 52.5706 118.724 47.0239C118.724 41.4773 120.042 36.52 122.676 32.152C125.311 27.784 128.951 24.3866 133.596 21.96C138.311 19.464 143.615 18.216 149.508 18.216C155.402 18.216 160.671 19.464 165.316 21.96C169.962 24.3866 173.602 27.784 176.236 32.152C178.871 36.52 180.188 41.4773 180.188 47.0239C180.188 52.5706 178.871 57.528 176.236 61.896C173.602 66.264 169.962 69.696 165.316 72.192C160.671 74.6186 155.402 75.832 149.508 75.832ZM149.508 62.52C153.668 62.52 157.066 61.1333 159.7 58.36C162.404 55.5173 163.756 51.7386 163.756 47.0239C163.756 42.3093 162.404 38.5653 159.7 35.792C157.066 32.9493 153.668 31.528 149.508 31.528C145.348 31.528 141.916 32.9493 139.212 35.792C136.508 38.5653 135.156 42.3093 135.156 47.0239C135.156 51.7386 136.508 55.5173 139.212 58.36C141.916 61.1333 145.348 62.52 149.508 62.52Z" fill="black"/>
<path d="M258.529 18.216C265.532 18.216 271.078 20.296 275.169 24.456C279.329 28.5466 281.409 34.7173 281.409 42.9679V75H265.185V45.464C265.185 41.0266 264.249 37.7333 262.377 35.584C260.574 33.3653 257.974 32.256 254.577 32.256C250.764 32.256 247.748 33.504 245.529 36C243.31 38.4266 242.201 42.0666 242.201 46.92V75H225.977V45.464C225.977 36.6586 222.441 32.256 215.369 32.256C211.625 32.256 208.644 33.504 206.425 36C204.206 38.4266 203.097 42.0666 203.097 46.92V75H186.873V19.048H202.369V25.496C204.449 23.1386 206.98 21.336 209.961 20.088C213.012 18.84 216.34 18.216 219.945 18.216C223.897 18.216 227.468 19.0133 230.657 20.608C233.846 22.1333 236.412 24.3866 238.353 27.368C240.641 24.456 243.518 22.2026 246.985 20.608C250.521 19.0133 254.369 18.216 258.529 18.216Z" fill="black"/>
<path d="M291.791 19.048H308.015V75H291.791V19.048Z" fill="black"/>
<path d="M345.952 75.832C339.99 75.832 334.616 74.6186 329.832 72.192C325.118 69.696 321.408 66.264 318.704 61.896C316.07 57.528 314.752 52.5706 314.752 47.0239C314.752 41.4773 316.07 36.52 318.704 32.152C321.408 27.784 325.118 24.3866 329.832 21.96C334.616 19.464 339.99 18.216 345.952 18.216C351.846 18.216 356.976 19.464 361.344 21.96C365.782 24.3866 369.006 27.888 371.016 32.464L358.432 39.224C355.52 34.0933 351.326 31.528 345.848 31.528C341.619 31.528 338.118 32.9146 335.344 35.688C332.571 38.4613 331.184 42.2399 331.184 47.0239C331.184 51.808 332.571 55.5866 335.344 58.36C338.118 61.1333 341.619 62.52 345.848 62.52C351.395 62.52 355.59 59.9546 358.432 54.824L371.016 61.688C369.006 66.1253 365.782 69.592 361.344 72.088C356.976 74.584 351.846 75.832 345.952 75.832Z" fill="black"/>
<path d="M184 45C184 63.2254 169.225 78 151 78C132.775 78 118 63.2254 118 45C118 26.7746 132.775 12 151 12C169.225 12 184 26.7746 184 45Z" fill="white"/>
<path d="M180 46C180 62.5685 166.569 76 150 76C133.431 76 120 62.5685 120 46C120 29.4315 133.431 16 150 16C166.569 16 180 29.4315 180 46Z" fill="black"/>
<path d="M164 46C164 53.732 157.732 60 150 60C142.268 60 136 53.732 136 46C136 38.268 142.268 32 150 32C157.732 32 164 38.268 164 46Z" fill="white"/>
<path d="M150 23C145.029 23 141 18.9706 141 14C141 9.02944 145.029 5 150 5C152.283 5 154.367 5.84968 155.953 7.25C157.822 8.89912 159 11.3119 159 14C159 18.9706 154.971 23 150 23Z" fill="url(#paint0_linear)"/>
<path fill-rule="evenodd" clip-rule="evenodd" d="M150 27C142.82 27 137 21.1797 137 14C137 6.8203 142.82 0.999999 150 0.999999C153.294 1 156.311 2.2305 158.6 4.25104C161.292 6.62726 163 10.1167 163 14C163 21.1797 157.18 27 150 27ZM141 14C141 18.9706 145.029 23 150 23C154.971 23 159 18.9706 159 14C159 11.3119 157.822 8.89912 155.953 7.25C154.367 5.84968 152.283 5 150 5C145.029 5 141 9.02944 141 14Z" fill="white"/>
<path d="M416 1.19995H449.072C456.976 1.19995 463.944 2.72528 469.976 5.77595C476.077 8.75729 480.792 12.9866 484.12 18.464C487.517 23.9413 489.216 30.32 489.216 37.6C489.216 44.88 487.517 51.2586 484.12 56.736C480.792 62.2133 476.077 66.4773 469.976 69.528C463.944 72.5093 456.976 74 449.072 74H416V1.19995ZM448.24 60.168C455.52 60.168 461.309 58.1573 465.608 54.136C469.976 50.0453 472.16 44.5333 472.16 37.6C472.16 30.6666 469.976 25.1893 465.608 21.168C461.309 17.0773 455.52 15.032 448.24 15.032H432.848V60.168H448.24Z" fill="black"/>
<path d="M519.186 17.216C527.853 17.216 534.509 19.296 539.154 23.456C543.799 27.5466 546.122 33.752 546.122 42.072V74H530.938V67.032C527.887 72.232 522.202 74.832 513.882 74.832C509.583 74.832 505.839 74.104 502.65 72.648C499.53 71.192 497.138 69.1813 495.474 66.616C493.81 64.0506 492.978 61.1386 492.978 57.88C492.978 52.68 494.919 48.5893 498.802 45.608C502.754 42.6266 508.821 41.136 517.002 41.136H529.898C529.898 37.6 528.823 34.896 526.674 33.024C524.525 31.0826 521.301 30.112 517.002 30.112C514.021 30.112 511.074 30.5973 508.162 31.568C505.319 32.4693 502.893 33.7173 500.882 35.312L495.058 23.976C498.109 21.8266 501.749 20.1626 505.978 18.9839C510.277 17.8053 514.679 17.216 519.186 17.216ZM517.938 63.912C520.711 63.912 523.173 63.288 525.322 62.04C527.471 60.7226 528.997 58.816 529.898 56.32V50.6H518.77C512.114 50.6 508.786 52.784 508.786 57.152C508.786 59.232 509.583 60.896 511.178 62.144C512.842 63.3226 515.095 63.912 517.938 63.912Z" fill="black"/>
<path d="M592.733 71.296C591.139 72.4746 589.163 73.376 586.805 74C584.517 74.5546 582.091 74.832 579.525 74.832C572.869 74.832 567.704 73.1333 564.029 69.736C560.424 66.3386 558.621 61.3466 558.621 54.76V31.776H549.989V19.296H558.621V5.67196H574.845V19.296H588.781V31.776H574.845V54.552C574.845 56.9093 575.435 58.7466 576.613 60.064C577.861 61.312 579.595 61.936 581.813 61.936C584.379 61.936 586.563 61.2426 588.365 59.856L592.733 71.296Z" fill="black"/>
<path d="M620.249 17.216C628.915 17.216 635.571 19.296 640.217 23.456C644.862 27.5466 647.185 33.752 647.185 42.072V74H632.001V67.032C628.95 72.232 623.265 74.832 614.945 74.832C610.646 74.832 606.902 74.104 603.713 72.648C600.593 71.192 598.201 69.1813 596.537 66.616C594.873 64.0506 594.041 61.1386 594.041 57.88C594.041 52.68 595.982 48.5893 599.865 45.608C603.817 42.6266 609.883 41.136 618.065 41.136H630.961C630.961 37.6 629.886 34.896 627.737 33.024C625.587 31.0826 622.363 30.112 618.065 30.112C615.083 30.112 612.137 30.5973 609.225 31.568C606.382 32.4693 603.955 33.7173 601.945 35.312L596.121 23.976C599.171 21.8266 602.811 20.1626 607.041 18.9839C611.339 17.8053 615.742 17.216 620.249 17.216ZM619.001 63.912C621.774 63.912 624.235 63.288 626.385 62.04C628.534 60.7226 630.059 58.816 630.961 56.32V50.6H619.833C613.177 50.6 609.849 52.784 609.849 57.152C609.849 59.232 610.646 60.896 612.241 62.144C613.905 63.3226 616.158 63.912 619.001 63.912Z" fill="black"/>
<defs>
<linearGradient id="paint0_linear" x1="159" y1="14" x2="141" y2="14" gradientUnits="userSpaceOnUse">
<stop stop-color="#01ECFF"/>
<stop offset="1" stop-color="#2210FF"/>
</linearGradient>
</defs>
</svg>
