<svg width="1963" height="1024" viewBox="0 0 1963 1024" fill="none" xmlns="http://www.w3.org/2000/svg">
<circle cx="806" cy="374" r="323" fill="#B3B4E2"/>
<circle cx="1166" cy="383" r="314" fill="#99C0B7"/>
<path fill-rule="evenodd" clip-rule="evenodd" d="M987.396 641.292C1072.86 583.177 1129 485.144 1129 374C1129 268.641 1078.56 175.065 1000.5 116.105C911.353 171.502 852 270.32 852 383C852 490.064 905.584 584.613 987.396 641.292Z" fill="#6B94A6"/>
<circle cx="982" cy="664" r="314" fill="#BD99C0"/>
<path fill-rule="evenodd" clip-rule="evenodd" d="M852.038 378.073C891.641 360.044 935.648 350 982 350C1155.42 350 1296 490.583 1296 664C1296 665.645 1295.99 667.287 1295.96 668.927C1256.36 686.956 1212.35 697 1166 697C992.583 697 852 556.417 852 383C852 381.355 852.013 379.713 852.038 378.073Z" fill="#807395"/>
<path fill-rule="evenodd" clip-rule="evenodd" d="M668.007 666.123C668.002 665.416 668 664.708 668 664C668 490.583 808.583 350 982 350C1035.02 350 1084.97 363.14 1128.77 386.341C1122.28 559.01 980.256 697 806 697C756.633 697 709.852 685.925 668.007 666.123Z" fill="#906CAF"/>
<path fill-rule="evenodd" clip-rule="evenodd" d="M1128.77 386.341C1084.97 363.14 1035.02 350 982 350C935.648 350 891.641 360.044 852.038 378.073C852.013 379.713 852 381.355 852 383C852 490.064 905.584 584.613 987.396 641.292C1069.69 585.338 1124.79 492.379 1128.77 386.341Z" fill="#65598B"/>
<path d="M631.514 322L625.844 313.81H625.508H619.586V322H612.782V292.6H625.508C628.112 292.6 630.366 293.034 632.27 293.902C634.202 294.77 635.686 296.002 636.722 297.598C637.758 299.194 638.276 301.084 638.276 303.268C638.276 305.452 637.744 307.342 636.68 308.938C635.644 310.506 634.16 311.71 632.228 312.55L638.822 322H631.514ZM631.388 303.268C631.388 301.616 630.856 300.356 629.792 299.488C628.728 298.592 627.174 298.144 625.13 298.144H619.586V308.392H625.13C627.174 308.392 628.728 307.944 629.792 307.048C630.856 306.152 631.388 304.892 631.388 303.268ZM643.667 292.6H657.023C660.215 292.6 663.029 293.216 665.465 294.448C667.929 295.652 669.833 297.36 671.177 299.572C672.549 301.784 673.235 304.36 673.235 307.3C673.235 310.24 672.549 312.816 671.177 315.028C669.833 317.24 667.929 318.962 665.465 320.194C663.029 321.398 660.215 322 657.023 322H643.667V292.6ZM656.687 316.414C659.627 316.414 661.965 315.602 663.701 313.978C665.465 312.326 666.347 310.1 666.347 307.3C666.347 304.5 665.465 302.288 663.701 300.664C661.965 299.012 659.627 298.186 656.687 298.186H650.471V316.414H656.687ZM685.17 298.06V305.83H698.778V311.29H685.17V322H678.366V292.6H700.584V298.06H685.17Z" fill="black"/>
<path d="M907.624 451.75H889.749L886.339 460H877.209L894.369 421.5H903.169L920.384 460H911.034L907.624 451.75ZM904.819 444.985L898.714 430.245L892.609 444.985H904.819ZM942.589 458.57C941.746 459.193 940.701 459.67 939.454 460C938.244 460.293 936.961 460.44 935.604 460.44C932.084 460.44 929.353 459.542 927.409 457.745C925.503 455.948 924.549 453.308 924.549 449.825V437.67H919.984V431.07H924.549V423.865H933.129V431.07H940.499V437.67H933.129V449.715C933.129 450.962 933.441 451.933 934.064 452.63C934.724 453.29 935.641 453.62 936.814 453.62C938.171 453.62 939.326 453.253 940.279 452.52L942.589 458.57ZM960.573 460.44C957.456 460.44 954.651 459.798 952.158 458.515C949.701 457.195 947.776 455.38 946.383 453.07C944.989 450.76 944.293 448.138 944.293 445.205C944.293 442.272 944.989 439.65 946.383 437.34C947.776 435.03 949.701 433.233 952.158 431.95C954.651 430.63 957.456 429.97 960.573 429.97C963.689 429.97 966.476 430.63 968.933 431.95C971.389 433.233 973.314 435.03 974.708 437.34C976.101 439.65 976.798 442.272 976.798 445.205C976.798 448.138 976.101 450.76 974.708 453.07C973.314 455.38 971.389 457.195 968.933 458.515C966.476 459.798 963.689 460.44 960.573 460.44ZM960.573 453.4C962.773 453.4 964.569 452.667 965.963 451.2C967.393 449.697 968.108 447.698 968.108 445.205C968.108 442.712 967.393 440.732 965.963 439.265C964.569 437.762 962.773 437.01 960.573 437.01C958.373 437.01 956.558 437.762 955.128 439.265C953.698 440.732 952.983 442.712 952.983 445.205C952.983 447.698 953.698 449.697 955.128 451.2C956.558 452.667 958.373 453.4 960.573 453.4ZM1020.43 429.97C1024.13 429.97 1027.06 431.07 1029.23 433.27C1031.43 435.433 1032.53 438.697 1032.53 443.06V460H1023.95V444.38C1023.95 442.033 1023.45 440.292 1022.46 439.155C1021.51 437.982 1020.13 437.395 1018.34 437.395C1016.32 437.395 1014.73 438.055 1013.55 439.375C1012.38 440.658 1011.79 442.583 1011.79 445.15V460H1003.21V444.38C1003.21 439.723 1001.34 437.395 997.603 437.395C995.623 437.395 994.046 438.055 992.873 439.375C991.699 440.658 991.113 442.583 991.113 445.15V460H982.533V430.41H990.728V433.82C991.828 432.573 993.166 431.62 994.743 430.96C996.356 430.3 998.116 429.97 1000.02 429.97C1002.11 429.97 1004 430.392 1005.69 431.235C1007.37 432.042 1008.73 433.233 1009.76 434.81C1010.97 433.27 1012.49 432.078 1014.32 431.235C1016.19 430.392 1018.23 429.97 1020.43 429.97ZM1040.22 430.41H1048.8V460H1040.22V430.41ZM1044.51 426.285C1042.93 426.285 1041.65 425.827 1040.66 424.91C1039.67 423.993 1039.17 422.857 1039.17 421.5C1039.17 420.143 1039.67 419.007 1040.66 418.09C1041.65 417.173 1042.93 416.715 1044.51 416.715C1046.08 416.715 1047.37 417.155 1048.36 418.035C1049.35 418.915 1049.84 420.015 1049.84 421.335C1049.84 422.765 1049.35 423.957 1048.36 424.91C1047.37 425.827 1046.08 426.285 1044.51 426.285ZM1071.06 460.44C1067.91 460.44 1065.07 459.798 1062.54 458.515C1060.04 457.195 1058.08 455.38 1056.65 453.07C1055.26 450.76 1054.56 448.138 1054.56 445.205C1054.56 442.272 1055.26 439.65 1056.65 437.34C1058.08 435.03 1060.04 433.233 1062.54 431.95C1065.07 430.63 1067.91 429.97 1071.06 429.97C1074.18 429.97 1076.89 430.63 1079.2 431.95C1081.55 433.233 1083.25 435.085 1084.32 437.505L1077.66 441.08C1076.12 438.367 1073.9 437.01 1071.01 437.01C1068.77 437.01 1066.92 437.743 1065.45 439.21C1063.98 440.677 1063.25 442.675 1063.25 445.205C1063.25 447.735 1063.98 449.733 1065.45 451.2C1066.92 452.667 1068.77 453.4 1071.01 453.4C1073.94 453.4 1076.16 452.043 1077.66 449.33L1084.32 452.96C1083.25 455.307 1081.55 457.14 1079.2 458.46C1076.89 459.78 1074.18 460.44 1071.06 460.44ZM917.449 488.5H934.939C939.119 488.5 942.804 489.307 945.994 490.92C949.221 492.497 951.714 494.733 953.474 497.63C955.271 500.527 956.169 503.9 956.169 507.75C956.169 511.6 955.271 514.973 953.474 517.87C951.714 520.767 949.221 523.022 945.994 524.635C942.804 526.212 939.119 527 934.939 527H917.449V488.5ZM934.499 519.685C938.349 519.685 941.411 518.622 943.684 516.495C945.994 514.332 947.149 511.417 947.149 507.75C947.149 504.083 945.994 501.187 943.684 499.06C941.411 496.897 938.349 495.815 934.499 495.815H926.359V519.685H934.499ZM974.219 496.97C978.802 496.97 982.322 498.07 984.779 500.27C987.235 502.433 988.464 505.715 988.464 510.115V527H980.434V523.315C978.82 526.065 975.814 527.44 971.414 527.44C969.14 527.44 967.16 527.055 965.474 526.285C963.824 525.515 962.559 524.452 961.679 523.095C960.799 521.738 960.359 520.198 960.359 518.475C960.359 515.725 961.385 513.562 963.439 511.985C965.529 510.408 968.737 509.62 973.064 509.62H979.884C979.884 507.75 979.315 506.32 978.179 505.33C977.042 504.303 975.337 503.79 973.064 503.79C971.487 503.79 969.929 504.047 968.389 504.56C966.885 505.037 965.602 505.697 964.539 506.54L961.459 500.545C963.072 499.408 964.997 498.528 967.234 497.905C969.507 497.282 971.835 496.97 974.219 496.97ZM973.559 521.665C975.025 521.665 976.327 521.335 977.464 520.675C978.6 519.978 979.407 518.97 979.884 517.65V514.625H973.999C970.479 514.625 968.719 515.78 968.719 518.09C968.719 519.19 969.14 520.07 969.984 520.73C970.864 521.353 972.055 521.665 973.559 521.665ZM1015.31 525.57C1014.47 526.193 1013.43 526.67 1012.18 527C1010.97 527.293 1009.69 527.44 1008.33 527.44C1004.81 527.44 1002.08 526.542 1000.13 524.745C998.227 522.948 997.274 520.308 997.274 516.825V504.67H992.709V498.07H997.274V490.865H1005.85V498.07H1013.22V504.67H1005.85V516.715C1005.85 517.962 1006.17 518.933 1006.79 519.63C1007.45 520.29 1008.37 520.62 1009.54 520.62C1010.9 520.62 1012.05 520.253 1013 519.52L1015.31 525.57ZM1032.07 496.97C1036.65 496.97 1040.17 498.07 1042.63 500.27C1045.08 502.433 1046.31 505.715 1046.31 510.115V527H1038.28V523.315C1036.67 526.065 1033.66 527.44 1029.26 527.44C1026.99 527.44 1025.01 527.055 1023.32 526.285C1021.67 525.515 1020.41 524.452 1019.53 523.095C1018.65 521.738 1018.21 520.198 1018.21 518.475C1018.21 515.725 1019.23 513.562 1021.29 511.985C1023.38 510.408 1026.58 509.62 1030.91 509.62H1037.73C1037.73 507.75 1037.16 506.32 1036.03 505.33C1034.89 504.303 1033.18 503.79 1030.91 503.79C1029.33 503.79 1027.78 504.047 1026.24 504.56C1024.73 505.037 1023.45 505.697 1022.39 506.54L1019.31 500.545C1020.92 499.408 1022.84 498.528 1025.08 497.905C1027.35 497.282 1029.68 496.97 1032.07 496.97ZM1031.41 521.665C1032.87 521.665 1034.17 521.335 1035.31 520.675C1036.45 519.978 1037.25 518.97 1037.73 517.65V514.625H1031.85C1028.33 514.625 1026.57 515.78 1026.57 518.09C1026.57 519.19 1026.99 520.07 1027.83 520.73C1028.71 521.353 1029.9 521.665 1031.41 521.665Z" fill="white"/>
<path d="M1131.3 585.252C1129.62 585.252 1128.06 584.888 1126.64 584.16C1125.21 583.432 1124.05 582.396 1123.15 581.052L1125 578.952C1126.62 581.36 1128.74 582.564 1131.34 582.564C1134.98 582.564 1136.8 580.408 1136.8 576.096V558.288H1126.05V555.6H1139.87V575.97C1139.87 579.05 1139.14 581.374 1137.68 582.942C1136.25 584.482 1134.13 585.252 1131.3 585.252ZM1157.3 585.252C1155.11 585.252 1153.01 584.902 1151 584.202C1149.01 583.502 1147.47 582.578 1146.38 581.43L1147.59 579.036C1148.66 580.1 1150.07 580.968 1151.84 581.64C1153.6 582.284 1155.42 582.606 1157.3 582.606C1159.93 582.606 1161.9 582.13 1163.22 581.178C1164.53 580.198 1165.19 578.938 1165.19 577.398C1165.19 576.222 1164.83 575.284 1164.1 574.584C1163.4 573.884 1162.53 573.352 1161.5 572.988C1160.46 572.596 1159.02 572.176 1157.17 571.728C1154.96 571.168 1153.19 570.636 1151.88 570.132C1150.56 569.6 1149.43 568.802 1148.48 567.738C1147.55 566.674 1147.09 565.232 1147.09 563.412C1147.09 561.928 1147.48 560.584 1148.27 559.38C1149.05 558.148 1150.25 557.168 1151.88 556.44C1153.5 555.712 1155.52 555.348 1157.93 555.348C1159.61 555.348 1161.24 555.586 1162.84 556.062C1164.46 556.51 1165.86 557.14 1167.04 557.952L1165.99 560.43C1164.76 559.618 1163.44 559.016 1162.04 558.624C1160.64 558.204 1159.27 557.994 1157.93 557.994C1155.35 557.994 1153.4 558.498 1152.09 559.506C1150.8 560.486 1150.16 561.76 1150.16 563.328C1150.16 564.504 1150.51 565.456 1151.21 566.184C1151.93 566.884 1152.83 567.43 1153.89 567.822C1154.99 568.186 1156.44 568.592 1158.26 569.04C1160.42 569.572 1162.15 570.104 1163.47 570.636C1164.81 571.14 1165.95 571.924 1166.87 572.988C1167.8 574.024 1168.26 575.438 1168.26 577.23C1168.26 578.714 1167.85 580.072 1167.04 581.304C1166.26 582.508 1165.04 583.474 1163.39 584.202C1161.73 584.902 1159.7 585.252 1157.3 585.252ZM1187.88 585.252C1184.97 585.252 1182.32 584.608 1179.94 583.32C1177.59 582.004 1175.74 580.212 1174.4 577.944C1173.08 575.676 1172.43 573.128 1172.43 570.3C1172.43 567.472 1173.08 564.924 1174.4 562.656C1175.74 560.388 1177.59 558.61 1179.94 557.322C1182.32 556.006 1184.97 555.348 1187.88 555.348C1190.79 555.348 1193.41 555.992 1195.74 557.28C1198.09 558.568 1199.94 560.36 1201.28 562.656C1202.62 564.924 1203.3 567.472 1203.3 570.3C1203.3 573.128 1202.62 575.69 1201.28 577.986C1199.94 580.254 1198.09 582.032 1195.74 583.32C1193.41 584.608 1190.79 585.252 1187.88 585.252ZM1187.88 582.48C1190.21 582.48 1192.31 581.962 1194.18 580.926C1196.06 579.862 1197.53 578.406 1198.59 576.558C1199.66 574.682 1200.19 572.596 1200.19 570.3C1200.19 568.004 1199.66 565.932 1198.59 564.084C1197.53 562.208 1196.06 560.752 1194.18 559.716C1192.31 558.652 1190.21 558.12 1187.88 558.12C1185.56 558.12 1183.44 558.652 1181.54 559.716C1179.66 560.752 1178.18 562.208 1177.09 564.084C1176.02 565.932 1175.49 568.004 1175.49 570.3C1175.49 572.596 1176.02 574.682 1177.09 576.558C1178.18 578.406 1179.66 579.862 1181.54 580.926C1183.44 581.962 1185.56 582.48 1187.88 582.48ZM1234.83 555.6V585H1232.27L1213.37 561.144V585H1210.26V555.6H1212.82L1231.77 579.456V555.6H1234.83ZM1108.05 636.21C1106.26 636.21 1104.54 635.958 1102.89 635.454C1101.26 634.922 1099.99 634.264 1099.06 633.48L1100.41 631.128C1101.33 631.856 1102.49 632.458 1103.89 632.934C1105.29 633.382 1106.75 633.606 1108.26 633.606C1110.28 633.606 1111.76 633.298 1112.71 632.682C1113.69 632.038 1114.18 631.142 1114.18 629.994C1114.18 629.182 1113.92 628.552 1113.39 628.104C1112.85 627.628 1112.18 627.278 1111.37 627.054C1110.56 626.802 1109.48 626.564 1108.14 626.34C1106.34 626.004 1104.9 625.668 1103.81 625.332C1102.72 624.968 1101.78 624.366 1101 623.526C1100.24 622.686 1099.86 621.524 1099.86 620.04C1099.86 618.192 1100.63 616.68 1102.17 615.504C1103.71 614.328 1105.85 613.74 1108.6 613.74C1110.03 613.74 1111.45 613.936 1112.88 614.328C1114.31 614.692 1115.49 615.182 1116.41 615.798L1115.11 618.192C1113.29 616.932 1111.12 616.302 1108.6 616.302C1106.69 616.302 1105.25 616.638 1104.27 617.31C1103.32 617.982 1102.84 618.864 1102.84 619.956C1102.84 620.796 1103.11 621.468 1103.64 621.972C1104.2 622.476 1104.89 622.854 1105.7 623.106C1106.51 623.33 1107.63 623.568 1109.06 623.82C1110.82 624.156 1112.24 624.492 1113.3 624.828C1114.37 625.164 1115.28 625.738 1116.03 626.55C1116.79 627.362 1117.17 628.482 1117.17 629.91C1117.17 631.842 1116.35 633.382 1114.73 634.53C1113.13 635.65 1110.91 636.21 1108.05 636.21ZM1131.83 636.21C1129.65 636.21 1127.69 635.734 1125.95 634.782C1124.25 633.83 1122.9 632.5 1121.92 630.792C1120.94 629.056 1120.45 627.11 1120.45 624.954C1120.45 622.798 1120.94 620.866 1121.92 619.158C1122.9 617.45 1124.25 616.12 1125.95 615.168C1127.69 614.216 1129.65 613.74 1131.83 613.74C1133.74 613.74 1135.43 614.118 1136.92 614.874C1138.43 615.602 1139.62 616.68 1140.49 618.108L1138.26 619.62C1137.53 618.528 1136.61 617.716 1135.49 617.184C1134.37 616.624 1133.15 616.344 1131.83 616.344C1130.24 616.344 1128.8 616.708 1127.51 617.436C1126.25 618.136 1125.25 619.144 1124.53 620.46C1123.83 621.776 1123.48 623.274 1123.48 624.954C1123.48 626.662 1123.83 628.174 1124.53 629.49C1125.25 630.778 1126.25 631.786 1127.51 632.514C1128.8 633.214 1130.24 633.564 1131.83 633.564C1133.15 633.564 1134.37 633.298 1135.49 632.766C1136.61 632.234 1137.53 631.422 1138.26 630.33L1140.49 631.842C1139.62 633.27 1138.43 634.362 1136.92 635.118C1135.4 635.846 1133.71 636.21 1131.83 636.21ZM1157.27 613.74C1160.04 613.74 1162.24 614.552 1163.87 616.176C1165.52 617.772 1166.34 620.11 1166.34 623.19V636H1163.36V623.484C1163.36 621.188 1162.79 619.438 1161.64 618.234C1160.49 617.03 1158.85 616.428 1156.73 616.428C1154.35 616.428 1152.46 617.142 1151.06 618.57C1149.68 619.97 1149 621.916 1149 624.408V636H1146.02V604.836H1149V617.772C1149.81 616.484 1150.93 615.49 1152.36 614.79C1153.79 614.09 1155.42 613.74 1157.27 613.74ZM1193.76 625.878H1175.28C1175.45 628.174 1176.33 630.036 1177.92 631.464C1179.52 632.864 1181.54 633.564 1183.97 633.564C1185.34 633.564 1186.6 633.326 1187.75 632.85C1188.9 632.346 1189.89 631.618 1190.73 630.666L1192.41 632.598C1191.43 633.774 1190.2 634.67 1188.72 635.286C1187.26 635.902 1185.65 636.21 1183.89 636.21C1181.62 636.21 1179.6 635.734 1177.84 634.782C1176.1 633.802 1174.75 632.458 1173.77 630.75C1172.79 629.042 1172.3 627.11 1172.3 624.954C1172.3 622.798 1172.76 620.866 1173.68 619.158C1174.63 617.45 1175.92 616.12 1177.55 615.168C1179.2 614.216 1181.05 613.74 1183.09 613.74C1185.13 613.74 1186.97 614.216 1188.59 615.168C1190.22 616.12 1191.49 617.45 1192.41 619.158C1193.34 620.838 1193.8 622.77 1193.8 624.954L1193.76 625.878ZM1183.09 616.302C1180.96 616.302 1179.17 616.988 1177.71 618.36C1176.29 619.704 1175.47 621.468 1175.28 623.652H1190.94C1190.75 621.468 1189.92 619.704 1188.47 618.36C1187.04 616.988 1185.25 616.302 1183.09 616.302ZM1227.42 613.74C1230.19 613.74 1232.36 614.538 1233.93 616.134C1235.53 617.73 1236.33 620.082 1236.33 623.19V636H1233.34V623.484C1233.34 621.188 1232.78 619.438 1231.66 618.234C1230.57 617.03 1229.02 616.428 1227 616.428C1224.71 616.428 1222.9 617.142 1221.58 618.57C1220.27 619.97 1219.61 621.916 1219.61 624.408V636H1216.63V623.484C1216.63 621.188 1216.07 619.438 1214.95 618.234C1213.86 617.03 1212.29 616.428 1210.24 616.428C1207.98 616.428 1206.17 617.142 1204.83 618.57C1203.51 619.97 1202.85 621.916 1202.85 624.408V636H1199.87V613.908H1202.73V617.94C1203.51 616.596 1204.6 615.56 1206 614.832C1207.4 614.104 1209.01 613.74 1210.83 613.74C1212.68 613.74 1214.28 614.132 1215.62 614.916C1216.99 615.7 1218.01 616.862 1218.69 618.402C1219.5 616.946 1220.66 615.812 1222.17 615C1223.71 614.16 1225.46 613.74 1227.42 613.74ZM1252.14 613.74C1255.02 613.74 1257.24 614.468 1258.78 615.924C1260.32 617.352 1261.09 619.48 1261.09 622.308V636H1258.23V632.556C1257.56 633.704 1256.56 634.6 1255.25 635.244C1253.96 635.888 1252.42 636.21 1250.63 636.21C1248.16 636.21 1246.2 635.622 1244.75 634.446C1243.29 633.27 1242.56 631.716 1242.56 629.784C1242.56 627.908 1243.24 626.396 1244.58 625.248C1245.95 624.1 1248.12 623.526 1251.09 623.526H1258.1V622.182C1258.1 620.278 1257.57 618.836 1256.51 617.856C1255.44 616.848 1253.89 616.344 1251.85 616.344C1250.45 616.344 1249.1 616.582 1247.81 617.058C1246.53 617.506 1245.42 618.136 1244.5 618.948L1243.15 616.722C1244.27 615.77 1245.62 615.042 1247.18 614.538C1248.75 614.006 1250.4 613.74 1252.14 613.74ZM1251.09 633.858C1252.77 633.858 1254.21 633.48 1255.42 632.724C1256.62 631.94 1257.52 630.82 1258.1 629.364V625.752H1251.17C1247.39 625.752 1245.5 627.068 1245.5 629.7C1245.5 630.988 1245.99 632.01 1246.97 632.766C1247.95 633.494 1249.33 633.858 1251.09 633.858Z" fill="white"/>
<path d="M747.083 585.252C744.899 585.252 742.799 584.902 740.783 584.202C738.795 583.502 737.255 582.578 736.163 581.43L737.381 579.036C738.445 580.1 739.859 580.968 741.623 581.64C743.387 582.284 745.207 582.606 747.083 582.606C749.715 582.606 751.689 582.13 753.005 581.178C754.321 580.198 754.979 578.938 754.979 577.398C754.979 576.222 754.615 575.284 753.887 574.584C753.187 573.884 752.319 573.352 751.283 572.988C750.247 572.596 748.805 572.176 746.957 571.728C744.745 571.168 742.981 570.636 741.665 570.132C740.349 569.6 739.215 568.802 738.263 567.738C737.339 566.674 736.877 565.232 736.877 563.412C736.877 561.928 737.269 560.584 738.053 559.38C738.837 558.148 740.041 557.168 741.665 556.44C743.289 555.712 745.305 555.348 747.713 555.348C749.393 555.348 751.031 555.586 752.627 556.062C754.251 556.51 755.651 557.14 756.827 557.952L755.777 560.43C754.545 559.618 753.229 559.016 751.829 558.624C750.429 558.204 749.057 557.994 747.713 557.994C745.137 557.994 743.191 558.498 741.875 559.506C740.587 560.486 739.943 561.76 739.943 563.328C739.943 564.504 740.293 565.456 740.993 566.184C741.721 566.884 742.617 567.43 743.681 567.822C744.773 568.186 746.229 568.592 748.049 569.04C750.205 569.572 751.941 570.104 753.257 570.636C754.601 571.14 755.735 571.924 756.659 572.988C757.583 574.024 758.045 575.438 758.045 577.23C758.045 578.714 757.639 580.072 756.827 581.304C756.043 582.508 754.825 583.474 753.173 584.202C751.521 584.902 749.491 585.252 747.083 585.252ZM789.387 555.6V585H786.321V571.434H767.925V585H764.817V555.6H767.925V568.704H786.321V555.6H789.387ZM817.421 577.146H801.041L797.513 585H794.279L807.719 555.6H810.785L824.225 585H820.949L817.421 577.146ZM816.287 574.626L809.231 558.834L802.175 574.626H816.287ZM841.447 585.252C838.535 585.252 835.903 584.608 833.551 583.32C831.227 582.032 829.393 580.254 828.049 577.986C826.733 575.69 826.075 573.128 826.075 570.3C826.075 567.472 826.733 564.924 828.049 562.656C829.393 560.36 831.241 558.568 833.593 557.28C835.945 555.992 838.577 555.348 841.489 555.348C843.673 555.348 845.689 555.712 847.537 556.44C849.385 557.168 850.953 558.232 852.241 559.632L850.267 561.606C847.971 559.282 845.073 558.12 841.573 558.12C839.249 558.12 837.135 558.652 835.231 559.716C833.327 560.78 831.829 562.236 830.737 564.084C829.673 565.932 829.141 568.004 829.141 570.3C829.141 572.596 829.673 574.668 830.737 576.516C831.829 578.364 833.327 579.82 835.231 580.884C837.135 581.948 839.249 582.48 841.573 582.48C845.101 582.48 847.999 581.304 850.267 578.952L852.241 580.926C850.953 582.326 849.371 583.404 847.495 584.16C845.647 584.888 843.631 585.252 841.447 585.252ZM858.866 555.6H861.974V582.312H878.438V585H858.866V555.6ZM763.695 636.252C761.511 636.252 759.411 635.902 757.395 635.202C755.407 634.502 753.867 633.578 752.775 632.43L753.993 630.036C755.057 631.1 756.471 631.968 758.235 632.64C759.999 633.284 761.819 633.606 763.695 633.606C766.327 633.606 768.301 633.13 769.617 632.178C770.933 631.198 771.591 629.938 771.591 628.398C771.591 627.222 771.227 626.284 770.499 625.584C769.799 624.884 768.931 624.352 767.895 623.988C766.859 623.596 765.417 623.176 763.569 622.728C761.357 622.168 759.593 621.636 758.277 621.132C756.961 620.6 755.827 619.802 754.875 618.738C753.951 617.674 753.489 616.232 753.489 614.412C753.489 612.928 753.881 611.584 754.665 610.38C755.449 609.148 756.653 608.168 758.277 607.44C759.901 606.712 761.917 606.348 764.325 606.348C766.005 606.348 767.643 606.586 769.239 607.062C770.863 607.51 772.263 608.14 773.439 608.952L772.389 611.43C771.157 610.618 769.841 610.016 768.441 609.624C767.041 609.204 765.669 608.994 764.325 608.994C761.749 608.994 759.803 609.498 758.487 610.506C757.199 611.486 756.555 612.76 756.555 614.328C756.555 615.504 756.905 616.456 757.605 617.184C758.333 617.884 759.229 618.43 760.293 618.822C761.385 619.186 762.841 619.592 764.661 620.04C766.817 620.572 768.553 621.104 769.869 621.636C771.213 622.14 772.347 622.924 773.271 623.988C774.195 625.024 774.657 626.438 774.657 628.23C774.657 629.714 774.251 631.072 773.439 632.304C772.655 633.508 771.437 634.474 769.785 635.202C768.133 635.902 766.103 636.252 763.695 636.252ZM805.999 606.6V636H802.933V622.434H784.537V636H781.429V606.6H784.537V619.704H802.933V606.6H805.999ZM834.201 625.878H815.721C815.889 628.174 816.771 630.036 818.367 631.464C819.963 632.864 821.979 633.564 824.415 633.564C825.787 633.564 827.047 633.326 828.195 632.85C829.343 632.346 830.337 631.618 831.177 630.666L832.857 632.598C831.877 633.774 830.645 634.67 829.161 635.286C827.705 635.902 826.095 636.21 824.331 636.21C822.063 636.21 820.047 635.734 818.283 634.782C816.547 633.802 815.189 632.458 814.209 630.75C813.229 629.042 812.739 627.11 812.739 624.954C812.739 622.798 813.201 620.866 814.125 619.158C815.077 617.45 816.365 616.12 817.989 615.168C819.641 614.216 821.489 613.74 823.533 613.74C825.577 613.74 827.411 614.216 829.035 615.168C830.659 616.12 831.933 617.45 832.857 619.158C833.781 620.838 834.243 622.77 834.243 624.954L834.201 625.878ZM823.533 616.302C821.405 616.302 819.613 616.988 818.157 618.36C816.729 619.704 815.917 621.468 815.721 623.652H831.387C831.191 621.468 830.365 619.704 828.909 618.36C827.481 616.988 825.689 616.302 823.533 616.302ZM857.863 636L848.371 623.064L838.921 636H835.351L846.523 620.88L836.065 606.6H839.635L848.497 618.612L857.317 606.6H860.677L850.261 620.796L861.475 636H857.863Z" fill="white"/>
<path d="M902.564 296.252C900.884 296.252 899.33 295.888 897.902 295.16C896.474 294.432 895.312 293.396 894.416 292.052L896.264 289.952C897.888 292.36 900.002 293.564 902.606 293.564C906.246 293.564 908.066 291.408 908.066 287.096V269.288H897.314V266.6H911.132V286.97C911.132 290.05 910.404 292.374 908.948 293.942C907.52 295.482 905.392 296.252 902.564 296.252ZM928.561 296.252C926.377 296.252 924.277 295.902 922.261 295.202C920.273 294.502 918.733 293.578 917.641 292.43L918.859 290.036C919.923 291.1 921.337 291.968 923.101 292.64C924.865 293.284 926.685 293.606 928.561 293.606C931.193 293.606 933.167 293.13 934.483 292.178C935.799 291.198 936.457 289.938 936.457 288.398C936.457 287.222 936.093 286.284 935.365 285.584C934.665 284.884 933.797 284.352 932.761 283.988C931.725 283.596 930.283 283.176 928.435 282.728C926.223 282.168 924.459 281.636 923.143 281.132C921.827 280.6 920.693 279.802 919.741 278.738C918.817 277.674 918.355 276.232 918.355 274.412C918.355 272.928 918.747 271.584 919.531 270.38C920.315 269.148 921.519 268.168 923.143 267.44C924.767 266.712 926.783 266.348 929.191 266.348C930.871 266.348 932.509 266.586 934.105 267.062C935.729 267.51 937.129 268.14 938.305 268.952L937.255 271.43C936.023 270.618 934.707 270.016 933.307 269.624C931.907 269.204 930.535 268.994 929.191 268.994C926.615 268.994 924.669 269.498 923.353 270.506C922.065 271.486 921.421 272.76 921.421 274.328C921.421 275.504 921.771 276.456 922.471 277.184C923.199 277.884 924.095 278.43 925.159 278.822C926.251 279.186 927.707 279.592 929.527 280.04C931.683 280.572 933.419 281.104 934.735 281.636C936.079 282.14 937.213 282.924 938.137 283.988C939.061 285.024 939.523 286.438 939.523 288.23C939.523 289.714 939.117 291.072 938.305 292.304C937.521 293.508 936.303 294.474 934.651 295.202C932.999 295.902 930.969 296.252 928.561 296.252ZM959.147 296.252C956.235 296.252 953.589 295.608 951.209 294.32C948.857 293.004 947.009 291.212 945.665 288.944C944.349 286.676 943.691 284.128 943.691 281.3C943.691 278.472 944.349 275.924 945.665 273.656C947.009 271.388 948.857 269.61 951.209 268.322C953.589 267.006 956.235 266.348 959.147 266.348C962.059 266.348 964.677 266.992 967.001 268.28C969.353 269.568 971.201 271.36 972.545 273.656C973.889 275.924 974.561 278.472 974.561 281.3C974.561 284.128 973.889 286.69 972.545 288.986C971.201 291.254 969.353 293.032 967.001 294.32C964.677 295.608 962.059 296.252 959.147 296.252ZM959.147 293.48C961.471 293.48 963.571 292.962 965.447 291.926C967.323 290.862 968.793 289.406 969.857 287.558C970.921 285.682 971.453 283.596 971.453 281.3C971.453 279.004 970.921 276.932 969.857 275.084C968.793 273.208 967.323 271.752 965.447 270.716C963.571 269.652 961.471 269.12 959.147 269.12C956.823 269.12 954.709 269.652 952.805 270.716C950.929 271.752 949.445 273.208 948.353 275.084C947.289 276.932 946.757 279.004 946.757 281.3C946.757 283.596 947.289 285.682 948.353 287.558C949.445 289.406 950.929 290.862 952.805 291.926C954.709 292.962 956.823 293.48 959.147 293.48ZM1006.1 266.6V296H1003.54L984.635 272.144V296H981.527V266.6H984.089L1003.03 290.456V266.6H1006.1ZM1013.43 283.316H1024.43V285.92H1013.43V283.316ZM1031.73 266.6H1034.84V293.312H1051.3V296H1031.73V266.6ZM1056.46 266.6H1068.43C1071.54 266.6 1074.28 267.23 1076.66 268.49C1079.04 269.722 1080.89 271.458 1082.21 273.698C1083.52 275.91 1084.18 278.444 1084.18 281.3C1084.18 284.156 1083.52 286.704 1082.21 288.944C1080.89 291.156 1079.04 292.892 1076.66 294.152C1074.28 295.384 1071.54 296 1068.43 296H1056.46V266.6ZM1068.26 293.312C1070.84 293.312 1073.09 292.808 1075.03 291.8C1076.96 290.764 1078.46 289.35 1079.52 287.558C1080.58 285.738 1081.12 283.652 1081.12 281.3C1081.12 278.948 1080.58 276.876 1079.52 275.084C1078.46 273.264 1076.96 271.85 1075.03 270.842C1073.09 269.806 1070.84 269.288 1068.26 269.288H1059.57V293.312H1068.26Z" fill="white"/>
<path d="M1231.97 327.504C1229.98 327.504 1228.15 327.14 1226.47 326.412C1224.82 325.656 1223.46 324.592 1222.4 323.22L1226.18 318.684C1227.77 320.84 1229.59 321.918 1231.64 321.918C1234.41 321.918 1235.79 320.294 1235.79 317.046V303.06H1225.46V297.6H1242.56V316.668C1242.56 320.28 1241.66 322.996 1239.87 324.816C1238.08 326.608 1235.44 327.504 1231.97 327.504ZM1258.94 327.504C1256.61 327.504 1254.36 327.196 1252.18 326.58C1250.02 325.936 1248.28 325.11 1246.97 324.102L1249.28 318.978C1250.54 319.902 1252.04 320.644 1253.77 321.204C1255.51 321.764 1257.24 322.044 1258.98 322.044C1260.91 322.044 1262.34 321.764 1263.26 321.204C1264.19 320.616 1264.65 319.846 1264.65 318.894C1264.65 318.194 1264.37 317.62 1263.81 317.172C1263.28 316.696 1262.58 316.318 1261.71 316.038C1260.87 315.758 1259.72 315.45 1258.27 315.114C1256.03 314.582 1254.19 314.05 1252.76 313.518C1251.34 312.986 1250.1 312.132 1249.07 310.956C1248.06 309.78 1247.56 308.212 1247.56 306.252C1247.56 304.544 1248.02 303.004 1248.94 301.632C1249.87 300.232 1251.25 299.126 1253.1 298.314C1254.98 297.502 1257.26 297.096 1259.95 297.096C1261.82 297.096 1263.66 297.32 1265.45 297.768C1267.24 298.216 1268.81 298.86 1270.15 299.7L1268.05 304.866C1265.34 303.326 1262.62 302.556 1259.9 302.556C1258 302.556 1256.59 302.864 1255.66 303.48C1254.77 304.096 1254.32 304.908 1254.32 305.916C1254.32 306.924 1254.84 307.68 1255.87 308.184C1256.94 308.66 1258.55 309.136 1260.7 309.612C1262.94 310.144 1264.78 310.676 1266.2 311.208C1267.63 311.74 1268.85 312.58 1269.86 313.728C1270.89 314.876 1271.41 316.43 1271.41 318.39C1271.41 320.07 1270.94 321.61 1269.98 323.01C1269.06 324.382 1267.66 325.474 1265.78 326.286C1263.91 327.098 1261.63 327.504 1258.94 327.504ZM1290.3 327.504C1287.25 327.504 1284.49 326.846 1282.02 325.53C1279.59 324.214 1277.67 322.408 1276.27 320.112C1274.9 317.788 1274.21 315.184 1274.21 312.3C1274.21 309.416 1274.9 306.826 1276.27 304.53C1277.67 302.206 1279.59 300.386 1282.02 299.07C1284.49 297.754 1287.25 297.096 1290.3 297.096C1293.35 297.096 1296.09 297.754 1298.53 299.07C1300.97 300.386 1302.88 302.206 1304.28 304.53C1305.68 306.826 1306.38 309.416 1306.38 312.3C1306.38 315.184 1305.68 317.788 1304.28 320.112C1302.88 322.408 1300.97 324.214 1298.53 325.53C1296.09 326.846 1293.35 327.504 1290.3 327.504ZM1290.3 321.708C1292.03 321.708 1293.6 321.316 1295 320.532C1296.4 319.72 1297.49 318.6 1298.28 317.172C1299.09 315.744 1299.5 314.12 1299.5 312.3C1299.5 310.48 1299.09 308.856 1298.28 307.428C1297.49 306 1296.4 304.894 1295 304.11C1293.6 303.298 1292.03 302.892 1290.3 302.892C1288.56 302.892 1286.99 303.298 1285.59 304.11C1284.19 304.894 1283.09 306 1282.28 307.428C1281.49 308.856 1281.1 310.48 1281.1 312.3C1281.1 314.12 1281.49 315.744 1282.28 317.172C1283.09 318.6 1284.19 319.72 1285.59 320.532C1286.99 321.316 1288.56 321.708 1290.3 321.708ZM1338.46 297.6V327H1332.88L1318.22 309.15V327H1311.5V297.6H1317.13L1331.74 315.45V297.6H1338.46Z" fill="black"/>
<path d="M896.231 796.908C895.587 797.384 894.789 797.748 893.837 798C892.913 798.224 891.933 798.336 890.897 798.336C888.209 798.336 886.123 797.65 884.639 796.278C883.183 794.906 882.455 792.89 882.455 790.23V780.948H878.969V775.908H882.455V770.406H889.007V775.908H894.635V780.948H889.007V790.146C889.007 791.098 889.245 791.84 889.721 792.372C890.225 792.876 890.925 793.128 891.821 793.128C892.857 793.128 893.739 792.848 894.467 792.288L896.231 796.908ZM921.927 775.404L911.721 799.386C910.685 801.99 909.397 803.824 907.857 804.888C906.345 805.952 904.511 806.484 902.355 806.484C901.179 806.484 900.017 806.302 898.869 805.938C897.721 805.574 896.783 805.07 896.055 804.426L898.449 799.764C898.953 800.212 899.527 800.562 900.171 800.814C900.843 801.066 901.501 801.192 902.145 801.192C903.041 801.192 903.769 800.968 904.329 800.52C904.889 800.1 905.393 799.386 905.841 798.378L905.925 798.168L896.139 775.404H902.901L909.243 790.734L915.627 775.404H921.927ZM937.956 775.068C940.056 775.068 941.96 775.558 943.668 776.538C945.404 777.49 946.762 778.848 947.742 780.612C948.722 782.348 949.212 784.378 949.212 786.702C949.212 789.026 948.722 791.07 947.742 792.834C946.762 794.57 945.404 795.928 943.668 796.908C941.96 797.86 940.056 798.336 937.956 798.336C935.072 798.336 932.804 797.426 931.152 795.606V806.148H924.6V775.404H930.858V778.008C932.482 776.048 934.848 775.068 937.956 775.068ZM936.822 792.96C938.502 792.96 939.874 792.4 940.938 791.28C942.03 790.132 942.576 788.606 942.576 786.702C942.576 784.798 942.03 783.286 940.938 782.166C939.874 781.018 938.502 780.444 936.822 780.444C935.142 780.444 933.756 781.018 932.664 782.166C931.6 783.286 931.068 784.798 931.068 786.702C931.068 788.606 931.6 790.132 932.664 791.28C933.756 792.4 935.142 792.96 936.822 792.96ZM975.732 786.786C975.732 786.87 975.69 787.458 975.606 788.55H958.512C958.82 789.95 959.548 791.056 960.696 791.868C961.844 792.68 963.272 793.086 964.98 793.086C966.156 793.086 967.192 792.918 968.088 792.582C969.012 792.218 969.866 791.658 970.65 790.902L974.136 794.682C972.008 797.118 968.9 798.336 964.812 798.336C962.264 798.336 960.01 797.846 958.05 796.866C956.09 795.858 954.578 794.472 953.514 792.708C952.45 790.944 951.918 788.942 951.918 786.702C951.918 784.49 952.436 782.502 953.472 780.738C954.536 778.946 955.978 777.56 957.798 776.58C959.646 775.572 961.704 775.068 963.972 775.068C966.184 775.068 968.186 775.544 969.978 776.496C971.77 777.448 973.17 778.82 974.178 780.612C975.214 782.376 975.732 784.434 975.732 786.786ZM964.014 780.024C962.53 780.024 961.284 780.444 960.276 781.284C959.268 782.124 958.652 783.272 958.428 784.728H969.558C969.334 783.3 968.718 782.166 967.71 781.326C966.702 780.458 965.47 780.024 964.014 780.024ZM979.664 783.552H991.55V788.802H979.664V783.552ZM1004.31 798.336C1002.43 798.336 1000.6 798.112 998.806 797.664C997.014 797.188 995.586 796.6 994.522 795.9L996.706 791.196C997.714 791.84 998.932 792.372 1000.36 792.792C1001.79 793.184 1003.19 793.38 1004.56 793.38C1007.33 793.38 1008.72 792.694 1008.72 791.322C1008.72 790.678 1008.34 790.216 1007.58 789.936C1006.83 789.656 1005.67 789.418 1004.1 789.222C1002.25 788.942 1000.72 788.62 999.52 788.256C998.316 787.892 997.266 787.248 996.37 786.324C995.502 785.4 995.068 784.084 995.068 782.376C995.068 780.948 995.474 779.688 996.286 778.596C997.126 777.476 998.33 776.608 999.898 775.992C1001.49 775.376 1003.37 775.068 1005.53 775.068C1007.12 775.068 1008.7 775.25 1010.27 775.614C1011.87 775.95 1013.18 776.426 1014.22 777.042L1012.04 781.704C1010.05 780.584 1007.88 780.024 1005.53 780.024C1004.13 780.024 1003.08 780.22 1002.38 780.612C1001.68 781.004 1001.33 781.508 1001.33 782.124C1001.33 782.824 1001.7 783.314 1002.46 783.594C1003.22 783.874 1004.42 784.14 1006.07 784.392C1007.92 784.7 1009.43 785.036 1010.61 785.4C1011.78 785.736 1012.81 786.366 1013.67 787.29C1014.54 788.214 1014.98 789.502 1014.98 791.154C1014.98 792.554 1014.56 793.8 1013.72 794.892C1012.88 795.984 1011.64 796.838 1010.02 797.454C1008.42 798.042 1006.52 798.336 1004.31 798.336ZM1028.13 775.068C1031.63 775.068 1034.32 775.908 1036.2 777.588C1038.07 779.24 1039.01 781.746 1039.01 785.106V798H1032.88V795.186C1031.65 797.286 1029.35 798.336 1025.99 798.336C1024.25 798.336 1022.74 798.042 1021.45 797.454C1020.19 796.866 1019.23 796.054 1018.56 795.018C1017.88 793.982 1017.55 792.806 1017.55 791.49C1017.55 789.39 1018.33 787.738 1019.9 786.534C1021.5 785.33 1023.95 784.728 1027.25 784.728H1032.46C1032.46 783.3 1032.02 782.208 1031.16 781.452C1030.29 780.668 1028.99 780.276 1027.25 780.276C1026.05 780.276 1024.86 780.472 1023.68 780.864C1022.53 781.228 1021.55 781.732 1020.74 782.376L1018.39 777.798C1019.62 776.93 1021.09 776.258 1022.8 775.782C1024.53 775.306 1026.31 775.068 1028.13 775.068ZM1027.63 793.926C1028.75 793.926 1029.74 793.674 1030.61 793.17C1031.48 792.638 1032.09 791.868 1032.46 790.86V788.55H1027.96C1025.28 788.55 1023.93 789.432 1023.93 791.196C1023.93 792.036 1024.25 792.708 1024.9 793.212C1025.57 793.688 1026.48 793.926 1027.63 793.926ZM1052.12 775.908H1057.92V780.948H1052.29V798H1045.74V780.948H1042.25V775.908H1045.74V774.9C1045.74 772.324 1046.49 770.28 1048.01 768.768C1049.55 767.256 1051.7 766.5 1054.47 766.5C1055.45 766.5 1056.38 766.612 1057.25 766.836C1058.14 767.032 1058.88 767.326 1059.47 767.718L1057.75 772.464C1056.99 771.932 1056.11 771.666 1055.1 771.666C1053.12 771.666 1052.12 772.758 1052.12 774.942V775.908ZM1083.03 786.786C1083.03 786.87 1082.99 787.458 1082.9 788.55H1065.81C1066.12 789.95 1066.85 791.056 1067.99 791.868C1069.14 792.68 1070.57 793.086 1072.28 793.086C1073.45 793.086 1074.49 792.918 1075.39 792.582C1076.31 792.218 1077.16 791.658 1077.95 790.902L1081.43 794.682C1079.31 797.118 1076.2 798.336 1072.11 798.336C1069.56 798.336 1067.31 797.846 1065.35 796.866C1063.39 795.858 1061.88 794.472 1060.81 792.708C1059.75 790.944 1059.22 788.942 1059.22 786.702C1059.22 784.49 1059.73 782.502 1060.77 780.738C1061.83 778.946 1063.28 777.56 1065.1 776.58C1066.94 775.572 1069 775.068 1071.27 775.068C1073.48 775.068 1075.48 775.544 1077.28 776.496C1079.07 777.448 1080.47 778.82 1081.48 780.612C1082.51 782.376 1083.03 784.434 1083.03 786.786ZM1071.31 780.024C1069.83 780.024 1068.58 780.444 1067.57 781.284C1066.57 782.124 1065.95 783.272 1065.73 784.728H1076.86C1076.63 783.3 1076.02 782.166 1075.01 781.326C1074 780.458 1072.77 780.024 1071.31 780.024Z" fill="black"/>
</svg>
